solid arduino_holder
facet normal 0.0 0.0 -1.0
  outer loop
    vertex 0.0 14.0 0.0
    vertex 4.251328938574311 8.970643868229924 0.0
    vertex 0.0 0.0 0.0
  endloop
endfacet
facet normal 0.0 0.0 -1.0
  outer loop
    vertex 4.251328938574311 8.970643868229924 0.0
    vertex 0.0 14.0 0.0
    vertex 4.5621345791944945 9.390159354769015 0.0
  endloop
endfacet
facet normal 0.0 0.0 -1.0
  outer loop
    vertex 4.5621345791944945 9.390159354769015 0.0
    vertex 0.0 14.0 0.0
    vertex 4.9709283720576165 9.714937778627554 0.0
  endloop
endfacet
facet normal 0.0 0.0 -1.0
  outer loop
    vertex 4.9709283720576165 9.714937778627554 0.0
    vertex 0.0 14.0 0.0
    vertex 5.449851695743739 9.922846026941302 0.0
  endloop
endfacet
facet normal 0.0 0.0 -1.0
  outer loop
    vertex 5.449851695743739 9.922846026941302 0.0
    vertex 0.0 14.0 0.0
    vertex 5.966266717201865 9.999715496172307 0.0
  endloop
endfacet
facet normal 0.0 0.0 -1.0
  outer loop
    vertex 5.966266717201865 9.999715496172307 0.0
    vertex 0.0 14.0 0.0
    vertex 160.0 14.0 0.0
  endloop
endfacet
facet normal 0.0 0.0 -1.0
  outer loop
    vertex 0.0 0.0 0.0
    vertex 4.251328938574311 8.970643868229924 0.0
    vertex 4.059692340974722 8.4849806061358 0.0
  endloop
endfacet
facet normal 0.0 0.0 -1.0
  outer loop
    vertex 0.0 0.0 0.0
    vertex 4.059692340974722 8.4849806061358 0.0
    vertex 4.000284503827692 7.966266717201865 0.0
  endloop
endfacet
facet normal 0.0 0.0 -1.0
  outer loop
    vertex 5.966266717201865 9.999715496172307 0.0
    vertex 160.0 14.0 0.0
    vertex 6.4849806061357995 9.940307659025278 0.0
  endloop
endfacet
facet normal 0.0 0.0 -1.0
  outer loop
    vertex 6.4849806061357995 9.940307659025278 0.0
    vertex 160.0 14.0 0.0
    vertex 6.970643868229925 9.74867106142569 0.0
  endloop
endfacet
facet normal 0.0 0.0 -1.0
  outer loop
    vertex 6.970643868229925 9.74867106142569 0.0
    vertex 160.0 14.0 0.0
    vertex 7.390159354769015 9.437865420805505 0.0
  endloop
endfacet
facet normal 0.0 0.0 -1.0
  outer loop
    vertex 7.390159354769015 9.437865420805505 0.0
    vertex 160.0 14.0 0.0
    vertex 7.714937778627556 9.029071627942383 0.0
  endloop
endfacet
facet normal 0.0 0.0 -1.0
  outer loop
    vertex 7.714937778627556 9.029071627942383 0.0
    vertex 160.0 14.0 0.0
    vertex 7.922846026941304 8.550148304256261 0.0
  endloop
endfacet
facet normal 0.0 0.0 -1.0
  outer loop
    vertex 7.922846026941304 8.550148304256261 0.0
    vertex 160.0 14.0 0.0
    vertex 7.999715496172308 8.033733282798135 0.0
  endloop
endfacet
facet normal 0.0 0.0 -1.0
  outer loop
    vertex 7.999715496172308 8.033733282798135 0.0
    vertex 160.0 14.0 0.0
    vertex 152.81956030349372 9.614485095289563 0.0
  endloop
endfacet
facet normal 0.0 0.0 -1.0
  outer loop
    vertex 7.999715496172308 8.033733282798135 0.0
    vertex 152.81956030349372 9.614485095289563 0.0
    vertex 152.44192332007265 9.253952574648089 0.0
  endloop
endfacet
facet normal 0.0 0.0 -1.0
  outer loop
    vertex 7.999715496172308 8.033733282798135 0.0
    vertex 152.44192332007265 9.253952574648089 0.0
    vertex 152.1704666875452 8.807965258298958 0.0
  endloop
endfacet
facet normal 0.0 0.0 -1.0
  outer loop
    vertex 7.999715496172308 8.033733282798135 0.0
    vertex 152.1704666875452 8.807965258298958 0.0
    vertex 152.02368972681478 8.306916444822475 0.0
  endloop
endfacet
facet normal 0.0 0.0 -1.0
  outer loop
    vertex 7.999715496172308 8.033733282798135 0.0
    vertex 152.02368972681478 8.306916444822475 0.0
    vertex 152.01159504519475 7.784951782834744 0.0
  endloop
endfacet
facet normal 0.0 0.0 -1.0
  outer loop
    vertex 152.81956030349372 9.614485095289563 0.0
    vertex 160.0 14.0 0.0
    vertex 153.27764230146286 9.864993124749821 0.0
  endloop
endfacet
facet normal 0.0 0.0 -1.0
  outer loop
    vertex 153.27764230146286 9.864993124749821 0.0
    vertex 160.0 14.0 0.0
    vertex 153.78495178283475 9.988404954805244 0.0
  endloop
endfacet
facet normal 0.0 0.0 -1.0
  outer loop
    vertex 153.78495178283475 9.988404954805244 0.0
    vertex 160.0 14.0 0.0
    vertex 154.3069164448225 9.976310273185243 0.0
  endloop
endfacet
facet normal 0.0 0.0 -1.0
  outer loop
    vertex 154.3069164448225 9.976310273185243 0.0
    vertex 160.0 14.0 0.0
    vertex 154.80796525829896 9.829533312454817 0.0
  endloop
endfacet
facet normal 0.0 0.0 -1.0
  outer loop
    vertex 154.80796525829896 9.829533312454817 0.0
    vertex 160.0 14.0 0.0
    vertex 155.2539525746481 9.558076679927348 0.0
  endloop
endfacet
facet normal 0.0 0.0 -1.0
  outer loop
    vertex 155.2539525746481 9.558076679927348 0.0
    vertex 160.0 14.0 0.0
    vertex 155.61448509528958 9.180439696506284 0.0
  endloop
endfacet
facet normal 0.0 0.0 -1.0
  outer loop
    vertex 155.61448509528958 9.180439696506284 0.0
    vertex 160.0 14.0 0.0
    vertex 155.86499312474984 8.722357698537154 0.0
  endloop
endfacet
facet normal 0.0 0.0 -1.0
  outer loop
    vertex 155.86499312474984 8.722357698537154 0.0
    vertex 160.0 14.0 0.0
    vertex 155.98840495480525 8.215048217165254 0.0
  endloop
endfacet
facet normal 0.0 0.0 -1.0
  outer loop
    vertex 0.0 0.0 0.0
    vertex 6.033733282798135 6.000284503827691 0.0
    vertex 160.0 0.0 0.0
  endloop
endfacet
facet normal 0.0 0.0 -1.0
  outer loop
    vertex 6.033733282798135 6.000284503827691 0.0
    vertex 0.0 0.0 0.0
    vertex 5.515019393864201 6.059692340974721 0.0
  endloop
endfacet
facet normal 0.0 0.0 -1.0
  outer loop
    vertex 5.515019393864201 6.059692340974721 0.0
    vertex 0.0 0.0 0.0
    vertex 5.029356131770076 6.25132893857431 0.0
  endloop
endfacet
facet normal 0.0 0.0 -1.0
  outer loop
    vertex 5.029356131770076 6.25132893857431 0.0
    vertex 0.0 0.0 0.0
    vertex 4.609840645230984 6.562134579194494 0.0
  endloop
endfacet
facet normal 0.0 0.0 -1.0
  outer loop
    vertex 4.609840645230984 6.562134579194494 0.0
    vertex 0.0 0.0 0.0
    vertex 4.285062221372446 6.9709283720576165 0.0
  endloop
endfacet
facet normal 0.0 0.0 -1.0
  outer loop
    vertex 4.285062221372446 6.9709283720576165 0.0
    vertex 0.0 0.0 0.0
    vertex 4.077153973058695 7.449851695743738 0.0
  endloop
endfacet
facet normal 0.0 0.0 -1.0
  outer loop
    vertex 4.077153973058695 7.449851695743738 0.0
    vertex 0.0 0.0 0.0
    vertex 4.000284503827692 7.966266717201865 0.0
  endloop
endfacet
facet normal 0.0 0.0 -1.0
  outer loop
    vertex 160.0 0.0 0.0
    vertex 6.033733282798135 6.000284503827691 0.0
    vertex 6.550148304256262 6.077153973058694 0.0
  endloop
endfacet
facet normal 0.0 0.0 -1.0
  outer loop
    vertex 160.0 0.0 0.0
    vertex 6.550148304256262 6.077153973058694 0.0
    vertex 7.0290716279423835 6.285062221372445 0.0
  endloop
endfacet
facet normal 0.0 0.0 -1.0
  outer loop
    vertex 160.0 0.0 0.0
    vertex 7.0290716279423835 6.285062221372445 0.0
    vertex 7.437865420805505 6.6098406452309835 0.0
  endloop
endfacet
facet normal 0.0 0.0 -1.0
  outer loop
    vertex 160.0 0.0 0.0
    vertex 7.437865420805505 6.6098406452309835 0.0
    vertex 7.748671061425689 7.029356131770075 0.0
  endloop
endfacet
facet normal 0.0 0.0 -1.0
  outer loop
    vertex 160.0 0.0 0.0
    vertex 7.748671061425689 7.029356131770075 0.0
    vertex 7.940307659025278 7.5150193938642005 0.0
  endloop
endfacet
facet normal 0.0 0.0 -1.0
  outer loop
    vertex 160.0 0.0 0.0
    vertex 7.940307659025278 7.5150193938642005 0.0
    vertex 7.999715496172308 8.033733282798135 0.0
  endloop
endfacet
facet normal 0.0 0.0 -1.0
  outer loop
    vertex 160.0 0.0 0.0
    vertex 7.999715496172308 8.033733282798135 0.0
    vertex 152.74604742535192 6.441923320072651 0.0
  endloop
endfacet
facet normal 0.0 0.0 -1.0
  outer loop
    vertex 152.74604742535192 6.441923320072651 0.0
    vertex 7.999715496172308 8.033733282798135 0.0
    vertex 152.38551490471045 6.819560303493715 0.0
  endloop
endfacet
facet normal 0.0 0.0 -1.0
  outer loop
    vertex 152.38551490471045 6.819560303493715 0.0
    vertex 7.999715496172308 8.033733282798135 0.0
    vertex 152.13500687525018 7.277642301462845 0.0
  endloop
endfacet
facet normal 0.0 0.0 -1.0
  outer loop
    vertex 152.13500687525018 7.277642301462845 0.0
    vertex 7.999715496172308 8.033733282798135 0.0
    vertex 152.01159504519475 7.784951782834744 0.0
  endloop
endfacet
facet normal 0.0 0.0 -1.0
  outer loop
    vertex 160.0 0.0 0.0
    vertex 152.74604742535192 6.441923320072651 0.0
    vertex 153.19203474170106 6.170466687545182 0.0
  endloop
endfacet
facet normal 0.0 0.0 -1.0
  outer loop
    vertex 160.0 0.0 0.0
    vertex 153.19203474170106 6.170466687545182 0.0
    vertex 153.69308355517754 6.023689726814755 0.0
  endloop
endfacet
facet normal 0.0 0.0 -1.0
  outer loop
    vertex 160.0 0.0 0.0
    vertex 153.69308355517754 6.023689726814755 0.0
    vertex 154.21504821716528 6.011595045194755 0.0
  endloop
endfacet
facet normal 0.0 0.0 -1.0
  outer loop
    vertex 160.0 0.0 0.0
    vertex 154.21504821716528 6.011595045194755 0.0
    vertex 154.72235769853717 6.135006875250177 0.0
  endloop
endfacet
facet normal 0.0 0.0 -1.0
  outer loop
    vertex 160.0 0.0 0.0
    vertex 154.72235769853717 6.135006875250177 0.0
    vertex 155.1804396965063 6.385514904710436 0.0
  endloop
endfacet
facet normal 0.0 0.0 -1.0
  outer loop
    vertex 160.0 0.0 0.0
    vertex 155.1804396965063 6.385514904710436 0.0
    vertex 155.55807667992735 6.746047425351909 0.0
  endloop
endfacet
facet normal 0.0 0.0 -1.0
  outer loop
    vertex 160.0 0.0 0.0
    vertex 155.55807667992735 6.746047425351909 0.0
    vertex 155.82953331245483 7.192034741701041 0.0
  endloop
endfacet
facet normal 0.0 0.0 -1.0
  outer loop
    vertex 160.0 0.0 0.0
    vertex 155.82953331245483 7.192034741701041 0.0
    vertex 155.97631027318525 7.693083555177524 0.0
  endloop
endfacet
facet normal 0.0 0.0 -1.0
  outer loop
    vertex 160.0 0.0 0.0
    vertex 155.97631027318525 7.693083555177524 0.0
    vertex 155.98840495480525 8.215048217165254 0.0
  endloop
endfacet
facet normal 0.0 0.0 -1.0
  outer loop
    vertex 160.0 0.0 0.0
    vertex 155.98840495480525 8.215048217165254 0.0
    vertex 160.0 14.0 0.0
  endloop
endfacet
facet normal -0.0 1.0 0.0
  outer loop
    vertex 0.0 14.0 3.0
    vertex 160.0 14.0 0.0
    vertex 0.0 14.0 0.0
  endloop
endfacet
facet normal -0.0 1.0 0.0
  outer loop
    vertex 160.0 14.0 0.0
    vertex 0.0 14.0 3.0
    vertex 160.0 14.0 3.0
  endloop
endfacet
facet normal 1.0 0.0 0.0
  outer loop
    vertex 160.0 14.0 0.0
    vertex 160.0 0.0 3.0
    vertex 160.0 0.0 0.0
  endloop
endfacet
facet normal 1.0 0.0 0.0
  outer loop
    vertex 160.0 0.0 3.0
    vertex 160.0 14.0 0.0
    vertex 160.0 14.0 3.0
  endloop
endfacet
facet normal 0.0 -1.0 0.0
  outer loop
    vertex 75.0 0.0 3.0
    vertex 15.547407582397184 -3.877453913503359e-15 19.076371933368076
    vertex 15.030883542005819 -3.877453913503359e-15 19.0002384625078
  endloop
endfacet
facet normal 0.0 -1.0 0.0
  outer loop
    vertex 15.547407582397184 -3.877453913503359e-15 19.076371933368076
    vertex 75.0 0.0 3.0
    vertex 16.026626700681984 -3.877453913503359e-15 19.283597478023633
  endloop
endfacet
facet normal 0.0 -1.0 0.0
  outer loop
    vertex 16.026626700681984 -3.877453913503359e-15 19.283597478023633
    vertex 75.0 0.0 3.0
    vertex 16.435882905896147 -3.877453913503359e-15 19.6077930180626
  endloop
endfacet
facet normal 0.0 -1.0 0.0
  outer loop
    vertex 16.435882905896147 -3.877453913503359e-15 19.6077930180626
    vertex 75.0 0.0 3.0
    vertex 66.74490046880183 -3.524958103184872e-16 62.93468123924327
  endloop
endfacet
facet normal 0.0 -1.0 0.0
  outer loop
    vertex 66.74490046880183 -3.524958103184872e-16 62.93468123924327
    vertex 75.0 0.0 3.0
    vertex 67.10761582091519 -3.524958103184872e-16 63.31022213319325
  endloop
endfacet
facet normal 0.0 -1.0 0.0
  outer loop
    vertex 67.10761582091519 -3.524958103184872e-16 63.31022213319325
    vertex 75.0 0.0 3.0
    vertex 67.3607748115439 -3.524958103184872e-16 63.766844422565214
  endloop
endfacet
facet normal 0.0 -1.0 0.0
  outer loop
    vertex 67.3607748115439 -3.524958103184872e-16 63.766844422565214
    vertex 75.0 0.0 3.0
    vertex 75.0 0.0 77.99999999999999
  endloop
endfacet
facet normal 0.0 -1.0 0.0
  outer loop
    vertex 16.435882905896147 -3.877453913503359e-15 19.6077930180626
    vertex 66.74490046880183 -3.524958103184872e-16 62.93468123924327
    vertex 16.747286063982184 -3.877453913503359e-15 20.02686516318978
  endloop
endfacet
facet normal 0.0 -1.0 0.0
  outer loop
    vertex 16.747286063982184 -3.877453913503359e-15 20.02686516318978
    vertex 66.74490046880183 -3.524958103184872e-16 62.93468123924327
    vertex 16.939614564334583 -3.877453913503359e-15 20.51225483926422
  endloop
endfacet
facet normal 0.0 -1.0 0.0
  outer loop
    vertex 16.939614564334583 -3.877453913503359e-15 20.51225483926422
    vertex 66.74490046880183 -3.524958103184872e-16 62.93468123924327
    vertex 16.9997615374922 -3.877453913503359e-15 21.030883542005817
  endloop
endfacet
facet normal 0.0 -1.0 0.0
  outer loop
    vertex 16.9997615374922 -3.877453913503359e-15 21.030883542005817
    vertex 66.74490046880183 -3.524958103184872e-16 62.93468123924327
    vertex 16.923628066631924 -3.877453913503359e-15 21.54740758239718
  endloop
endfacet
facet normal 0.0 -1.0 0.0
  outer loop
    vertex 16.923628066631924 -3.877453913503359e-15 21.54740758239718
    vertex 66.74490046880183 -3.524958103184872e-16 62.93468123924327
    vertex 16.716402521976367 -3.877453913503359e-15 22.02662670068198
  endloop
endfacet
facet normal 0.0 -1.0 0.0
  outer loop
    vertex 16.716402521976367 -3.877453913503359e-15 22.02662670068198
    vertex 66.74490046880183 -3.524958103184872e-16 62.93468123924327
    vertex 16.3922069819374 -3.877453913503359e-15 22.435882905896143
  endloop
endfacet
facet normal 0.0 -1.0 0.0
  outer loop
    vertex 16.3922069819374 -3.877453913503359e-15 22.435882905896143
    vertex 66.74490046880183 -3.524958103184872e-16 62.93468123924327
    vertex 15.97313483681022 -3.877453913503359e-15 22.74728606398218
  endloop
endfacet
facet normal 0.0 -1.0 0.0
  outer loop
    vertex 15.97313483681022 -3.877453913503359e-15 22.74728606398218
    vertex 66.74490046880183 -3.524958103184872e-16 62.93468123924327
    vertex 15.487745160735779 -3.877453913503359e-15 22.93961456433458
  endloop
endfacet
facet normal 0.0 -1.0 0.0
  outer loop
    vertex 15.487745160735779 -3.877453913503359e-15 22.93961456433458
    vertex 66.74490046880183 -3.524958103184872e-16 62.93468123924327
    vertex 14.969116457994183 -3.877453913503359e-15 22.999761537492198
  endloop
endfacet
facet normal 0.0 -1.0 0.0
  outer loop
    vertex 14.969116457994183 -3.877453913503359e-15 22.999761537492198
    vertex 66.74490046880183 -3.524958103184872e-16 62.93468123924327
    vertex 66.29734720703495 -3.524958103184872e-16 62.6658142320273
  endloop
endfacet
facet normal 0.0 -1.0 0.0
  outer loop
    vertex 14.969116457994183 -3.877453913503359e-15 22.999761537492198
    vertex 66.29734720703495 -3.524958103184872e-16 62.6658142320273
    vertex 65.79545605078718 -3.524958103184872e-16 62.52194395376337
  endloop
endfacet
facet normal 0.0 -1.0 0.0
  outer loop
    vertex 14.969116457994183 -3.877453913503359e-15 22.999761537492198
    vertex 65.79545605078718 -3.524958103184872e-16 62.52194395376337
    vertex 65.27343005294249 -3.524958103184872e-16 62.5128749261583
  endloop
endfacet
facet normal 0.0 -1.0 0.0
  outer loop
    vertex 67.3607748115439 -3.524958103184872e-16 63.766844422565214
    vertex 75.0 0.0 77.99999999999999
    vertex 67.48712507384168 -3.524958103184872e-16 64.27343005294247
  endloop
endfacet
facet normal 0.0 -1.0 0.0
  outer loop
    vertex 67.48712507384168 -3.524958103184872e-16 64.27343005294247
    vertex 75.0 0.0 77.99999999999999
    vertex 67.47805604623662 -3.524958103184872e-16 64.79545605078718
  endloop
endfacet
facet normal 0.0 -1.0 0.0
  outer loop
    vertex 67.47805604623662 -3.524958103184872e-16 64.79545605078718
    vertex 75.0 0.0 77.99999999999999
    vertex 67.33418576797268 -3.524958103184872e-16 65.29734720703495
  endloop
endfacet
facet normal 0.0 -1.0 0.0
  outer loop
    vertex 67.33418576797268 -3.524958103184872e-16 65.29734720703495
    vertex 75.0 0.0 77.99999999999999
    vertex 67.06531876075672 -3.524958103184872e-16 65.74490046880183
  endloop
endfacet
facet normal 0.0 -1.0 0.0
  outer loop
    vertex 67.06531876075672 -3.524958103184872e-16 65.74490046880183
    vertex 75.0 0.0 77.99999999999999
    vertex 66.68977786680674 -3.524958103184872e-16 66.10761582091519
  endloop
endfacet
facet normal 0.0 -1.0 0.0
  outer loop
    vertex 66.68977786680674 -3.524958103184872e-16 66.10761582091519
    vertex 75.0 0.0 77.99999999999999
    vertex 66.23315557743477 -3.524958103184872e-16 66.3607748115439
  endloop
endfacet
facet normal 0.0 -1.0 0.0
  outer loop
    vertex 66.23315557743477 -3.524958103184872e-16 66.3607748115439
    vertex 75.0 0.0 77.99999999999999
    vertex 65.72656994705751 -3.524958103184872e-16 66.4871250738417
  endloop
endfacet
facet normal 0.0 -1.0 0.0
  outer loop
    vertex 160.0 0.0 3.0
    vertex 0.0 0.0 0.0
    vertex 160.0 0.0 0.0
  endloop
endfacet
facet normal 0.0 -1.0 0.0
  outer loop
    vertex 0.0 0.0 0.0
    vertex 160.0 0.0 3.0
    vertex 75.0 0.0 3.0
  endloop
endfacet
facet normal 0.0 -1.0 0.0
  outer loop
    vertex 0.0 0.0 0.0
    vertex 75.0 0.0 3.0
    vertex 14.512254839264223 -3.877453913503359e-15 19.060385435665417
  endloop
endfacet
facet normal 0.0 -1.0 0.0
  outer loop
    vertex 0.0 0.0 0.0
    vertex 14.512254839264223 -3.877453913503359e-15 19.060385435665417
    vertex 14.026865163189782 -3.877453913503359e-15 19.252713936017813
  endloop
endfacet
facet normal 0.0 -1.0 0.0
  outer loop
    vertex 0.0 0.0 0.0
    vertex 14.026865163189782 -3.877453913503359e-15 19.252713936017813
    vertex 13.607793018062603 -3.877453913503359e-15 19.564117094103853
  endloop
endfacet
facet normal 0.0 -1.0 0.0
  outer loop
    vertex 0.0 0.0 0.0
    vertex 13.607793018062603 -3.877453913503359e-15 19.564117094103853
    vertex 13.283597478023637 -3.877453913503359e-15 19.973373299318016
  endloop
endfacet
facet normal 0.0 -1.0 0.0
  outer loop
    vertex 0.0 0.0 0.0
    vertex 13.283597478023637 -3.877453913503359e-15 19.973373299318016
    vertex 13.076371933368078 -3.877453913503359e-15 20.452592417602816
  endloop
endfacet
facet normal 0.0 -1.0 0.0
  outer loop
    vertex 0.0 0.0 0.0
    vertex 13.076371933368078 -3.877453913503359e-15 20.452592417602816
    vertex 0.0 0.0 77.99999999999999
  endloop
endfacet
facet normal 0.0 -1.0 0.0
  outer loop
    vertex 14.512254839264223 -3.877453913503359e-15 19.060385435665417
    vertex 75.0 0.0 3.0
    vertex 15.030883542005819 -3.877453913503359e-15 19.0002384625078
  endloop
endfacet
facet normal 0.0 -1.0 0.0
  outer loop
    vertex 0.0 0.0 77.99999999999999
    vertex 13.076371933368078 -3.877453913503359e-15 20.452592417602816
    vertex 13.000238462507799 -3.877453913503359e-15 20.96911645799418
  endloop
endfacet
facet normal 0.0 -1.0 0.0
  outer loop
    vertex 0.0 0.0 77.99999999999999
    vertex 13.000238462507799 -3.877453913503359e-15 20.96911645799418
    vertex 13.060385435665419 -3.877453913503359e-15 21.487745160735777
  endloop
endfacet
facet normal 0.0 -1.0 0.0
  outer loop
    vertex 0.0 0.0 77.99999999999999
    vertex 13.060385435665419 -3.877453913503359e-15 21.487745160735777
    vertex 13.252713936017816 -3.877453913503359e-15 21.973134836810218
  endloop
endfacet
facet normal 0.0 -1.0 0.0
  outer loop
    vertex 0.0 0.0 77.99999999999999
    vertex 13.252713936017816 -3.877453913503359e-15 21.973134836810218
    vertex 13.564117094103855 -3.877453913503359e-15 22.392206981937395
  endloop
endfacet
facet normal 0.0 -1.0 0.0
  outer loop
    vertex 0.0 0.0 77.99999999999999
    vertex 13.564117094103855 -3.877453913503359e-15 22.392206981937395
    vertex 13.973373299318018 -3.877453913503359e-15 22.716402521976363
  endloop
endfacet
facet normal 0.0 -1.0 0.0
  outer loop
    vertex 0.0 0.0 77.99999999999999
    vertex 13.973373299318018 -3.877453913503359e-15 22.716402521976363
    vertex 14.452592417602819 -3.877453913503359e-15 22.92362806663192
  endloop
endfacet
facet normal 0.0 -1.0 0.0
  outer loop
    vertex 0.0 0.0 77.99999999999999
    vertex 14.452592417602819 -3.877453913503359e-15 22.92362806663192
    vertex 14.969116457994183 -3.877453913503359e-15 22.999761537492198
  endloop
endfacet
facet normal 0.0 -1.0 0.0
  outer loop
    vertex 0.0 0.0 77.99999999999999
    vertex 14.969116457994183 -3.877453913503359e-15 22.999761537492198
    vertex 65.27343005294249 -3.524958103184872e-16 62.5128749261583
  endloop
endfacet
facet normal 0.0 -1.0 0.0
  outer loop
    vertex 0.0 0.0 77.99999999999999
    vertex 65.27343005294249 -3.524958103184872e-16 62.5128749261583
    vertex 64.76684442256521 -3.524958103184872e-16 62.63922518845608
  endloop
endfacet
facet normal 0.0 -1.0 0.0
  outer loop
    vertex 0.0 0.0 77.99999999999999
    vertex 64.76684442256521 -3.524958103184872e-16 62.63922518845608
    vertex 64.31022213319325 -3.524958103184872e-16 62.89238417908481
  endloop
endfacet
facet normal 0.0 -1.0 0.0
  outer loop
    vertex 0.0 0.0 77.99999999999999
    vertex 64.31022213319325 -3.524958103184872e-16 62.89238417908481
    vertex 63.93468123924327 -3.524958103184872e-16 63.25509953119816
  endloop
endfacet
facet normal 0.0 -1.0 0.0
  outer loop
    vertex 0.0 0.0 77.99999999999999
    vertex 63.93468123924327 -3.524958103184872e-16 63.25509953119816
    vertex 63.6658142320273 -3.524958103184872e-16 63.70265279296505
  endloop
endfacet
facet normal 0.0 -1.0 0.0
  outer loop
    vertex 0.0 0.0 77.99999999999999
    vertex 63.6658142320273 -3.524958103184872e-16 63.70265279296505
    vertex 63.52194395376337 -3.524958103184872e-16 64.2045439492128
  endloop
endfacet
facet normal 0.0 -1.0 0.0
  outer loop
    vertex 0.0 0.0 77.99999999999999
    vertex 63.52194395376337 -3.524958103184872e-16 64.2045439492128
    vertex 63.5128749261583 -3.524958103184872e-16 64.72656994705751
  endloop
endfacet
facet normal 0.0 -1.0 0.0
  outer loop
    vertex 0.0 0.0 77.99999999999999
    vertex 63.5128749261583 -3.524958103184872e-16 64.72656994705751
    vertex 63.639225188456074 -3.524958103184872e-16 65.23315557743477
  endloop
endfacet
facet normal 0.0 -1.0 0.0
  outer loop
    vertex 0.0 0.0 77.99999999999999
    vertex 63.639225188456074 -3.524958103184872e-16 65.23315557743477
    vertex 63.892384179084814 -3.524958103184872e-16 65.68977786680674
  endloop
endfacet
facet normal 0.0 -1.0 0.0
  outer loop
    vertex 0.0 0.0 77.99999999999999
    vertex 63.892384179084814 -3.524958103184872e-16 65.68977786680674
    vertex 64.25509953119816 -3.524958103184872e-16 66.06531876075672
  endloop
endfacet
facet normal 0.0 -1.0 0.0
  outer loop
    vertex 0.0 0.0 77.99999999999999
    vertex 64.25509953119816 -3.524958103184872e-16 66.06531876075672
    vertex 64.70265279296504 -3.524958103184872e-16 66.33418576797268
  endloop
endfacet
facet normal 0.0 -1.0 0.0
  outer loop
    vertex 0.0 0.0 77.99999999999999
    vertex 64.70265279296504 -3.524958103184872e-16 66.33418576797268
    vertex 65.2045439492128 -3.524958103184872e-16 66.47805604623662
  endloop
endfacet
facet normal 0.0 -1.0 0.0
  outer loop
    vertex 0.0 0.0 77.99999999999999
    vertex 65.2045439492128 -3.524958103184872e-16 66.47805604623662
    vertex 65.72656994705751 -3.524958103184872e-16 66.4871250738417
  endloop
endfacet
facet normal 0.0 -1.0 0.0
  outer loop
    vertex 0.0 0.0 77.99999999999999
    vertex 65.72656994705751 -3.524958103184872e-16 66.4871250738417
    vertex 75.0 0.0 77.99999999999999
  endloop
endfacet
facet normal -1.0 0.0 0.0
  outer loop
    vertex 0.0 3.0 77.99999999999999
    vertex 0.0 0.0 0.0
    vertex 0.0 0.0 77.99999999999999
  endloop
endfacet
facet normal -1.0 0.0 0.0
  outer loop
    vertex 0.0 0.0 0.0
    vertex 0.0 3.0 77.99999999999999
    vertex 0.0 3.0 3.0
  endloop
endfacet
facet normal -1.0 0.0 0.0
  outer loop
    vertex 0.0 0.0 0.0
    vertex 0.0 3.0 3.0
    vertex 0.0 14.0 0.0
  endloop
endfacet
facet normal -1.0 0.0 0.0
  outer loop
    vertex 0.0 14.0 0.0
    vertex 0.0 3.0 3.0
    vertex 0.0 14.0 3.0
  endloop
endfacet
facet normal 0.0 0.0 1.0
  outer loop
    vertex 75.0 0.0 77.99999999999999
    vertex 0.0 3.0 77.99999999999999
    vertex 0.0 0.0 77.99999999999999
  endloop
endfacet
facet normal 0.0 0.0 1.0
  outer loop
    vertex 0.0 3.0 77.99999999999999
    vertex 75.0 0.0 77.99999999999999
    vertex 75.0 3.0 77.99999999999999
  endloop
endfacet
facet normal 1.0 -0.0 0.0
  outer loop
    vertex 75.0 3.0 3.0
    vertex 75.0 0.0 77.99999999999999
    vertex 75.0 0.0 3.0
  endloop
endfacet
facet normal 1.0 -0.0 0.0
  outer loop
    vertex 75.0 0.0 77.99999999999999
    vertex 75.0 3.0 3.0
    vertex 75.0 3.0 77.99999999999999
  endloop
endfacet
facet normal 0.0 1.0 0.0
  outer loop
    vertex 0.0 3.0 3.0
    vertex 14.512254839264223 2.9999999999999964 19.060385435665417
    vertex 75.0 3.0 3.0
  endloop
endfacet
facet normal 0.0 1.0 0.0
  outer loop
    vertex 14.512254839264223 2.9999999999999964 19.060385435665417
    vertex 0.0 3.0 3.0
    vertex 14.026865163189782 2.9999999999999964 19.252713936017813
  endloop
endfacet
facet normal 0.0 1.0 0.0
  outer loop
    vertex 14.026865163189782 2.9999999999999964 19.252713936017813
    vertex 0.0 3.0 3.0
    vertex 13.607793018062603 2.9999999999999964 19.564117094103853
  endloop
endfacet
facet normal 0.0 1.0 0.0
  outer loop
    vertex 13.607793018062603 2.9999999999999964 19.564117094103853
    vertex 0.0 3.0 3.0
    vertex 13.283597478023637 2.9999999999999964 19.973373299318016
  endloop
endfacet
facet normal 0.0 1.0 0.0
  outer loop
    vertex 13.283597478023637 2.9999999999999964 19.973373299318016
    vertex 0.0 3.0 3.0
    vertex 13.076371933368078 2.9999999999999964 20.452592417602816
  endloop
endfacet
facet normal 0.0 1.0 0.0
  outer loop
    vertex 13.076371933368078 2.9999999999999964 20.452592417602816
    vertex 0.0 3.0 3.0
    vertex 0.0 3.0 77.99999999999999
  endloop
endfacet
facet normal 0.0 1.0 0.0
  outer loop
    vertex 75.0 3.0 3.0
    vertex 14.512254839264223 2.9999999999999964 19.060385435665417
    vertex 15.030883542005819 2.9999999999999964 19.0002384625078
  endloop
endfacet
facet normal 0.0 1.0 0.0
  outer loop
    vertex 13.076371933368078 2.9999999999999964 20.452592417602816
    vertex 0.0 3.0 77.99999999999999
    vertex 13.000238462507799 2.9999999999999964 20.96911645799418
  endloop
endfacet
facet normal 0.0 1.0 0.0
  outer loop
    vertex 13.000238462507799 2.9999999999999964 20.96911645799418
    vertex 0.0 3.0 77.99999999999999
    vertex 13.060385435665419 2.9999999999999964 21.487745160735777
  endloop
endfacet
facet normal 0.0 1.0 0.0
  outer loop
    vertex 13.060385435665419 2.9999999999999964 21.487745160735777
    vertex 0.0 3.0 77.99999999999999
    vertex 13.252713936017816 2.9999999999999964 21.973134836810218
  endloop
endfacet
facet normal 0.0 1.0 0.0
  outer loop
    vertex 13.252713936017816 2.9999999999999964 21.973134836810218
    vertex 0.0 3.0 77.99999999999999
    vertex 13.564117094103855 2.9999999999999964 22.392206981937395
  endloop
endfacet
facet normal 0.0 1.0 0.0
  outer loop
    vertex 13.564117094103855 2.9999999999999964 22.392206981937395
    vertex 0.0 3.0 77.99999999999999
    vertex 13.973373299318018 2.9999999999999964 22.716402521976363
  endloop
endfacet
facet normal 0.0 1.0 0.0
  outer loop
    vertex 13.973373299318018 2.9999999999999964 22.716402521976363
    vertex 0.0 3.0 77.99999999999999
    vertex 14.452592417602819 2.9999999999999964 22.92362806663192
  endloop
endfacet
facet normal 0.0 1.0 0.0
  outer loop
    vertex 14.452592417602819 2.9999999999999964 22.92362806663192
    vertex 0.0 3.0 77.99999999999999
    vertex 14.969116457994183 2.9999999999999964 22.999761537492198
  endloop
endfacet
facet normal 0.0 1.0 0.0
  outer loop
    vertex 14.969116457994183 2.9999999999999964 22.999761537492198
    vertex 0.0 3.0 77.99999999999999
    vertex 65.27343005294249 3.0 62.5128749261583
  endloop
endfacet
facet normal 0.0 1.0 0.0
  outer loop
    vertex 65.27343005294249 3.0 62.5128749261583
    vertex 0.0 3.0 77.99999999999999
    vertex 64.76684442256521 3.0 62.63922518845608
  endloop
endfacet
facet normal 0.0 1.0 0.0
  outer loop
    vertex 64.76684442256521 3.0 62.63922518845608
    vertex 0.0 3.0 77.99999999999999
    vertex 64.31022213319325 3.0 62.89238417908481
  endloop
endfacet
facet normal 0.0 1.0 0.0
  outer loop
    vertex 64.31022213319325 3.0 62.89238417908481
    vertex 0.0 3.0 77.99999999999999
    vertex 63.93468123924327 3.0 63.25509953119816
  endloop
endfacet
facet normal 0.0 1.0 0.0
  outer loop
    vertex 63.93468123924327 3.0 63.25509953119816
    vertex 0.0 3.0 77.99999999999999
    vertex 63.6658142320273 3.0 63.70265279296505
  endloop
endfacet
facet normal 0.0 1.0 0.0
  outer loop
    vertex 63.6658142320273 3.0 63.70265279296505
    vertex 0.0 3.0 77.99999999999999
    vertex 63.52194395376337 3.0 64.2045439492128
  endloop
endfacet
facet normal 0.0 1.0 0.0
  outer loop
    vertex 63.52194395376337 3.0 64.2045439492128
    vertex 0.0 3.0 77.99999999999999
    vertex 63.5128749261583 3.0 64.72656994705751
  endloop
endfacet
facet normal 0.0 1.0 0.0
  outer loop
    vertex 63.5128749261583 3.0 64.72656994705751
    vertex 0.0 3.0 77.99999999999999
    vertex 63.639225188456074 3.0 65.23315557743477
  endloop
endfacet
facet normal 0.0 1.0 0.0
  outer loop
    vertex 63.639225188456074 3.0 65.23315557743477
    vertex 0.0 3.0 77.99999999999999
    vertex 63.892384179084814 3.0 65.68977786680674
  endloop
endfacet
facet normal 0.0 1.0 0.0
  outer loop
    vertex 63.892384179084814 3.0 65.68977786680674
    vertex 0.0 3.0 77.99999999999999
    vertex 64.25509953119816 3.0 66.06531876075672
  endloop
endfacet
facet normal 0.0 1.0 0.0
  outer loop
    vertex 64.25509953119816 3.0 66.06531876075672
    vertex 0.0 3.0 77.99999999999999
    vertex 64.70265279296504 3.0 66.33418576797268
  endloop
endfacet
facet normal 0.0 1.0 0.0
  outer loop
    vertex 64.70265279296504 3.0 66.33418576797268
    vertex 0.0 3.0 77.99999999999999
    vertex 65.2045439492128 3.0 66.47805604623662
  endloop
endfacet
facet normal 0.0 1.0 0.0
  outer loop
    vertex 65.2045439492128 3.0 66.47805604623662
    vertex 0.0 3.0 77.99999999999999
    vertex 65.72656994705751 3.0 66.4871250738417
  endloop
endfacet
facet normal 0.0 1.0 0.0
  outer loop
    vertex 75.0 3.0 3.0
    vertex 67.3607748115439 3.0 63.766844422565214
    vertex 75.0 3.0 77.99999999999999
  endloop
endfacet
facet normal 0.0 1.0 0.0
  outer loop
    vertex 67.3607748115439 3.0 63.766844422565214
    vertex 75.0 3.0 3.0
    vertex 67.10761582091519 3.0 63.31022213319325
  endloop
endfacet
facet normal 0.0 1.0 0.0
  outer loop
    vertex 67.10761582091519 3.0 63.31022213319325
    vertex 75.0 3.0 3.0
    vertex 66.74490046880183 3.0 62.93468123924327
  endloop
endfacet
facet normal 0.0 1.0 0.0
  outer loop
    vertex 66.74490046880183 3.0 62.93468123924327
    vertex 75.0 3.0 3.0
    vertex 16.435882905896147 2.9999999999999964 19.6077930180626
  endloop
endfacet
facet normal 0.0 1.0 0.0
  outer loop
    vertex 16.435882905896147 2.9999999999999964 19.6077930180626
    vertex 75.0 3.0 3.0
    vertex 16.026626700681984 2.9999999999999964 19.283597478023633
  endloop
endfacet
facet normal 0.0 1.0 0.0
  outer loop
    vertex 16.026626700681984 2.9999999999999964 19.283597478023633
    vertex 75.0 3.0 3.0
    vertex 15.547407582397184 2.9999999999999964 19.076371933368076
  endloop
endfacet
facet normal 0.0 1.0 0.0
  outer loop
    vertex 15.547407582397184 2.9999999999999964 19.076371933368076
    vertex 75.0 3.0 3.0
    vertex 15.030883542005819 2.9999999999999964 19.0002384625078
  endloop
endfacet
facet normal 0.0 1.0 0.0
  outer loop
    vertex 66.74490046880183 3.0 62.93468123924327
    vertex 16.435882905896147 2.9999999999999964 19.6077930180626
    vertex 16.747286063982184 2.9999999999999964 20.02686516318978
  endloop
endfacet
facet normal 0.0 1.0 0.0
  outer loop
    vertex 66.74490046880183 3.0 62.93468123924327
    vertex 16.747286063982184 2.9999999999999964 20.02686516318978
    vertex 16.939614564334583 2.9999999999999964 20.51225483926422
  endloop
endfacet
facet normal 0.0 1.0 0.0
  outer loop
    vertex 66.74490046880183 3.0 62.93468123924327
    vertex 16.939614564334583 2.9999999999999964 20.51225483926422
    vertex 16.9997615374922 2.9999999999999964 21.030883542005817
  endloop
endfacet
facet normal 0.0 1.0 0.0
  outer loop
    vertex 66.74490046880183 3.0 62.93468123924327
    vertex 16.9997615374922 2.9999999999999964 21.030883542005817
    vertex 16.923628066631924 2.9999999999999964 21.54740758239718
  endloop
endfacet
facet normal 0.0 1.0 0.0
  outer loop
    vertex 66.74490046880183 3.0 62.93468123924327
    vertex 16.923628066631924 2.9999999999999964 21.54740758239718
    vertex 16.716402521976367 2.9999999999999964 22.02662670068198
  endloop
endfacet
facet normal 0.0 1.0 0.0
  outer loop
    vertex 66.74490046880183 3.0 62.93468123924327
    vertex 16.716402521976367 2.9999999999999964 22.02662670068198
    vertex 16.3922069819374 2.9999999999999964 22.435882905896143
  endloop
endfacet
facet normal 0.0 1.0 0.0
  outer loop
    vertex 66.74490046880183 3.0 62.93468123924327
    vertex 16.3922069819374 2.9999999999999964 22.435882905896143
    vertex 15.97313483681022 2.9999999999999964 22.74728606398218
  endloop
endfacet
facet normal 0.0 1.0 0.0
  outer loop
    vertex 66.74490046880183 3.0 62.93468123924327
    vertex 15.97313483681022 2.9999999999999964 22.74728606398218
    vertex 15.487745160735779 2.9999999999999964 22.93961456433458
  endloop
endfacet
facet normal 0.0 1.0 0.0
  outer loop
    vertex 66.74490046880183 3.0 62.93468123924327
    vertex 15.487745160735779 2.9999999999999964 22.93961456433458
    vertex 14.969116457994183 2.9999999999999964 22.999761537492198
  endloop
endfacet
facet normal 0.0 1.0 0.0
  outer loop
    vertex 66.74490046880183 3.0 62.93468123924327
    vertex 14.969116457994183 2.9999999999999964 22.999761537492198
    vertex 66.29734720703495 3.0 62.6658142320273
  endloop
endfacet
facet normal 0.0 1.0 0.0
  outer loop
    vertex 66.29734720703495 3.0 62.6658142320273
    vertex 14.969116457994183 2.9999999999999964 22.999761537492198
    vertex 65.79545605078718 3.0 62.52194395376337
  endloop
endfacet
facet normal 0.0 1.0 0.0
  outer loop
    vertex 65.79545605078718 3.0 62.52194395376337
    vertex 14.969116457994183 2.9999999999999964 22.999761537492198
    vertex 65.27343005294249 3.0 62.5128749261583
  endloop
endfacet
facet normal 0.0 1.0 0.0
  outer loop
    vertex 75.0 3.0 77.99999999999999
    vertex 67.3607748115439 3.0 63.766844422565214
    vertex 67.48712507384168 3.0 64.27343005294247
  endloop
endfacet
facet normal 0.0 1.0 0.0
  outer loop
    vertex 75.0 3.0 77.99999999999999
    vertex 67.48712507384168 3.0 64.27343005294247
    vertex 67.47805604623662 3.0 64.79545605078718
  endloop
endfacet
facet normal 0.0 1.0 0.0
  outer loop
    vertex 75.0 3.0 77.99999999999999
    vertex 67.47805604623662 3.0 64.79545605078718
    vertex 67.33418576797268 3.0 65.29734720703495
  endloop
endfacet
facet normal 0.0 1.0 0.0
  outer loop
    vertex 75.0 3.0 77.99999999999999
    vertex 67.33418576797268 3.0 65.29734720703495
    vertex 67.06531876075672 3.0 65.74490046880183
  endloop
endfacet
facet normal 0.0 1.0 0.0
  outer loop
    vertex 75.0 3.0 77.99999999999999
    vertex 67.06531876075672 3.0 65.74490046880183
    vertex 66.68977786680674 3.0 66.10761582091519
  endloop
endfacet
facet normal 0.0 1.0 0.0
  outer loop
    vertex 75.0 3.0 77.99999999999999
    vertex 66.68977786680674 3.0 66.10761582091519
    vertex 66.23315557743477 3.0 66.3607748115439
  endloop
endfacet
facet normal 0.0 1.0 0.0
  outer loop
    vertex 75.0 3.0 77.99999999999999
    vertex 66.23315557743477 3.0 66.3607748115439
    vertex 65.72656994705751 3.0 66.4871250738417
  endloop
endfacet
facet normal 0.0 1.0 0.0
  outer loop
    vertex 75.0 3.0 77.99999999999999
    vertex 65.72656994705751 3.0 66.4871250738417
    vertex 0.0 3.0 77.99999999999999
  endloop
endfacet
facet normal 0.917293524656557 0.3982117396852464 3.4751895005560635e-32
  outer loop
    vertex 4.077153973058695 7.449851695743738 0.0
    vertex 4.285062221372446 6.9709283720576165 3.0
    vertex 4.285062221372446 6.9709283720576165 0.0
  endloop
endfacet
facet normal 0.917293524656557 0.3982117396852464 3.4751895005560635e-32
  outer loop
    vertex 4.285062221372446 6.9709283720576165 3.0
    vertex 4.077153973058695 7.449851695743738 0.0
    vertex 4.077153973058695 7.449851695743738 3.0
  endloop
endfacet
facet normal 0.7829727235395497 0.622056037823812 4.4753355605146345e-34
  outer loop
    vertex 4.285062221372446 6.9709283720576165 0.0
    vertex 4.609840645230984 6.562134579194494 3.0
    vertex 4.609840645230984 6.562134579194494 0.0
  endloop
endfacet
facet normal 0.7829727235395497 0.622056037823812 4.4753355605146345e-34
  outer loop
    vertex 4.609840645230984 6.562134579194494 3.0
    vertex 4.285062221372446 6.9709283720576165 0.0
    vertex 4.285062221372446 6.9709283720576165 3.0
  endloop
endfacet
facet normal 0.5952936252369232 0.8035082449808975 -3.3887326565719207e-32
  outer loop
    vertex 4.609840645230984 6.562134579194494 3.0
    vertex 5.029356131770076 6.25132893857431 0.0
    vertex 4.609840645230984 6.562134579194494 0.0
  endloop
endfacet
facet normal 0.5952936252369232 0.8035082449808975 -3.3887326565719207e-32
  outer loop
    vertex 5.029356131770076 6.25132893857431 0.0
    vertex 4.609840645230984 6.562134579194494 3.0
    vertex 5.029356131770076 6.25132893857431 3.0
  endloop
endfacet
facet normal 0.36704625014363385 0.9302026931026899 -6.591282138349052e-32
  outer loop
    vertex 5.029356131770076 6.25132893857431 3.0
    vertex 5.515019393864201 6.059692340974721 0.0
    vertex 5.029356131770076 6.25132893857431 0.0
  endloop
endfacet
facet normal 0.36704625014363385 0.9302026931026899 -6.591282138349052e-32
  outer loop
    vertex 5.515019393864201 6.059692340974721 0.0
    vertex 5.029356131770076 6.25132893857431 3.0
    vertex 5.515019393864201 6.059692340974721 3.0
  endloop
endfacet
facet normal 0.1137852796756596 0.9935053649221689 -9.344646635006502e-32
  outer loop
    vertex 5.515019393864201 6.059692340974721 3.0
    vertex 6.033733282798135 6.000284503827691 0.0
    vertex 5.515019393864201 6.059692340974721 0.0
  endloop
endfacet
facet normal 0.1137852796756596 0.9935053649221689 -9.344646635006502e-32
  outer loop
    vertex 6.033733282798135 6.000284503827691 0.0
    vertex 5.515019393864201 6.059692340974721 3.0
    vertex 6.033733282798135 6.000284503827691 3.0
  endloop
endfacet
facet normal -0.14722996956313944 0.9891022879674464 -1.1461188906246928e-31
  outer loop
    vertex 6.033733282798135 6.000284503827691 3.0
    vertex 6.550148304256262 6.077153973058694 0.0
    vertex 6.033733282798135 6.000284503827691 0.0
  endloop
endfacet
facet normal -0.14722996956313944 0.9891022879674464 -1.1461188906246928e-31
  outer loop
    vertex 6.550148304256262 6.077153973058694 0.0
    vertex 6.033733282798135 6.000284503827691 3.0
    vertex 6.550148304256262 6.077153973058694 3.0
  endloop
endfacet
facet normal -0.3982117396852464 0.917293524656557 -1.2796670094036879e-31
  outer loop
    vertex 6.550148304256262 6.077153973058694 3.0
    vertex 7.0290716279423835 6.285062221372445 0.0
    vertex 6.550148304256262 6.077153973058694 0.0
  endloop
endfacet
facet normal -0.3982117396852464 0.917293524656557 -1.2796670094036879e-31
  outer loop
    vertex 7.0290716279423835 6.285062221372445 0.0
    vertex 6.550148304256262 6.077153973058694 3.0
    vertex 7.0290716279423835 6.285062221372445 3.0
  endloop
endfacet
facet normal -0.6220560378238134 0.7829727235395486 -1.3260079362415406e-31
  outer loop
    vertex 7.0290716279423835 6.285062221372445 3.0
    vertex 7.437865420805505 6.6098406452309835 0.0
    vertex 7.0290716279423835 6.285062221372445 0.0
  endloop
endfacet
facet normal -0.6220560378238134 0.7829727235395486 -1.3260079362415406e-31
  outer loop
    vertex 7.437865420805505 6.6098406452309835 0.0
    vertex 7.0290716279423835 6.285062221372445 3.0
    vertex 7.437865420805505 6.6098406452309835 3.0
  endloop
endfacet
facet normal -0.8035082449808961 0.595293625236925 -1.281983613556258e-31
  outer loop
    vertex 7.748671061425689 7.029356131770075 3.0
    vertex 7.437865420805505 6.6098406452309835 0.0
    vertex 7.437865420805505 6.6098406452309835 3.0
  endloop
endfacet
facet normal -0.8035082449808961 0.595293625236925 -1.281983613556258e-31
  outer loop
    vertex 7.437865420805505 6.6098406452309835 0.0
    vertex 7.748671061425689 7.029356131770075 3.0
    vertex 7.748671061425689 7.029356131770075 0.0
  endloop
endfacet
facet normal -0.9302026931026899 0.36704625014363385 -1.1505942261852074e-31
  outer loop
    vertex 7.940307659025278 7.5150193938642005 3.0
    vertex 7.748671061425689 7.029356131770075 0.0
    vertex 7.748671061425689 7.029356131770075 3.0
  endloop
endfacet
facet normal -0.9302026931026899 0.36704625014363385 -1.1505942261852074e-31
  outer loop
    vertex 7.748671061425689 7.029356131770075 0.0
    vertex 7.940307659025278 7.5150193938642005 3.0
    vertex 7.940307659025278 7.5150193938642005 0.0
  endloop
endfacet
facet normal -0.9935053649221689 0.11378527967565928 -9.407937437464947e-32
  outer loop
    vertex 7.999715496172308 8.033733282798135 3.0
    vertex 7.940307659025278 7.5150193938642005 0.0
    vertex 7.940307659025278 7.5150193938642005 3.0
  endloop
endfacet
facet normal -0.9935053649221689 0.11378527967565928 -9.407937437464947e-32
  outer loop
    vertex 7.940307659025278 7.5150193938642005 0.0
    vertex 7.999715496172308 8.033733282798135 3.0
    vertex 7.999715496172308 8.033733282798135 0.0
  endloop
endfacet
facet normal -0.9891022879674459 -0.14722996956314247 -6.668797224066331e-32
  outer loop
    vertex 7.922846026941304 8.550148304256261 3.0
    vertex 7.999715496172308 8.033733282798135 0.0
    vertex 7.999715496172308 8.033733282798135 3.0
  endloop
endfacet
facet normal -0.9891022879674459 -0.14722996956314247 -6.668797224066331e-32
  outer loop
    vertex 7.999715496172308 8.033733282798135 0.0
    vertex 7.922846026941304 8.550148304256261 3.0
    vertex 7.922846026941304 8.550148304256261 0.0
  endloop
endfacet
facet normal -0.9172935246565591 -0.398211739685242 -3.475189500556128e-32
  outer loop
    vertex 7.714937778627556 9.029071627942383 3.0
    vertex 7.922846026941304 8.550148304256261 0.0
    vertex 7.922846026941304 8.550148304256261 3.0
  endloop
endfacet
facet normal -0.9172935246565591 -0.398211739685242 -3.475189500556128e-32
  outer loop
    vertex 7.922846026941304 8.550148304256261 0.0
    vertex 7.714937778627556 9.029071627942383 3.0
    vertex 7.714937778627556 9.029071627942383 0.0
  endloop
endfacet
facet normal -0.782972723539547 -0.6220560378238154 -4.4753355605090435e-34
  outer loop
    vertex 7.390159354769015 9.437865420805505 3.0
    vertex 7.714937778627556 9.029071627942383 0.0
    vertex 7.714937778627556 9.029071627942383 3.0
  endloop
endfacet
facet normal -0.782972723539547 -0.6220560378238154 -4.4753355605090435e-34
  outer loop
    vertex 7.714937778627556 9.029071627942383 0.0
    vertex 7.390159354769015 9.437865420805505 3.0
    vertex 7.390159354769015 9.437865420805505 0.0
  endloop
endfacet
facet normal -0.5952936252369244 -0.8035082449808963 3.3887326565718993e-32
  outer loop
    vertex 7.390159354769015 9.437865420805505 3.0
    vertex 6.970643868229925 9.74867106142569 0.0
    vertex 7.390159354769015 9.437865420805505 0.0
  endloop
endfacet
facet normal -0.5952936252369244 -0.8035082449808963 3.3887326565718993e-32
  outer loop
    vertex 6.970643868229925 9.74867106142569 0.0
    vertex 7.390159354769015 9.437865420805505 3.0
    vertex 6.970643868229925 9.74867106142569 3.0
  endloop
endfacet
facet normal -0.36704625014363385 -0.9302026931026899 6.591282138349052e-32
  outer loop
    vertex 6.970643868229925 9.74867106142569 3.0
    vertex 6.4849806061357995 9.940307659025278 0.0
    vertex 6.970643868229925 9.74867106142569 0.0
  endloop
endfacet
facet normal -0.36704625014363385 -0.9302026931026899 6.591282138349052e-32
  outer loop
    vertex 6.4849806061357995 9.940307659025278 0.0
    vertex 6.970643868229925 9.74867106142569 3.0
    vertex 6.4849806061357995 9.940307659025278 3.0
  endloop
endfacet
facet normal -0.11378527967565945 -0.993505364922169 9.344646635006503e-32
  outer loop
    vertex 6.4849806061357995 9.940307659025278 3.0
    vertex 5.966266717201865 9.999715496172307 0.0
    vertex 6.4849806061357995 9.940307659025278 0.0
  endloop
endfacet
facet normal -0.11378527967565945 -0.993505364922169 9.344646635006503e-32
  outer loop
    vertex 5.966266717201865 9.999715496172307 0.0
    vertex 6.4849806061357995 9.940307659025278 3.0
    vertex 5.966266717201865 9.999715496172307 3.0
  endloop
endfacet
facet normal 0.14722996956314227 -0.9891022879674458 1.1461188906246948e-31
  outer loop
    vertex 5.966266717201865 9.999715496172307 3.0
    vertex 5.449851695743739 9.922846026941302 0.0
    vertex 5.966266717201865 9.999715496172307 0.0
  endloop
endfacet
facet normal 0.14722996956314227 -0.9891022879674458 1.1461188906246948e-31
  outer loop
    vertex 5.449851695743739 9.922846026941302 0.0
    vertex 5.966266717201865 9.999715496172307 3.0
    vertex 5.449851695743739 9.922846026941302 3.0
  endloop
endfacet
facet normal 0.39821173968524376 -0.9172935246565583 1.2796670094036868e-31
  outer loop
    vertex 5.449851695743739 9.922846026941302 3.0
    vertex 4.9709283720576165 9.714937778627554 0.0
    vertex 5.449851695743739 9.922846026941302 0.0
  endloop
endfacet
facet normal 0.39821173968524376 -0.9172935246565583 1.2796670094036868e-31
  outer loop
    vertex 4.9709283720576165 9.714937778627554 0.0
    vertex 5.449851695743739 9.922846026941302 3.0
    vertex 4.9709283720576165 9.714937778627554 3.0
  endloop
endfacet
facet normal 0.6220560378238127 -0.7829727235395492 1.3260079362415406e-31
  outer loop
    vertex 4.9709283720576165 9.714937778627554 3.0
    vertex 4.5621345791944945 9.390159354769015 0.0
    vertex 4.9709283720576165 9.714937778627554 0.0
  endloop
endfacet
facet normal 0.6220560378238127 -0.7829727235395492 1.3260079362415406e-31
  outer loop
    vertex 4.5621345791944945 9.390159354769015 0.0
    vertex 4.9709283720576165 9.714937778627554 3.0
    vertex 4.5621345791944945 9.390159354769015 3.0
  endloop
endfacet
facet normal 0.8035082449808975 -0.5952936252369232 1.2819836135562576e-31
  outer loop
    vertex 4.5621345791944945 9.390159354769015 0.0
    vertex 4.251328938574311 8.970643868229924 3.0
    vertex 4.251328938574311 8.970643868229924 0.0
  endloop
endfacet
facet normal 0.8035082449808975 -0.5952936252369232 1.2819836135562576e-31
  outer loop
    vertex 4.251328938574311 8.970643868229924 3.0
    vertex 4.5621345791944945 9.390159354769015 0.0
    vertex 4.5621345791944945 9.390159354769015 3.0
  endloop
endfacet
facet normal 0.9302026931026899 -0.36704625014363385 1.1505942261852074e-31
  outer loop
    vertex 4.251328938574311 8.970643868229924 0.0
    vertex 4.059692340974722 8.4849806061358 3.0
    vertex 4.059692340974722 8.4849806061358 0.0
  endloop
endfacet
facet normal 0.9302026931026899 -0.36704625014363385 1.1505942261852074e-31
  outer loop
    vertex 4.059692340974722 8.4849806061358 3.0
    vertex 4.251328938574311 8.970643868229924 0.0
    vertex 4.251328938574311 8.970643868229924 3.0
  endloop
endfacet
facet normal 0.9935053649221689 -0.1137852796756596 9.407937437464951e-32
  outer loop
    vertex 4.059692340974722 8.4849806061358 0.0
    vertex 4.000284503827692 7.966266717201865 3.0
    vertex 4.000284503827692 7.966266717201865 0.0
  endloop
endfacet
facet normal 0.9935053649221689 -0.1137852796756596 9.407937437464951e-32
  outer loop
    vertex 4.000284503827692 7.966266717201865 3.0
    vertex 4.059692340974722 8.4849806061358 0.0
    vertex 4.059692340974722 8.4849806061358 3.0
  endloop
endfacet
facet normal 0.9891022879674464 0.14722996956313944 6.668797224066365e-32
  outer loop
    vertex 4.000284503827692 7.966266717201865 0.0
    vertex 4.077153973058695 7.449851695743738 3.0
    vertex 4.077153973058695 7.449851695743738 0.0
  endloop
endfacet
facet normal 0.9891022879674464 0.14722996956313944 6.668797224066365e-32
  outer loop
    vertex 4.077153973058695 7.449851695743738 3.0
    vertex 4.000284503827692 7.966266717201865 0.0
    vertex 4.000284503827692 7.966266717201865 3.0
  endloop
endfacet
facet normal -0.0 -0.0 1.0
  outer loop
    vertex 0.0 3.0 3.0
    vertex 4.285062221372446 6.9709283720576165 3.0
    vertex 0.0 14.0 3.0
  endloop
endfacet
facet normal -0.0 -0.0 1.0
  outer loop
    vertex 4.285062221372446 6.9709283720576165 3.0
    vertex 0.0 3.0 3.0
    vertex 4.609840645230984 6.562134579194494 3.0
  endloop
endfacet
facet normal -0.0 -0.0 1.0
  outer loop
    vertex 4.609840645230984 6.562134579194494 3.0
    vertex 0.0 3.0 3.0
    vertex 5.029356131770076 6.25132893857431 3.0
  endloop
endfacet
facet normal -0.0 -0.0 1.0
  outer loop
    vertex 5.029356131770076 6.25132893857431 3.0
    vertex 0.0 3.0 3.0
    vertex 5.515019393864201 6.059692340974721 3.0
  endloop
endfacet
facet normal -0.0 -0.0 1.0
  outer loop
    vertex 5.515019393864201 6.059692340974721 3.0
    vertex 0.0 3.0 3.0
    vertex 6.033733282798135 6.000284503827691 3.0
  endloop
endfacet
facet normal -0.0 -0.0 1.0
  outer loop
    vertex 6.033733282798135 6.000284503827691 3.0
    vertex 0.0 3.0 3.0
    vertex 75.0 3.0 3.0
  endloop
endfacet
facet normal -0.0 -0.0 1.0
  outer loop
    vertex 0.0 14.0 3.0
    vertex 4.285062221372446 6.9709283720576165 3.0
    vertex 4.077153973058695 7.449851695743738 3.0
  endloop
endfacet
facet normal -0.0 -0.0 1.0
  outer loop
    vertex 0.0 14.0 3.0
    vertex 4.077153973058695 7.449851695743738 3.0
    vertex 4.000284503827692 7.966266717201865 3.0
  endloop
endfacet
facet normal -0.0 -0.0 1.0
  outer loop
    vertex 6.033733282798135 6.000284503827691 3.0
    vertex 75.0 3.0 3.0
    vertex 6.550148304256262 6.077153973058694 3.0
  endloop
endfacet
facet normal -0.0 -0.0 1.0
  outer loop
    vertex 6.550148304256262 6.077153973058694 3.0
    vertex 75.0 3.0 3.0
    vertex 7.0290716279423835 6.285062221372445 3.0
  endloop
endfacet
facet normal -0.0 -0.0 1.0
  outer loop
    vertex 7.0290716279423835 6.285062221372445 3.0
    vertex 75.0 3.0 3.0
    vertex 7.437865420805505 6.6098406452309835 3.0
  endloop
endfacet
facet normal -0.0 -0.0 1.0
  outer loop
    vertex 7.437865420805505 6.6098406452309835 3.0
    vertex 75.0 3.0 3.0
    vertex 7.748671061425689 7.029356131770075 3.0
  endloop
endfacet
facet normal -0.0 -0.0 1.0
  outer loop
    vertex 7.748671061425689 7.029356131770075 3.0
    vertex 75.0 3.0 3.0
    vertex 7.940307659025278 7.5150193938642005 3.0
  endloop
endfacet
facet normal -0.0 -0.0 1.0
  outer loop
    vertex 7.940307659025278 7.5150193938642005 3.0
    vertex 75.0 3.0 3.0
    vertex 7.999715496172308 8.033733282798135 3.0
  endloop
endfacet
facet normal -0.0 -0.0 1.0
  outer loop
    vertex 160.0 0.0 3.0
    vertex 75.0 3.0 3.0
    vertex 75.0 0.0 3.0
  endloop
endfacet
facet normal -0.0 -0.0 1.0
  outer loop
    vertex 75.0 3.0 3.0
    vertex 160.0 0.0 3.0
    vertex 152.74604742535192 6.441923320072651 3.0
  endloop
endfacet
facet normal -0.0 -0.0 1.0
  outer loop
    vertex 75.0 3.0 3.0
    vertex 152.74604742535192 6.441923320072651 3.0
    vertex 152.38551490471045 6.819560303493715 3.0
  endloop
endfacet
facet normal -0.0 -0.0 1.0
  outer loop
    vertex 75.0 3.0 3.0
    vertex 152.38551490471045 6.819560303493715 3.0
    vertex 152.13500687525018 7.277642301462845 3.0
  endloop
endfacet
facet normal -0.0 -0.0 1.0
  outer loop
    vertex 75.0 3.0 3.0
    vertex 152.13500687525018 7.277642301462845 3.0
    vertex 152.01159504519475 7.784951782834744 3.0
  endloop
endfacet
facet normal -0.0 -0.0 1.0
  outer loop
    vertex 152.74604742535192 6.441923320072651 3.0
    vertex 160.0 0.0 3.0
    vertex 153.19203474170106 6.170466687545182 3.0
  endloop
endfacet
facet normal -0.0 -0.0 1.0
  outer loop
    vertex 153.19203474170106 6.170466687545182 3.0
    vertex 160.0 0.0 3.0
    vertex 153.69308355517754 6.023689726814755 3.0
  endloop
endfacet
facet normal -0.0 -0.0 1.0
  outer loop
    vertex 153.69308355517754 6.023689726814755 3.0
    vertex 160.0 0.0 3.0
    vertex 154.21504821716528 6.011595045194755 3.0
  endloop
endfacet
facet normal -0.0 -0.0 1.0
  outer loop
    vertex 154.21504821716528 6.011595045194755 3.0
    vertex 160.0 0.0 3.0
    vertex 154.72235769853717 6.135006875250177 3.0
  endloop
endfacet
facet normal -0.0 -0.0 1.0
  outer loop
    vertex 154.72235769853717 6.135006875250177 3.0
    vertex 160.0 0.0 3.0
    vertex 155.1804396965063 6.385514904710436 3.0
  endloop
endfacet
facet normal -0.0 -0.0 1.0
  outer loop
    vertex 155.1804396965063 6.385514904710436 3.0
    vertex 160.0 0.0 3.0
    vertex 155.55807667992735 6.746047425351909 3.0
  endloop
endfacet
facet normal -0.0 -0.0 1.0
  outer loop
    vertex 155.55807667992735 6.746047425351909 3.0
    vertex 160.0 0.0 3.0
    vertex 155.82953331245483 7.192034741701041 3.0
  endloop
endfacet
facet normal -0.0 -0.0 1.0
  outer loop
    vertex 155.82953331245483 7.192034741701041 3.0
    vertex 160.0 0.0 3.0
    vertex 155.97631027318525 7.693083555177524 3.0
  endloop
endfacet
facet normal -0.0 -0.0 1.0
  outer loop
    vertex 155.97631027318525 7.693083555177524 3.0
    vertex 160.0 0.0 3.0
    vertex 155.98840495480525 8.215048217165254 3.0
  endloop
endfacet
facet normal -0.0 -0.0 1.0
  outer loop
    vertex 0.0 14.0 3.0
    vertex 5.966266717201865 9.999715496172307 3.0
    vertex 160.0 14.0 3.0
  endloop
endfacet
facet normal -0.0 -0.0 1.0
  outer loop
    vertex 5.966266717201865 9.999715496172307 3.0
    vertex 0.0 14.0 3.0
    vertex 5.449851695743739 9.922846026941302 3.0
  endloop
endfacet
facet normal -0.0 -0.0 1.0
  outer loop
    vertex 5.449851695743739 9.922846026941302 3.0
    vertex 0.0 14.0 3.0
    vertex 4.9709283720576165 9.714937778627554 3.0
  endloop
endfacet
facet normal -0.0 -0.0 1.0
  outer loop
    vertex 4.9709283720576165 9.714937778627554 3.0
    vertex 0.0 14.0 3.0
    vertex 4.5621345791944945 9.390159354769015 3.0
  endloop
endfacet
facet normal -0.0 -0.0 1.0
  outer loop
    vertex 4.5621345791944945 9.390159354769015 3.0
    vertex 0.0 14.0 3.0
    vertex 4.251328938574311 8.970643868229924 3.0
  endloop
endfacet
facet normal -0.0 -0.0 1.0
  outer loop
    vertex 4.251328938574311 8.970643868229924 3.0
    vertex 0.0 14.0 3.0
    vertex 4.059692340974722 8.4849806061358 3.0
  endloop
endfacet
facet normal -0.0 -0.0 1.0
  outer loop
    vertex 4.059692340974722 8.4849806061358 3.0
    vertex 0.0 14.0 3.0
    vertex 4.000284503827692 7.966266717201865 3.0
  endloop
endfacet
facet normal -0.0 -0.0 1.0
  outer loop
    vertex 160.0 14.0 3.0
    vertex 5.966266717201865 9.999715496172307 3.0
    vertex 6.4849806061357995 9.940307659025278 3.0
  endloop
endfacet
facet normal -0.0 -0.0 1.0
  outer loop
    vertex 160.0 14.0 3.0
    vertex 6.4849806061357995 9.940307659025278 3.0
    vertex 6.970643868229925 9.74867106142569 3.0
  endloop
endfacet
facet normal -0.0 -0.0 1.0
  outer loop
    vertex 160.0 14.0 3.0
    vertex 6.970643868229925 9.74867106142569 3.0
    vertex 7.390159354769015 9.437865420805505 3.0
  endloop
endfacet
facet normal -0.0 -0.0 1.0
  outer loop
    vertex 160.0 14.0 3.0
    vertex 7.390159354769015 9.437865420805505 3.0
    vertex 7.714937778627556 9.029071627942383 3.0
  endloop
endfacet
facet normal -0.0 -0.0 1.0
  outer loop
    vertex 160.0 14.0 3.0
    vertex 7.714937778627556 9.029071627942383 3.0
    vertex 7.922846026941304 8.550148304256261 3.0
  endloop
endfacet
facet normal -0.0 -0.0 1.0
  outer loop
    vertex 160.0 14.0 3.0
    vertex 7.922846026941304 8.550148304256261 3.0
    vertex 7.999715496172308 8.033733282798135 3.0
  endloop
endfacet
facet normal -0.0 -0.0 1.0
  outer loop
    vertex 160.0 14.0 3.0
    vertex 7.999715496172308 8.033733282798135 3.0
    vertex 75.0 3.0 3.0
  endloop
endfacet
facet normal -0.0 -0.0 1.0
  outer loop
    vertex 160.0 14.0 3.0
    vertex 75.0 3.0 3.0
    vertex 152.81956030349372 9.614485095289563 3.0
  endloop
endfacet
facet normal -0.0 -0.0 1.0
  outer loop
    vertex 152.81956030349372 9.614485095289563 3.0
    vertex 75.0 3.0 3.0
    vertex 152.44192332007265 9.253952574648089 3.0
  endloop
endfacet
facet normal -0.0 -0.0 1.0
  outer loop
    vertex 152.44192332007265 9.253952574648089 3.0
    vertex 75.0 3.0 3.0
    vertex 152.1704666875452 8.807965258298958 3.0
  endloop
endfacet
facet normal -0.0 -0.0 1.0
  outer loop
    vertex 152.1704666875452 8.807965258298958 3.0
    vertex 75.0 3.0 3.0
    vertex 152.02368972681478 8.306916444822475 3.0
  endloop
endfacet
facet normal -0.0 -0.0 1.0
  outer loop
    vertex 152.02368972681478 8.306916444822475 3.0
    vertex 75.0 3.0 3.0
    vertex 152.01159504519475 7.784951782834744 3.0
  endloop
endfacet
facet normal -0.0 -0.0 1.0
  outer loop
    vertex 160.0 14.0 3.0
    vertex 152.81956030349372 9.614485095289563 3.0
    vertex 153.27764230146286 9.864993124749821 3.0
  endloop
endfacet
facet normal -0.0 -0.0 1.0
  outer loop
    vertex 160.0 14.0 3.0
    vertex 153.27764230146286 9.864993124749821 3.0
    vertex 153.78495178283475 9.988404954805244 3.0
  endloop
endfacet
facet normal -0.0 -0.0 1.0
  outer loop
    vertex 160.0 14.0 3.0
    vertex 153.78495178283475 9.988404954805244 3.0
    vertex 154.3069164448225 9.976310273185243 3.0
  endloop
endfacet
facet normal -0.0 -0.0 1.0
  outer loop
    vertex 160.0 14.0 3.0
    vertex 154.3069164448225 9.976310273185243 3.0
    vertex 154.80796525829896 9.829533312454817 3.0
  endloop
endfacet
facet normal -0.0 -0.0 1.0
  outer loop
    vertex 160.0 14.0 3.0
    vertex 154.80796525829896 9.829533312454817 3.0
    vertex 155.2539525746481 9.558076679927348 3.0
  endloop
endfacet
facet normal -0.0 -0.0 1.0
  outer loop
    vertex 160.0 14.0 3.0
    vertex 155.2539525746481 9.558076679927348 3.0
    vertex 155.61448509528958 9.180439696506284 3.0
  endloop
endfacet
facet normal -0.0 -0.0 1.0
  outer loop
    vertex 160.0 14.0 3.0
    vertex 155.61448509528958 9.180439696506284 3.0
    vertex 155.86499312474984 8.722357698537154 3.0
  endloop
endfacet
facet normal -0.0 -0.0 1.0
  outer loop
    vertex 160.0 14.0 3.0
    vertex 155.86499312474984 8.722357698537154 3.0
    vertex 155.98840495480525 8.215048217165254 3.0
  endloop
endfacet
facet normal -0.0 -0.0 1.0
  outer loop
    vertex 160.0 14.0 3.0
    vertex 155.98840495480525 8.215048217165254 3.0
    vertex 160.0 0.0 3.0
  endloop
endfacet
facet normal 0.9997316498510868 -0.023165238743084147 -4.077672803730224e-33
  outer loop
    vertex 152.02368972681478 8.306916444822475 0.0
    vertex 152.01159504519475 7.784951782834744 3.0
    vertex 152.01159504519475 7.784951782834744 0.0
  endloop
endfacet
facet normal 0.9997316498510868 -0.023165238743084147 -4.077672803730224e-33
  outer loop
    vertex 152.01159504519475 7.784951782834744 3.0
    vertex 152.02368972681478 8.306916444822475 0.0
    vertex 152.02368972681478 8.306916444822475 3.0
  endloop
endfacet
facet normal 0.9716622249207932 0.23637368859916316 4.1607797450650887e-32
  outer loop
    vertex 152.01159504519475 7.784951782834744 0.0
    vertex 152.13500687525018 7.277642301462845 3.0
    vertex 152.13500687525018 7.277642301462845 0.0
  endloop
endfacet
facet normal 0.9716622249207932 0.23637368859916316 4.1607797450650887e-32
  outer loop
    vertex 152.13500687525018 7.277642301462845 3.0
    vertex 152.01159504519475 7.784951782834744 0.0
    vertex 152.01159504519475 7.784951782834744 3.0
  endloop
endfacet
facet normal 0.8773756251099093 0.4798041396893073 8.445776506889594e-32
  outer loop
    vertex 152.13500687525018 7.277642301462845 0.0
    vertex 152.38551490471045 6.819560303493715 3.0
    vertex 152.38551490471045 6.819560303493715 0.0
  endloop
endfacet
facet normal 0.8773756251099093 0.4798041396893073 8.445776506889594e-32
  outer loop
    vertex 152.38551490471045 6.819560303493715 3.0
    vertex 152.13500687525018 7.277642301462845 0.0
    vertex 152.13500687525018 7.277642301462845 3.0
  endloop
endfacet
facet normal 0.723297326379546 0.6905367315734916 1.21552075570758e-31
  outer loop
    vertex 152.38551490471045 6.819560303493715 0.0
    vertex 152.74604742535192 6.441923320072651 3.0
    vertex 152.74604742535192 6.441923320072651 0.0
  endloop
endfacet
facet normal 0.723297326379546 0.6905367315734916 1.21552075570758e-31
  outer loop
    vertex 152.74604742535192 6.441923320072651 3.0
    vertex 152.38551490471045 6.819560303493715 0.0
    vertex 152.38551490471045 6.819560303493715 3.0
  endloop
endfacet
facet normal 0.5199275101617556 0.8542103863668468 1.5036281299677531e-31
  outer loop
    vertex 152.74604742535192 6.441923320072651 3.0
    vertex 153.19203474170106 6.170466687545182 0.0
    vertex 152.74604742535192 6.441923320072651 0.0
  endloop
endfacet
facet normal 0.5199275101617556 0.8542103863668468 1.5036281299677531e-31
  outer loop
    vertex 153.19203474170106 6.170466687545182 0.0
    vertex 152.74604742535192 6.441923320072651 3.0
    vertex 153.19203474170106 6.170466687545182 3.0
  endloop
endfacet
facet normal 0.2811254933472973 0.9596710149786952 1.6892657320335707e-31
  outer loop
    vertex 153.19203474170106 6.170466687545182 3.0
    vertex 153.69308355517754 6.023689726814755 0.0
    vertex 153.19203474170106 6.170466687545182 0.0
  endloop
endfacet
facet normal 0.2811254933472973 0.9596710149786952 1.6892657320335707e-31
  outer loop
    vertex 153.69308355517754 6.023689726814755 0.0
    vertex 153.19203474170106 6.170466687545182 3.0
    vertex 153.69308355517754 6.023689726814755 3.0
  endloop
endfacet
facet normal 0.02316523874306042 0.9997316498510874 1.759782666104924e-31
  outer loop
    vertex 153.69308355517754 6.023689726814755 3.0
    vertex 154.21504821716528 6.011595045194755 0.0
    vertex 153.69308355517754 6.023689726814755 0.0
  endloop
endfacet
facet normal 0.02316523874306042 0.9997316498510874 1.759782666104924e-31
  outer loop
    vertex 154.21504821716528 6.011595045194755 0.0
    vertex 153.69308355517754 6.023689726814755 3.0
    vertex 154.21504821716528 6.011595045194755 3.0
  endloop
endfacet
facet normal -0.2363736885991486 0.9716622249207968 1.710373319659589e-31
  outer loop
    vertex 154.21504821716528 6.011595045194755 3.0
    vertex 154.72235769853717 6.135006875250177 0.0
    vertex 154.21504821716528 6.011595045194755 0.0
  endloop
endfacet
facet normal -0.2363736885991486 0.9716622249207968 1.710373319659589e-31
  outer loop
    vertex 154.72235769853717 6.135006875250177 0.0
    vertex 154.21504821716528 6.011595045194755 3.0
    vertex 154.72235769853717 6.135006875250177 3.0
  endloop
endfacet
facet normal -0.4798041396893206 0.8773756251099017 1.5444048580050035e-31
  outer loop
    vertex 154.72235769853717 6.135006875250177 3.0
    vertex 155.1804396965063 6.385514904710436 0.0
    vertex 154.72235769853717 6.135006875250177 0.0
  endloop
endfacet
facet normal -0.4798041396893206 0.8773756251099017 1.5444048580050035e-31
  outer loop
    vertex 155.1804396965063 6.385514904710436 0.0
    vertex 154.72235769853717 6.135006875250177 3.0
    vertex 155.1804396965063 6.385514904710436 3.0
  endloop
endfacet
facet normal -0.6905367315734945 0.7232973263795434 1.2731877575270817e-31
  outer loop
    vertex 155.1804396965063 6.385514904710436 3.0
    vertex 155.55807667992735 6.746047425351909 0.0
    vertex 155.1804396965063 6.385514904710436 0.0
  endloop
endfacet
facet normal -0.6905367315734945 0.7232973263795434 1.2731877575270817e-31
  outer loop
    vertex 155.55807667992735 6.746047425351909 0.0
    vertex 155.1804396965063 6.385514904710436 3.0
    vertex 155.55807667992735 6.746047425351909 3.0
  endloop
endfacet
facet normal -0.8542103863668417 0.5199275101617641 9.152050154159362e-32
  outer loop
    vertex 155.82953331245483 7.192034741701041 3.0
    vertex 155.55807667992735 6.746047425351909 0.0
    vertex 155.55807667992735 6.746047425351909 3.0
  endloop
endfacet
facet normal -0.8542103863668417 0.5199275101617641 9.152050154159362e-32
  outer loop
    vertex 155.55807667992735 6.746047425351909 0.0
    vertex 155.82953331245483 7.192034741701041 3.0
    vertex 155.82953331245483 7.192034741701041 0.0
  endloop
endfacet
facet normal -0.9596710149787007 0.281125493347278 4.948525639519607e-32
  outer loop
    vertex 155.97631027318525 7.693083555177524 3.0
    vertex 155.82953331245483 7.192034741701041 0.0
    vertex 155.82953331245483 7.192034741701041 3.0
  endloop
endfacet
facet normal -0.9596710149787007 0.281125493347278 4.948525639519607e-32
  outer loop
    vertex 155.82953331245483 7.192034741701041 0.0
    vertex 155.97631027318525 7.693083555177524 3.0
    vertex 155.97631027318525 7.693083555177524 0.0
  endloop
endfacet
facet normal -0.9997316498510868 0.02316523874308421 4.077672803730236e-33
  outer loop
    vertex 155.98840495480525 8.215048217165254 3.0
    vertex 155.97631027318525 7.693083555177524 0.0
    vertex 155.97631027318525 7.693083555177524 3.0
  endloop
endfacet
facet normal -0.9997316498510868 0.02316523874308421 4.077672803730236e-33
  outer loop
    vertex 155.97631027318525 7.693083555177524 0.0
    vertex 155.98840495480525 8.215048217165254 3.0
    vertex 155.98840495480525 8.215048217165254 0.0
  endloop
endfacet
facet normal -0.9716622249207932 -0.23637368859916247 -4.1607797450650767e-32
  outer loop
    vertex 155.86499312474984 8.722357698537154 3.0
    vertex 155.98840495480525 8.215048217165254 0.0
    vertex 155.98840495480525 8.215048217165254 3.0
  endloop
endfacet
facet normal -0.9716622249207932 -0.23637368859916247 -4.1607797450650767e-32
  outer loop
    vertex 155.98840495480525 8.215048217165254 0.0
    vertex 155.86499312474984 8.722357698537154 3.0
    vertex 155.86499312474984 8.722357698537154 0.0
  endloop
endfacet
facet normal -0.8773756251099093 -0.4798041396893073 -8.445776506889594e-32
  outer loop
    vertex 155.61448509528958 9.180439696506284 3.0
    vertex 155.86499312474984 8.722357698537154 0.0
    vertex 155.86499312474984 8.722357698537154 3.0
  endloop
endfacet
facet normal -0.8773756251099093 -0.4798041396893073 -8.445776506889594e-32
  outer loop
    vertex 155.86499312474984 8.722357698537154 0.0
    vertex 155.61448509528958 9.180439696506284 3.0
    vertex 155.61448509528958 9.180439696506284 0.0
  endloop
endfacet
facet normal -0.723297326379546 -0.6905367315734916 -1.21552075570758e-31
  outer loop
    vertex 155.2539525746481 9.558076679927348 3.0
    vertex 155.61448509528958 9.180439696506284 0.0
    vertex 155.61448509528958 9.180439696506284 3.0
  endloop
endfacet
facet normal -0.723297326379546 -0.6905367315734916 -1.21552075570758e-31
  outer loop
    vertex 155.61448509528958 9.180439696506284 0.0
    vertex 155.2539525746481 9.558076679927348 3.0
    vertex 155.2539525746481 9.558076679927348 0.0
  endloop
endfacet
facet normal -0.5199275101617556 -0.8542103863668468 -1.5036281299677531e-31
  outer loop
    vertex 155.2539525746481 9.558076679927348 3.0
    vertex 154.80796525829896 9.829533312454817 0.0
    vertex 155.2539525746481 9.558076679927348 0.0
  endloop
endfacet
facet normal -0.5199275101617556 -0.8542103863668468 -1.5036281299677531e-31
  outer loop
    vertex 154.80796525829896 9.829533312454817 0.0
    vertex 155.2539525746481 9.558076679927348 3.0
    vertex 154.80796525829896 9.829533312454817 3.0
  endloop
endfacet
facet normal -0.28112549334729603 -0.9596710149786954 -1.6892657320335712e-31
  outer loop
    vertex 154.80796525829896 9.829533312454817 3.0
    vertex 154.3069164448225 9.976310273185243 0.0
    vertex 154.80796525829896 9.829533312454817 0.0
  endloop
endfacet
facet normal -0.28112549334729603 -0.9596710149786954 -1.6892657320335712e-31
  outer loop
    vertex 154.3069164448225 9.976310273185243 0.0
    vertex 154.80796525829896 9.829533312454817 3.0
    vertex 154.3069164448225 9.976310273185243 3.0
  endloop
endfacet
facet normal -0.023165238743063116 -0.9997316498510872 -1.7597826661049235e-31
  outer loop
    vertex 154.3069164448225 9.976310273185243 3.0
    vertex 153.78495178283475 9.988404954805244 0.0
    vertex 154.3069164448225 9.976310273185243 0.0
  endloop
endfacet
facet normal -0.023165238743063116 -0.9997316498510872 -1.7597826661049235e-31
  outer loop
    vertex 153.78495178283475 9.988404954805244 0.0
    vertex 154.3069164448225 9.976310273185243 3.0
    vertex 153.78495178283475 9.988404954805244 3.0
  endloop
endfacet
facet normal 0.2363736885991498 -0.9716622249207963 -1.7103733196595881e-31
  outer loop
    vertex 153.78495178283475 9.988404954805244 3.0
    vertex 153.27764230146286 9.864993124749821 0.0
    vertex 153.78495178283475 9.988404954805244 0.0
  endloop
endfacet
facet normal 0.2363736885991498 -0.9716622249207963 -1.7103733196595881e-31
  outer loop
    vertex 153.27764230146286 9.864993124749821 0.0
    vertex 153.78495178283475 9.988404954805244 3.0
    vertex 153.27764230146286 9.864993124749821 3.0
  endloop
endfacet
facet normal 0.4798041396893206 -0.8773756251099017 -1.5444048580050035e-31
  outer loop
    vertex 153.27764230146286 9.864993124749821 3.0
    vertex 152.81956030349372 9.614485095289563 0.0
    vertex 153.27764230146286 9.864993124749821 0.0
  endloop
endfacet
facet normal 0.4798041396893206 -0.8773756251099017 -1.5444048580050035e-31
  outer loop
    vertex 152.81956030349372 9.614485095289563 0.0
    vertex 153.27764230146286 9.864993124749821 3.0
    vertex 152.81956030349372 9.614485095289563 3.0
  endloop
endfacet
facet normal 0.6905367315734945 -0.7232973263795434 -1.2731877575270817e-31
  outer loop
    vertex 152.81956030349372 9.614485095289563 3.0
    vertex 152.44192332007265 9.253952574648089 0.0
    vertex 152.81956030349372 9.614485095289563 0.0
  endloop
endfacet
facet normal 0.6905367315734945 -0.7232973263795434 -1.2731877575270817e-31
  outer loop
    vertex 152.44192332007265 9.253952574648089 0.0
    vertex 152.81956030349372 9.614485095289563 3.0
    vertex 152.44192332007265 9.253952574648089 3.0
  endloop
endfacet
facet normal 0.8542103863668409 -0.5199275101617653 -9.152050154159383e-32
  outer loop
    vertex 152.44192332007265 9.253952574648089 0.0
    vertex 152.1704666875452 8.807965258298958 3.0
    vertex 152.1704666875452 8.807965258298958 0.0
  endloop
endfacet
facet normal 0.8542103863668409 -0.5199275101617653 -9.152050154159383e-32
  outer loop
    vertex 152.1704666875452 8.807965258298958 3.0
    vertex 152.44192332007265 9.253952574648089 0.0
    vertex 152.44192332007265 9.253952574648089 3.0
  endloop
endfacet
facet normal 0.959671014978701 -0.2811254933472773 -4.948525639519595e-32
  outer loop
    vertex 152.1704666875452 8.807965258298958 0.0
    vertex 152.02368972681478 8.306916444822475 3.0
    vertex 152.02368972681478 8.306916444822475 0.0
  endloop
endfacet
facet normal 0.959671014978701 -0.2811254933472773 -4.948525639519595e-32
  outer loop
    vertex 152.02368972681478 8.306916444822475 3.0
    vertex 152.1704666875452 8.807965258298958 0.0
    vertex 152.1704666875452 8.807965258298958 3.0
  endloop
endfacet
facet normal 0.9933422057299609 1.81853239637098e-32 -0.1152009649071401
  outer loop
    vertex 13.000238462507799 2.9999999999999964 20.96911645799418
    vertex 13.060385435665419 -3.877453913503359e-15 21.487745160735777
    vertex 13.000238462507799 -3.877453913503359e-15 20.96911645799418
  endloop
endfacet
facet normal 0.9933422057299609 1.81853239637098e-32 -0.1152009649071401
  outer loop
    vertex 13.060385435665419 -3.877453913503359e-15 21.487745160735777
    vertex 13.000238462507799 2.9999999999999964 20.96911645799418
    vertex 13.060385435665419 2.9999999999999964 21.487745160735777
  endloop
endfacet
facet normal 0.9296786871253634 1.1624045360601207e-32 -0.36837146836428714
  outer loop
    vertex 13.060385435665419 2.9999999999999964 21.487745160735777
    vertex 13.252713936017816 -3.877453913503359e-15 21.973134836810218
    vertex 13.060385435665419 -3.877453913503359e-15 21.487745160735777
  endloop
endfacet
facet normal 0.9296786871253634 1.1624045360601207e-32 -0.36837146836428714
  outer loop
    vertex 13.252713936017816 -3.877453913503359e-15 21.973134836810218
    vertex 13.060385435665419 2.9999999999999964 21.487745160735777
    vertex 13.252713936017816 2.9999999999999964 21.973134836810218
  endloop
endfacet
facet normal 0.8026591023598417 4.270607275810715e-33 -0.5964380650150469
  outer loop
    vertex 13.252713936017816 2.9999999999999964 21.973134836810218
    vertex 13.564117094103855 -3.877453913503359e-15 22.392206981937395
    vertex 13.252713936017816 -3.877453913503359e-15 21.973134836810218
  endloop
endfacet
facet normal 0.8026591023598417 4.270607275810715e-33 -0.5964380650150469
  outer loop
    vertex 13.564117094103855 -3.877453913503359e-15 22.392206981937395
    vertex 13.252713936017816 2.9999999999999964 21.973134836810218
    vertex 13.564117094103855 2.9999999999999964 22.392206981937395
  endloop
endfacet
facet normal 0.6209396262253865 -3.3738656373137795e-33 -0.7838583931955297
  outer loop
    vertex 13.973373299318018 2.9999999999999964 22.716402521976363
    vertex 13.564117094103855 -3.877453913503359e-15 22.392206981937395
    vertex 13.564117094103855 2.9999999999999964 22.392206981937395
  endloop
endfacet
facet normal 0.6209396262253865 -3.3738656373137795e-33 -0.7838583931955297
  outer loop
    vertex 13.564117094103855 -3.877453913503359e-15 22.392206981937395
    vertex 13.973373299318018 2.9999999999999964 22.716402521976363
    vertex 13.973373299318018 -3.877453913503359e-15 22.716402521976363
  endloop
endfacet
facet normal 0.39690414071491337 -1.0788415182832228e-32 -0.9178600672669861
  outer loop
    vertex 14.452592417602819 2.9999999999999964 22.92362806663192
    vertex 13.973373299318018 -3.877453913503359e-15 22.716402521976363
    vertex 13.973373299318018 2.9999999999999964 22.716402521976363
  endloop
endfacet
facet normal 0.39690414071491337 -1.0788415182832228e-32 -0.9178600672669861
  outer loop
    vertex 13.973373299318018 -3.877453913503359e-15 22.716402521976363
    vertex 14.452592417602819 2.9999999999999964 22.92362806663192
    vertex 14.452592417602819 -3.877453913503359e-15 22.92362806663192
  endloop
endfacet
facet normal 0.14582029392983192 -1.7467752062339487e-32 -0.9893110945896734
  outer loop
    vertex 14.969116457994183 2.9999999999999964 22.999761537492198
    vertex 14.452592417602819 -3.877453913503359e-15 22.92362806663192
    vertex 14.452592417602819 2.9999999999999964 22.92362806663192
  endloop
endfacet
facet normal 0.14582029392983192 -1.7467752062339487e-32 -0.9893110945896734
  outer loop
    vertex 14.452592417602819 -3.877453913503359e-15 22.92362806663192
    vertex 14.969116457994183 2.9999999999999964 22.999761537492198
    vertex 14.969116457994183 -3.877453913503359e-15 22.999761537492198
  endloop
endfacet
facet normal -0.1152009649071401 -2.2956690505623528e-32 -0.9933422057299609
  outer loop
    vertex 15.487745160735779 2.9999999999999964 22.93961456433458
    vertex 14.969116457994183 -3.877453913503359e-15 22.999761537492198
    vertex 14.969116457994183 2.9999999999999964 22.999761537492198
  endloop
endfacet
facet normal -0.1152009649071401 -2.2956690505623528e-32 -0.9933422057299609
  outer loop
    vertex 14.969116457994183 -3.877453913503359e-15 22.999761537492198
    vertex 15.487745160735779 2.9999999999999964 22.93961456433458
    vertex 15.487745160735779 -3.877453913503359e-15 22.93961456433458
  endloop
endfacet
facet normal -0.3683714683642918 -2.6881168428674234e-32 -0.9296786871253615
  outer loop
    vertex 15.97313483681022 2.9999999999999964 22.74728606398218
    vertex 15.487745160735779 -3.877453913503359e-15 22.93961456433458
    vertex 15.487745160735779 2.9999999999999964 22.93961456433458
  endloop
endfacet
facet normal -0.3683714683642918 -2.6881168428674234e-32 -0.9296786871253615
  outer loop
    vertex 15.487745160735779 -3.877453913503359e-15 22.93961456433458
    vertex 15.97313483681022 2.9999999999999964 22.74728606398218
    vertex 15.97313483681022 -3.877453913503359e-15 22.74728606398218
  endloop
endfacet
facet normal -0.5964380650150435 -2.897373914654191e-32 -0.8026591023598443
  outer loop
    vertex 16.3922069819374 2.9999999999999964 22.435882905896143
    vertex 15.97313483681022 -3.877453913503359e-15 22.74728606398218
    vertex 15.97313483681022 2.9999999999999964 22.74728606398218
  endloop
endfacet
facet normal -0.5964380650150435 -2.897373914654191e-32 -0.8026591023598443
  outer loop
    vertex 15.97313483681022 -3.877453913503359e-15 22.74728606398218
    vertex 16.3922069819374 2.9999999999999964 22.435882905896143
    vertex 16.3922069819374 -3.877453913503359e-15 22.435882905896143
  endloop
endfacet
facet normal -0.7838583931955297 -2.909179742294066e-32 -0.6209396262253865
  outer loop
    vertex 16.3922069819374 2.9999999999999964 22.435882905896143
    vertex 16.716402521976367 -3.877453913503359e-15 22.02662670068198
    vertex 16.3922069819374 -3.877453913503359e-15 22.435882905896143
  endloop
endfacet
facet normal -0.7838583931955297 -2.909179742294066e-32 -0.6209396262253865
  outer loop
    vertex 16.716402521976367 -3.877453913503359e-15 22.02662670068198
    vertex 16.3922069819374 2.9999999999999964 22.435882905896143
    vertex 16.716402521976367 2.9999999999999964 22.02662670068198
  endloop
endfacet
facet normal -0.9178600672669861 -2.7227297781434326e-32 -0.39690414071491337
  outer loop
    vertex 16.716402521976367 2.9999999999999964 22.02662670068198
    vertex 16.923628066631924 -3.877453913503359e-15 21.54740758239718
    vertex 16.716402521976367 -3.877453913503359e-15 22.02662670068198
  endloop
endfacet
facet normal -0.9178600672669861 -2.7227297781434326e-32 -0.39690414071491337
  outer loop
    vertex 16.923628066631924 -3.877453913503359e-15 21.54740758239718
    vertex 16.716402521976367 2.9999999999999964 22.02662670068198
    vertex 16.923628066631924 2.9999999999999964 21.54740758239718
  endloop
endfacet
facet normal -0.9893110945896734 -2.350730279136035e-32 -0.14582029392983192
  outer loop
    vertex 16.923628066631924 2.9999999999999964 21.54740758239718
    vertex 16.9997615374922 -3.877453913503359e-15 21.030883542005817
    vertex 16.923628066631924 -3.877453913503359e-15 21.54740758239718
  endloop
endfacet
facet normal -0.9893110945896734 -2.350730279136035e-32 -0.14582029392983192
  outer loop
    vertex 16.9997615374922 -3.877453913503359e-15 21.030883542005817
    vertex 16.923628066631924 2.9999999999999964 21.54740758239718
    vertex 16.9997615374922 2.9999999999999964 21.030883542005817
  endloop
endfacet
facet normal -0.9933422057299609 -1.81853239637098e-32 0.1152009649071401
  outer loop
    vertex 16.9997615374922 2.9999999999999964 21.030883542005817
    vertex 16.939614564334583 -3.877453913503359e-15 20.51225483926422
    vertex 16.9997615374922 -3.877453913503359e-15 21.030883542005817
  endloop
endfacet
facet normal -0.9933422057299609 -1.81853239637098e-32 0.1152009649071401
  outer loop
    vertex 16.939614564334583 -3.877453913503359e-15 20.51225483926422
    vertex 16.9997615374922 2.9999999999999964 21.030883542005817
    vertex 16.939614564334583 2.9999999999999964 20.51225483926422
  endloop
endfacet
facet normal -0.9296786871253634 -1.1624045360601207e-32 0.36837146836428714
  outer loop
    vertex 16.939614564334583 2.9999999999999964 20.51225483926422
    vertex 16.747286063982184 -3.877453913503359e-15 20.02686516318978
    vertex 16.939614564334583 -3.877453913503359e-15 20.51225483926422
  endloop
endfacet
facet normal -0.9296786871253634 -1.1624045360601207e-32 0.36837146836428714
  outer loop
    vertex 16.747286063982184 -3.877453913503359e-15 20.02686516318978
    vertex 16.939614564334583 2.9999999999999964 20.51225483926422
    vertex 16.747286063982184 2.9999999999999964 20.02686516318978
  endloop
endfacet
facet normal -0.8026591023598417 -4.270607275810715e-33 0.5964380650150469
  outer loop
    vertex 16.747286063982184 2.9999999999999964 20.02686516318978
    vertex 16.435882905896147 -3.877453913503359e-15 19.6077930180626
    vertex 16.747286063982184 -3.877453913503359e-15 20.02686516318978
  endloop
endfacet
facet normal -0.8026591023598417 -4.270607275810715e-33 0.5964380650150469
  outer loop
    vertex 16.435882905896147 -3.877453913503359e-15 19.6077930180626
    vertex 16.747286063982184 2.9999999999999964 20.02686516318978
    vertex 16.435882905896147 2.9999999999999964 19.6077930180626
  endloop
endfacet
facet normal -0.6209396262253865 3.3738656373137795e-33 0.7838583931955297
  outer loop
    vertex 16.435882905896147 -3.877453913503359e-15 19.6077930180626
    vertex 16.026626700681984 2.9999999999999964 19.283597478023633
    vertex 16.026626700681984 -3.877453913503359e-15 19.283597478023633
  endloop
endfacet
facet normal -0.6209396262253865 3.3738656373137795e-33 0.7838583931955297
  outer loop
    vertex 16.026626700681984 2.9999999999999964 19.283597478023633
    vertex 16.435882905896147 -3.877453913503359e-15 19.6077930180626
    vertex 16.435882905896147 2.9999999999999964 19.6077930180626
  endloop
endfacet
facet normal -0.39690414071491537 1.0788415182832171e-32 0.9178600672669853
  outer loop
    vertex 16.026626700681984 -3.877453913503359e-15 19.283597478023633
    vertex 15.547407582397184 2.9999999999999964 19.076371933368076
    vertex 15.547407582397184 -3.877453913503359e-15 19.076371933368076
  endloop
endfacet
facet normal -0.39690414071491537 1.0788415182832171e-32 0.9178600672669853
  outer loop
    vertex 15.547407582397184 2.9999999999999964 19.076371933368076
    vertex 16.026626700681984 -3.877453913503359e-15 19.283597478023633
    vertex 16.026626700681984 2.9999999999999964 19.283597478023633
  endloop
endfacet
facet normal -0.14582029392983112 1.7467752062339503e-32 0.9893110945896734
  outer loop
    vertex 15.547407582397184 -3.877453913503359e-15 19.076371933368076
    vertex 15.030883542005819 2.9999999999999964 19.0002384625078
    vertex 15.030883542005819 -3.877453913503359e-15 19.0002384625078
  endloop
endfacet
facet normal -0.14582029392983112 1.7467752062339503e-32 0.9893110945896734
  outer loop
    vertex 15.030883542005819 2.9999999999999964 19.0002384625078
    vertex 15.547407582397184 -3.877453913503359e-15 19.076371933368076
    vertex 15.547407582397184 2.9999999999999964 19.076371933368076
  endloop
endfacet
facet normal 0.1152009649071401 2.2956690505623528e-32 0.9933422057299609
  outer loop
    vertex 15.030883542005819 -3.877453913503359e-15 19.0002384625078
    vertex 14.512254839264223 2.9999999999999964 19.060385435665417
    vertex 14.512254839264223 -3.877453913503359e-15 19.060385435665417
  endloop
endfacet
facet normal 0.1152009649071401 2.2956690505623528e-32 0.9933422057299609
  outer loop
    vertex 14.512254839264223 2.9999999999999964 19.060385435665417
    vertex 15.030883542005819 -3.877453913503359e-15 19.0002384625078
    vertex 15.030883542005819 2.9999999999999964 19.0002384625078
  endloop
endfacet
facet normal 0.36837146836428714 2.6881168428674174e-32 0.9296786871253634
  outer loop
    vertex 14.512254839264223 -3.877453913503359e-15 19.060385435665417
    vertex 14.026865163189782 2.9999999999999964 19.252713936017813
    vertex 14.026865163189782 -3.877453913503359e-15 19.252713936017813
  endloop
endfacet
facet normal 0.36837146836428714 2.6881168428674174e-32 0.9296786871253634
  outer loop
    vertex 14.026865163189782 2.9999999999999964 19.252713936017813
    vertex 14.512254839264223 -3.877453913503359e-15 19.060385435665417
    vertex 14.512254839264223 2.9999999999999964 19.060385435665417
  endloop
endfacet
facet normal 0.5964380650150469 2.8973739146541927e-32 0.8026591023598417
  outer loop
    vertex 14.026865163189782 -3.877453913503359e-15 19.252713936017813
    vertex 13.607793018062603 2.9999999999999964 19.564117094103853
    vertex 13.607793018062603 -3.877453913503359e-15 19.564117094103853
  endloop
endfacet
facet normal 0.5964380650150469 2.8973739146541927e-32 0.8026591023598417
  outer loop
    vertex 13.607793018062603 2.9999999999999964 19.564117094103853
    vertex 14.026865163189782 -3.877453913503359e-15 19.252713936017813
    vertex 14.026865163189782 2.9999999999999964 19.252713936017813
  endloop
endfacet
facet normal 0.7838583931955324 2.9091797422940646e-32 0.6209396262253831
  outer loop
    vertex 13.607793018062603 2.9999999999999964 19.564117094103853
    vertex 13.283597478023637 -3.877453913503359e-15 19.973373299318016
    vertex 13.607793018062603 -3.877453913503359e-15 19.564117094103853
  endloop
endfacet
facet normal 0.7838583931955324 2.9091797422940646e-32 0.6209396262253831
  outer loop
    vertex 13.283597478023637 -3.877453913503359e-15 19.973373299318016
    vertex 13.607793018062603 2.9999999999999964 19.564117094103853
    vertex 13.283597478023637 2.9999999999999964 19.973373299318016
  endloop
endfacet
facet normal 0.9178600672669833 2.72272977814344e-32 0.3969041407149199
  outer loop
    vertex 13.283597478023637 2.9999999999999964 19.973373299318016
    vertex 13.076371933368078 -3.877453913503359e-15 20.452592417602816
    vertex 13.283597478023637 -3.877453913503359e-15 19.973373299318016
  endloop
endfacet
facet normal 0.9178600672669833 2.72272977814344e-32 0.3969041407149199
  outer loop
    vertex 13.076371933368078 -3.877453913503359e-15 20.452592417602816
    vertex 13.283597478023637 2.9999999999999964 19.973373299318016
    vertex 13.076371933368078 2.9999999999999964 20.452592417602816
  endloop
endfacet
facet normal 0.9893110945896734 2.3507302791360336e-32 0.14582029392983112
  outer loop
    vertex 13.076371933368078 2.9999999999999964 20.452592417602816
    vertex 13.000238462507799 -3.877453913503359e-15 20.96911645799418
    vertex 13.076371933368078 -3.877453913503359e-15 20.452592417602816
  endloop
endfacet
facet normal 0.9893110945896734 2.3507302791360336e-32 0.14582029392983112
  outer loop
    vertex 13.000238462507799 -3.877453913503359e-15 20.96911645799418
    vertex 13.076371933368078 2.9999999999999964 20.452592417602816
    vertex 13.000238462507799 2.9999999999999964 20.96911645799418
  endloop
endfacet
facet normal 0.9998491279141584 0.0 0.017370129800810465
  outer loop
    vertex 63.52194395376337 3.0 64.2045439492128
    vertex 63.5128749261583 -3.524958103184872e-16 64.72656994705751
    vertex 63.52194395376337 -3.524958103184872e-16 64.2045439492128
  endloop
endfacet
facet normal 0.9998491279141584 0.0 0.017370129800810465
  outer loop
    vertex 63.5128749261583 -3.524958103184872e-16 64.72656994705751
    vertex 63.52194395376337 3.0 64.2045439492128
    vertex 63.5128749261583 3.0 64.72656994705751
  endloop
endfacet
facet normal 0.9702758154532445 -0.0 -0.24200173955271814
  outer loop
    vertex 63.5128749261583 3.0 64.72656994705751
    vertex 63.639225188456074 -3.524958103184872e-16 65.23315557743477
    vertex 63.5128749261583 -3.524958103184872e-16 64.72656994705751
  endloop
endfacet
facet normal 0.9702758154532445 -0.0 -0.24200173955271814
  outer loop
    vertex 63.639225188456074 -3.524958103184872e-16 65.23315557743477
    vertex 63.5128749261583 3.0 64.72656994705751
    vertex 63.639225188456074 3.0 65.23315557743477
  endloop
endfacet
facet normal 0.8745798096257791 -0.0 -0.48488159028255134
  outer loop
    vertex 63.639225188456074 3.0 65.23315557743477
    vertex 63.892384179084814 -3.524958103184872e-16 65.68977786680674
    vertex 63.639225188456074 -3.524958103184872e-16 65.23315557743477
  endloop
endfacet
facet normal 0.8745798096257791 -0.0 -0.48488159028255134
  outer loop
    vertex 63.892384179084814 -3.524958103184872e-16 65.68977786680674
    vertex 63.639225188456074 3.0 65.23315557743477
    vertex 63.892384179084814 3.0 65.68977786680674
  endloop
endfacet
facet normal 0.7192826350838105 -0.0 -0.6947175619393036
  outer loop
    vertex 63.892384179084814 3.0 65.68977786680674
    vertex 64.25509953119816 -3.524958103184872e-16 66.06531876075672
    vertex 63.892384179084814 -3.524958103184872e-16 65.68977786680674
  endloop
endfacet
facet normal 0.7192826350838105 -0.0 -0.6947175619393036
  outer loop
    vertex 64.25509953119816 -3.524958103184872e-16 66.06531876075672
    vertex 63.892384179084814 3.0 65.68977786680674
    vertex 64.25509953119816 3.0 66.06531876075672
  endloop
endfacet
facet normal 0.5149675376316238 -0.0 -0.857209679824967
  outer loop
    vertex 64.70265279296504 3.0 66.33418576797268
    vertex 64.25509953119816 -3.524958103184872e-16 66.06531876075672
    vertex 64.25509953119816 3.0 66.06531876075672
  endloop
endfacet
facet normal 0.5149675376316238 -0.0 -0.857209679824967
  outer loop
    vertex 64.25509953119816 -3.524958103184872e-16 66.06531876075672
    vertex 64.70265279296504 3.0 66.33418576797268
    vertex 64.70265279296504 -3.524958103184872e-16 66.33418576797268
  endloop
endfacet
facet normal 0.2755582535139464 -0.0 -0.9612843746365296
  outer loop
    vertex 65.2045439492128 3.0 66.47805604623662
    vertex 64.70265279296504 -3.524958103184872e-16 66.33418576797268
    vertex 64.70265279296504 3.0 66.33418576797268
  endloop
endfacet
facet normal 0.2755582535139464 -0.0 -0.9612843746365296
  outer loop
    vertex 64.70265279296504 -3.524958103184872e-16 66.33418576797268
    vertex 65.2045439492128 3.0 66.47805604623662
    vertex 65.2045439492128 -3.524958103184872e-16 66.47805604623662
  endloop
endfacet
facet normal 0.017370129800810465 -0.0 -0.9998491279141584
  outer loop
    vertex 65.72656994705751 3.0 66.4871250738417
    vertex 65.2045439492128 -3.524958103184872e-16 66.47805604623662
    vertex 65.2045439492128 3.0 66.47805604623662
  endloop
endfacet
facet normal 0.017370129800810465 -0.0 -0.9998491279141584
  outer loop
    vertex 65.2045439492128 -3.524958103184872e-16 66.47805604623662
    vertex 65.72656994705751 3.0 66.4871250738417
    vertex 65.72656994705751 -3.524958103184872e-16 66.4871250738417
  endloop
endfacet
facet normal -0.24200173955273852 -0.0 -0.9702758154532394
  outer loop
    vertex 66.23315557743477 3.0 66.3607748115439
    vertex 65.72656994705751 -3.524958103184872e-16 66.4871250738417
    vertex 65.72656994705751 3.0 66.4871250738417
  endloop
endfacet
facet normal -0.24200173955273852 -0.0 -0.9702758154532394
  outer loop
    vertex 65.72656994705751 -3.524958103184872e-16 66.4871250738417
    vertex 66.23315557743477 3.0 66.3607748115439
    vertex 66.23315557743477 -3.524958103184872e-16 66.3607748115439
  endloop
endfacet
facet normal -0.48488159028251826 -0.0 -0.8745798096257974
  outer loop
    vertex 66.68977786680674 3.0 66.10761582091519
    vertex 66.23315557743477 -3.524958103184872e-16 66.3607748115439
    vertex 66.23315557743477 3.0 66.3607748115439
  endloop
endfacet
facet normal -0.48488159028251826 -0.0 -0.8745798096257974
  outer loop
    vertex 66.23315557743477 -3.524958103184872e-16 66.3607748115439
    vertex 66.68977786680674 3.0 66.10761582091519
    vertex 66.68977786680674 -3.524958103184872e-16 66.10761582091519
  endloop
endfacet
facet normal -0.6947175619393147 -0.0 -0.7192826350837996
  outer loop
    vertex 67.06531876075672 3.0 65.74490046880183
    vertex 66.68977786680674 -3.524958103184872e-16 66.10761582091519
    vertex 66.68977786680674 3.0 66.10761582091519
  endloop
endfacet
facet normal -0.6947175619393147 -0.0 -0.7192826350837996
  outer loop
    vertex 66.68977786680674 -3.524958103184872e-16 66.10761582091519
    vertex 67.06531876075672 3.0 65.74490046880183
    vertex 67.06531876075672 -3.524958103184872e-16 65.74490046880183
  endloop
endfacet
facet normal -0.857209679824967 -0.0 -0.5149675376316238
  outer loop
    vertex 67.06531876075672 3.0 65.74490046880183
    vertex 67.33418576797268 -3.524958103184872e-16 65.29734720703495
    vertex 67.06531876075672 -3.524958103184872e-16 65.74490046880183
  endloop
endfacet
facet normal -0.857209679824967 -0.0 -0.5149675376316238
  outer loop
    vertex 67.33418576797268 -3.524958103184872e-16 65.29734720703495
    vertex 67.06531876075672 3.0 65.74490046880183
    vertex 67.33418576797268 3.0 65.29734720703495
  endloop
endfacet
facet normal -0.9612843746365296 -0.0 -0.2755582535139464
  outer loop
    vertex 67.33418576797268 3.0 65.29734720703495
    vertex 67.47805604623662 -3.524958103184872e-16 64.79545605078718
    vertex 67.33418576797268 -3.524958103184872e-16 65.29734720703495
  endloop
endfacet
facet normal -0.9612843746365296 -0.0 -0.2755582535139464
  outer loop
    vertex 67.47805604623662 -3.524958103184872e-16 64.79545605078718
    vertex 67.33418576797268 3.0 65.29734720703495
    vertex 67.47805604623662 3.0 64.79545605078718
  endloop
endfacet
facet normal -0.9998491279141584 -0.0 -0.017370129800810465
  outer loop
    vertex 67.47805604623662 3.0 64.79545605078718
    vertex 67.48712507384168 -3.524958103184872e-16 64.27343005294247
    vertex 67.47805604623662 -3.524958103184872e-16 64.79545605078718
  endloop
endfacet
facet normal -0.9998491279141584 -0.0 -0.017370129800810465
  outer loop
    vertex 67.48712507384168 -3.524958103184872e-16 64.27343005294247
    vertex 67.47805604623662 3.0 64.79545605078718
    vertex 67.48712507384168 3.0 64.27343005294247
  endloop
endfacet
facet normal -0.9702758154532445 -0.0 0.24200173955271814
  outer loop
    vertex 67.48712507384168 3.0 64.27343005294247
    vertex 67.3607748115439 -3.524958103184872e-16 63.766844422565214
    vertex 67.48712507384168 -3.524958103184872e-16 64.27343005294247
  endloop
endfacet
facet normal -0.9702758154532445 -0.0 0.24200173955271814
  outer loop
    vertex 67.3607748115439 -3.524958103184872e-16 63.766844422565214
    vertex 67.48712507384168 3.0 64.27343005294247
    vertex 67.3607748115439 3.0 63.766844422565214
  endloop
endfacet
facet normal -0.8745798096257883 -0.0 0.4848815902825348
  outer loop
    vertex 67.3607748115439 3.0 63.766844422565214
    vertex 67.10761582091519 -3.524958103184872e-16 63.31022213319325
    vertex 67.3607748115439 -3.524958103184872e-16 63.766844422565214
  endloop
endfacet
facet normal -0.8745798096257883 -0.0 0.4848815902825348
  outer loop
    vertex 67.10761582091519 -3.524958103184872e-16 63.31022213319325
    vertex 67.3607748115439 3.0 63.766844422565214
    vertex 67.10761582091519 3.0 63.31022213319325
  endloop
endfacet
facet normal -0.7192826350837996 -0.0 0.6947175619393147
  outer loop
    vertex 67.10761582091519 3.0 63.31022213319325
    vertex 66.74490046880183 -3.524958103184872e-16 62.93468123924327
    vertex 67.10761582091519 -3.524958103184872e-16 63.31022213319325
  endloop
endfacet
facet normal -0.7192826350837996 -0.0 0.6947175619393147
  outer loop
    vertex 66.74490046880183 -3.524958103184872e-16 62.93468123924327
    vertex 67.10761582091519 3.0 63.31022213319325
    vertex 66.74490046880183 3.0 62.93468123924327
  endloop
endfacet
facet normal -0.5149675376316238 -0.0 0.857209679824967
  outer loop
    vertex 66.74490046880183 -3.524958103184872e-16 62.93468123924327
    vertex 66.29734720703495 3.0 62.6658142320273
    vertex 66.29734720703495 -3.524958103184872e-16 62.6658142320273
  endloop
endfacet
facet normal -0.5149675376316238 -0.0 0.857209679824967
  outer loop
    vertex 66.29734720703495 3.0 62.6658142320273
    vertex 66.74490046880183 -3.524958103184872e-16 62.93468123924327
    vertex 66.74490046880183 3.0 62.93468123924327
  endloop
endfacet
facet normal -0.2755582535139464 -0.0 0.9612843746365296
  outer loop
    vertex 66.29734720703495 -3.524958103184872e-16 62.6658142320273
    vertex 65.79545605078718 3.0 62.52194395376337
    vertex 65.79545605078718 -3.524958103184872e-16 62.52194395376337
  endloop
endfacet
facet normal -0.2755582535139464 -0.0 0.9612843746365296
  outer loop
    vertex 65.79545605078718 3.0 62.52194395376337
    vertex 66.29734720703495 -3.524958103184872e-16 62.6658142320273
    vertex 66.29734720703495 3.0 62.6658142320273
  endloop
endfacet
facet normal -0.01737012980081084 -0.0 0.9998491279141585
  outer loop
    vertex 65.79545605078718 -3.524958103184872e-16 62.52194395376337
    vertex 65.27343005294249 3.0 62.5128749261583
    vertex 65.27343005294249 -3.524958103184872e-16 62.5128749261583
  endloop
endfacet
facet normal -0.01737012980081084 -0.0 0.9998491279141585
  outer loop
    vertex 65.27343005294249 3.0 62.5128749261583
    vertex 65.79545605078718 -3.524958103184872e-16 62.52194395376337
    vertex 65.79545605078718 3.0 62.52194395376337
  endloop
endfacet
facet normal 0.24200173955271312 0.0 0.9702758154532458
  outer loop
    vertex 65.27343005294249 -3.524958103184872e-16 62.5128749261583
    vertex 64.76684442256521 3.0 62.63922518845608
    vertex 64.76684442256521 -3.524958103184872e-16 62.63922518845608
  endloop
endfacet
facet normal 0.24200173955271312 0.0 0.9702758154532458
  outer loop
    vertex 64.76684442256521 3.0 62.63922518845608
    vertex 65.27343005294249 -3.524958103184872e-16 62.5128749261583
    vertex 65.27343005294249 3.0 62.5128749261583
  endloop
endfacet
facet normal 0.4848815902825348 0.0 0.8745798096257883
  outer loop
    vertex 64.76684442256521 -3.524958103184872e-16 62.63922518845608
    vertex 64.31022213319325 3.0 62.89238417908481
    vertex 64.31022213319325 -3.524958103184872e-16 62.89238417908481
  endloop
endfacet
facet normal 0.4848815902825348 0.0 0.8745798096257883
  outer loop
    vertex 64.31022213319325 3.0 62.89238417908481
    vertex 64.76684442256521 -3.524958103184872e-16 62.63922518845608
    vertex 64.76684442256521 3.0 62.63922518845608
  endloop
endfacet
facet normal 0.6947175619393147 0.0 0.7192826350837996
  outer loop
    vertex 64.31022213319325 -3.524958103184872e-16 62.89238417908481
    vertex 63.93468123924327 3.0 63.25509953119816
    vertex 63.93468123924327 -3.524958103184872e-16 63.25509953119816
  endloop
endfacet
facet normal 0.6947175619393147 0.0 0.7192826350837996
  outer loop
    vertex 63.93468123924327 3.0 63.25509953119816
    vertex 64.31022213319325 -3.524958103184872e-16 62.89238417908481
    vertex 64.31022213319325 3.0 62.89238417908481
  endloop
endfacet
facet normal 0.857209679824967 0.0 0.5149675376316238
  outer loop
    vertex 63.93468123924327 3.0 63.25509953119816
    vertex 63.6658142320273 -3.524958103184872e-16 63.70265279296505
    vertex 63.93468123924327 -3.524958103184872e-16 63.25509953119816
  endloop
endfacet
facet normal 0.857209679824967 0.0 0.5149675376316238
  outer loop
    vertex 63.6658142320273 -3.524958103184872e-16 63.70265279296505
    vertex 63.93468123924327 3.0 63.25509953119816
    vertex 63.6658142320273 3.0 63.70265279296505
  endloop
endfacet
facet normal 0.9612843746365296 0.0 0.2755582535139464
  outer loop
    vertex 63.6658142320273 3.0 63.70265279296505
    vertex 63.52194395376337 -3.524958103184872e-16 64.2045439492128
    vertex 63.6658142320273 -3.524958103184872e-16 63.70265279296505
  endloop
endfacet
facet normal 0.9612843746365296 0.0 0.2755582535139464
  outer loop
    vertex 63.52194395376337 -3.524958103184872e-16 64.2045439492128
    vertex 63.6658142320273 3.0 63.70265279296505
    vertex 63.52194395376337 3.0 64.2045439492128
  endloop
endfacet
endsolid arduino_holder
