solid OpenSCAD_Model
  facet normal -0 0 1
    outer loop
      vertex 0 5.9 5.9
      vertex 120 0 5.9
      vertex 120 5.9 5.9
    endloop
  endfacet
  facet normal 0 0 1
    outer loop
      vertex 120 0 5.9
      vertex 0 5.9 5.9
      vertex 0 0 5.9
    endloop
  endfacet
  facet normal 0 0 -1
    outer loop
      vertex 0 0 0
      vertex 120 5.9 0
      vertex 120 0 0
    endloop
  endfacet
  facet normal -0 0 -1
    outer loop
      vertex 120 5.9 0
      vertex 0 0 0
      vertex 0 5.9 0
    endloop
  endfacet
  facet normal 0 -1 0
    outer loop
      vertex 0 0 0
      vertex 120 0 5.9
      vertex 0 0 5.9
    endloop
  endfacet
  facet normal 0 -1 -0
    outer loop
      vertex 120 0 5.9
      vertex 0 0 0
      vertex 120 0 0
    endloop
  endfacet
  facet normal 1 -0 0
    outer loop
      vertex 120 0 5.9
      vertex 120 5.9 0
      vertex 120 5.9 5.9
    endloop
  endfacet
  facet normal 1 0 0
    outer loop
      vertex 120 5.9 0
      vertex 120 0 5.9
      vertex 120 0 0
    endloop
  endfacet
  facet normal 0 1 -0
    outer loop
      vertex 120 5.9 0
      vertex 0 5.9 5.9
      vertex 120 5.9 5.9
    endloop
  endfacet
  facet normal 0 1 0
    outer loop
      vertex 0 5.9 5.9
      vertex 120 5.9 0
      vertex 0 5.9 0
    endloop
  endfacet
  facet normal -1 0 0
    outer loop
      vertex 0 0 0
      vertex 0 5.9 5.9
      vertex 0 5.9 0
    endloop
  endfacet
  facet normal -1 -0 0
    outer loop
      vertex 0 5.9 5.9
      vertex 0 0 0
      vertex 0 0 5.9
    endloop
  endfacet
endsolid OpenSCAD_Model
