solid OpenSCAD_Model
  facet normal -1 0 0
    outer loop
      vertex 0 0 0
      vertex 0 25 3
      vertex 0 25 0
    endloop
  endfacet
  facet normal -1 -0 0
    outer loop
      vertex 0 25 3
      vertex 0 0 0
      vertex 0 0 3
    endloop
  endfacet
  facet normal 0 0 1
    outer loop
      vertex 155.932 11.4824 3
      vertex 160 25 3
      vertex 156 12 3
    endloop
  endfacet
  facet normal 0 0 1
    outer loop
      vertex 160 25 3
      vertex 155.932 12.5176 3
      vertex 156 12 3
    endloop
  endfacet
  facet normal 0 0 1
    outer loop
      vertex 160 25 3
      vertex 155.732 13 3
      vertex 155.932 12.5176 3
    endloop
  endfacet
  facet normal 0 0 1
    outer loop
      vertex 160 25 3
      vertex 155.414 13.4142 3
      vertex 155.732 13 3
    endloop
  endfacet
  facet normal 0 0 1
    outer loop
      vertex 160 25 3
      vertex 155 13.732 3
      vertex 155.414 13.4142 3
    endloop
  endfacet
  facet normal 0 0 1
    outer loop
      vertex 160 25 3
      vertex 154.518 13.9319 3
      vertex 155 13.732 3
    endloop
  endfacet
  facet normal 0 0 1
    outer loop
      vertex 160 25 3
      vertex 154 14 3
      vertex 154.518 13.9319 3
    endloop
  endfacet
  facet normal 0 0 1
    outer loop
      vertex 160 25 3
      vertex 153.482 13.9319 3
      vertex 154 14 3
    endloop
  endfacet
  facet normal 0 0 1
    outer loop
      vertex 160 25 3
      vertex 153 13.732 3
      vertex 153.482 13.9319 3
    endloop
  endfacet
  facet normal 0 0 1
    outer loop
      vertex 160 25 3
      vertex 152.586 13.4142 3
      vertex 153 13.732 3
    endloop
  endfacet
  facet normal 0 0 1
    outer loop
      vertex 104 0 3
      vertex 152.586 13.4142 3
      vertex 160 25 3
    endloop
  endfacet
  facet normal 0 0 1
    outer loop
      vertex 152.068 12.5176 3
      vertex 104 0 3
      vertex 152 12 3
    endloop
  endfacet
  facet normal 0 0 1
    outer loop
      vertex 152.268 13 3
      vertex 104 0 3
      vertex 152.068 12.5176 3
    endloop
  endfacet
  facet normal 0 0 1
    outer loop
      vertex 152.586 13.4142 3
      vertex 104 0 3
      vertex 152.268 13 3
    endloop
  endfacet
  facet normal -0 0 1
    outer loop
      vertex 0 25 3
      vertex 104 0 3
      vertex 160 25 3
    endloop
  endfacet
  facet normal 0 0 1
    outer loop
      vertex 104 0 3
      vertex 7.93185 12.5176 3
      vertex 8 12 3
    endloop
  endfacet
  facet normal 0 0 1
    outer loop
      vertex 104 0 3
      vertex 7.73205 13 3
      vertex 7.93185 12.5176 3
    endloop
  endfacet
  facet normal 0 0 1
    outer loop
      vertex 104 0 3
      vertex 7.41421 13.4142 3
      vertex 7.73205 13 3
    endloop
  endfacet
  facet normal 0 0 1
    outer loop
      vertex 104 0 3
      vertex 0 25 3
      vertex 7.41421 13.4142 3
    endloop
  endfacet
  facet normal 0 0 1
    outer loop
      vertex 7.41421 13.4142 3
      vertex 0 25 3
      vertex 7 13.732 3
    endloop
  endfacet
  facet normal 0 0 1
    outer loop
      vertex 7 13.732 3
      vertex 0 25 3
      vertex 6.51764 13.9319 3
    endloop
  endfacet
  facet normal 0 0 1
    outer loop
      vertex 4.06815 12.5176 3
      vertex 0 25 3
      vertex 4 12 3
    endloop
  endfacet
  facet normal 0 0 1
    outer loop
      vertex 4.26795 13 3
      vertex 0 25 3
      vertex 4.06815 12.5176 3
    endloop
  endfacet
  facet normal 0 0 1
    outer loop
      vertex 4.58579 13.4142 3
      vertex 0 25 3
      vertex 4.26795 13 3
    endloop
  endfacet
  facet normal 0 0 1
    outer loop
      vertex 5 13.732 3
      vertex 0 25 3
      vertex 4.58579 13.4142 3
    endloop
  endfacet
  facet normal 0 0 1
    outer loop
      vertex 5.48236 13.9319 3
      vertex 0 25 3
      vertex 5 13.732 3
    endloop
  endfacet
  facet normal 0 0 1
    outer loop
      vertex 6 14 3
      vertex 0 25 3
      vertex 5.48236 13.9319 3
    endloop
  endfacet
  facet normal 0 0 1
    outer loop
      vertex 6.51764 13.9319 3
      vertex 0 25 3
      vertex 6 14 3
    endloop
  endfacet
  facet normal 0 0 1
    outer loop
      vertex 160 25 3
      vertex 155.932 11.4824 3
      vertex 160 -34 3
    endloop
  endfacet
  facet normal -0 0 1
    outer loop
      vertex 155.732 11 3
      vertex 160 -34 3
      vertex 155.932 11.4824 3
    endloop
  endfacet
  facet normal -0 0 1
    outer loop
      vertex 155.414 10.5858 3
      vertex 160 -34 3
      vertex 155.732 11 3
    endloop
  endfacet
  facet normal -0 0 1
    outer loop
      vertex 155 10.2679 3
      vertex 160 -34 3
      vertex 155.414 10.5858 3
    endloop
  endfacet
  facet normal -0 0 1
    outer loop
      vertex 154.518 10.0681 3
      vertex 160 -34 3
      vertex 155 10.2679 3
    endloop
  endfacet
  facet normal -0 0 1
    outer loop
      vertex 154 10 3
      vertex 160 -34 3
      vertex 154.518 10.0681 3
    endloop
  endfacet
  facet normal 0 0 1
    outer loop
      vertex 153.482 10.0681 3
      vertex 160 -34 3
      vertex 154 10 3
    endloop
  endfacet
  facet normal 0 0 1
    outer loop
      vertex 153 10.2679 3
      vertex 160 -34 3
      vertex 153.482 10.0681 3
    endloop
  endfacet
  facet normal 0 0 1
    outer loop
      vertex 152.586 10.5858 3
      vertex 160 -34 3
      vertex 153 10.2679 3
    endloop
  endfacet
  facet normal 0 0 1
    outer loop
      vertex 104 0 3
      vertex 152.586 10.5858 3
      vertex 152.268 11 3
    endloop
  endfacet
  facet normal 0 0 1
    outer loop
      vertex 104 0 3
      vertex 152.268 11 3
      vertex 152.068 11.4824 3
    endloop
  endfacet
  facet normal 0 0 1
    outer loop
      vertex 104 0 3
      vertex 152.068 11.4824 3
      vertex 152 12 3
    endloop
  endfacet
  facet normal 0 0 1
    outer loop
      vertex 152.586 10.5858 3
      vertex 104 0 3
      vertex 160 -34 3
    endloop
  endfacet
  facet normal 0 0 1
    outer loop
      vertex 160 -34 3
      vertex 104 0 3
      vertex 104 -34 3
    endloop
  endfacet
  facet normal -0 0 1
    outer loop
      vertex 7.93185 11.4824 3
      vertex 104 0 3
      vertex 8 12 3
    endloop
  endfacet
  facet normal -0 0 1
    outer loop
      vertex 7.73205 11 3
      vertex 104 0 3
      vertex 7.93185 11.4824 3
    endloop
  endfacet
  facet normal -0 0 1
    outer loop
      vertex 7.41421 10.5858 3
      vertex 104 0 3
      vertex 7.73205 11 3
    endloop
  endfacet
  facet normal 0 0 1
    outer loop
      vertex 0 0 3
      vertex 7.41421 10.5858 3
      vertex 7 10.2679 3
    endloop
  endfacet
  facet normal 0 0 1
    outer loop
      vertex 0 0 3
      vertex 7 10.2679 3
      vertex 6.51764 10.0681 3
    endloop
  endfacet
  facet normal 0 0 1
    outer loop
      vertex 0 0 3
      vertex 6.51764 10.0681 3
      vertex 6 10 3
    endloop
  endfacet
  facet normal 0 0 1
    outer loop
      vertex 0 0 3
      vertex 4 12 3
      vertex 0 25 3
    endloop
  endfacet
  facet normal 0 0 1
    outer loop
      vertex 7.41421 10.5858 3
      vertex 0 0 3
      vertex 104 0 3
    endloop
  endfacet
  facet normal 0 0 1
    outer loop
      vertex 5.48236 10.0681 3
      vertex 0 0 3
      vertex 6 10 3
    endloop
  endfacet
  facet normal 0 0 1
    outer loop
      vertex 5 10.2679 3
      vertex 0 0 3
      vertex 5.48236 10.0681 3
    endloop
  endfacet
  facet normal 0 0 1
    outer loop
      vertex 4.58579 10.5858 3
      vertex 0 0 3
      vertex 5 10.2679 3
    endloop
  endfacet
  facet normal 0 0 1
    outer loop
      vertex 4.26795 11 3
      vertex 0 0 3
      vertex 4.58579 10.5858 3
    endloop
  endfacet
  facet normal 0 0 1
    outer loop
      vertex 4.06815 11.4824 3
      vertex 0 0 3
      vertex 4.26795 11 3
    endloop
  endfacet
  facet normal 0 0 1
    outer loop
      vertex 4 12 3
      vertex 0 0 3
      vertex 4.06815 11.4824 3
    endloop
  endfacet
  facet normal 1 0 0
    outer loop
      vertex 160 25 3
      vertex 160 -5 0
      vertex 160 25 0
    endloop
  endfacet
  facet normal 1 -0 0
    outer loop
      vertex 160 -34 3
      vertex 160 -5 0
      vertex 160 25 3
    endloop
  endfacet
  facet normal 1 0 0
    outer loop
      vertex 160 -34 -35
      vertex 160 -5 0
      vertex 160 -34 3
    endloop
  endfacet
  facet normal 1 0 0
    outer loop
      vertex 160 -5 0
      vertex 160 -34 -35
      vertex 160 -5 -35
    endloop
  endfacet
  facet normal 0 1 -0
    outer loop
      vertex 160 25 0
      vertex 0 25 3
      vertex 160 25 3
    endloop
  endfacet
  facet normal 0 1 0
    outer loop
      vertex 0 25 3
      vertex 160 25 0
      vertex 0 25 0
    endloop
  endfacet
  facet normal 0 0 -1
    outer loop
      vertex 104 0 0
      vertex 105 -5 0
      vertex 104 -5 0
    endloop
  endfacet
  facet normal 0 0 -1
    outer loop
      vertex 104 0 0
      vertex 7.93185 11.4824 0
      vertex 8 12 0
    endloop
  endfacet
  facet normal 0 0 -1
    outer loop
      vertex 104 0 0
      vertex 7.73205 11 0
      vertex 7.93185 11.4824 0
    endloop
  endfacet
  facet normal 0 0 -1
    outer loop
      vertex 104 0 0
      vertex 7.41421 10.5858 0
      vertex 7.73205 11 0
    endloop
  endfacet
  facet normal 0 0 -1
    outer loop
      vertex 0 0 0
      vertex 7.41421 10.5858 0
      vertex 104 0 0
    endloop
  endfacet
  facet normal 0 0 -1
    outer loop
      vertex 7.41421 10.5858 0
      vertex 0 0 0
      vertex 7 10.2679 0
    endloop
  endfacet
  facet normal 0 0 -1
    outer loop
      vertex 7 10.2679 0
      vertex 0 0 0
      vertex 6.51764 10.0681 0
    endloop
  endfacet
  facet normal -0 0 -1
    outer loop
      vertex 4.06815 11.4824 0
      vertex 0 0 0
      vertex 4 12 0
    endloop
  endfacet
  facet normal -0 0 -1
    outer loop
      vertex 4.26795 11 0
      vertex 0 0 0
      vertex 4.06815 11.4824 0
    endloop
  endfacet
  facet normal -0 0 -1
    outer loop
      vertex 4.58579 10.5858 0
      vertex 0 0 0
      vertex 4.26795 11 0
    endloop
  endfacet
  facet normal -0 0 -1
    outer loop
      vertex 5 10.2679 0
      vertex 0 0 0
      vertex 4.58579 10.5858 0
    endloop
  endfacet
  facet normal -0 0 -1
    outer loop
      vertex 5.48236 10.0681 0
      vertex 0 0 0
      vertex 5 10.2679 0
    endloop
  endfacet
  facet normal -0 0 -1
    outer loop
      vertex 6 10 0
      vertex 0 0 0
      vertex 5.48236 10.0681 0
    endloop
  endfacet
  facet normal 0 0 -1
    outer loop
      vertex 6.51764 10.0681 0
      vertex 0 0 0
      vertex 6 10 0
    endloop
  endfacet
  facet normal 0 0 -1
    outer loop
      vertex 159 4.9 0
      vertex 160 -5 0
      vertex 159 -5 0
    endloop
  endfacet
  facet normal 0 0 -1
    outer loop
      vertex 160 -5 0
      vertex 159 4.9 0
      vertex 160 25 0
    endloop
  endfacet
  facet normal 0 0 -1
    outer loop
      vertex 155.414 10.5858 0
      vertex 159 4.9 0
      vertex 156 4.9 0
    endloop
  endfacet
  facet normal 0 0 -1
    outer loop
      vertex 159 4.9 0
      vertex 156 12 0
      vertex 160 25 0
    endloop
  endfacet
  facet normal 0 0 -1
    outer loop
      vertex 155.932 12.5176 0
      vertex 160 25 0
      vertex 156 12 0
    endloop
  endfacet
  facet normal 0 0 -1
    outer loop
      vertex 155.732 13 0
      vertex 160 25 0
      vertex 155.932 12.5176 0
    endloop
  endfacet
  facet normal 0 0 -1
    outer loop
      vertex 155.414 13.4142 0
      vertex 160 25 0
      vertex 155.732 13 0
    endloop
  endfacet
  facet normal 0 0 -1
    outer loop
      vertex 155 13.732 0
      vertex 160 25 0
      vertex 155.414 13.4142 0
    endloop
  endfacet
  facet normal 0 0 -1
    outer loop
      vertex 154.518 13.9319 0
      vertex 160 25 0
      vertex 155 13.732 0
    endloop
  endfacet
  facet normal 0 0 -1
    outer loop
      vertex 154 14 0
      vertex 160 25 0
      vertex 154.518 13.9319 0
    endloop
  endfacet
  facet normal 0 0 -1
    outer loop
      vertex 153.482 13.9319 0
      vertex 160 25 0
      vertex 154 14 0
    endloop
  endfacet
  facet normal 0 0 -1
    outer loop
      vertex 153 13.732 0
      vertex 160 25 0
      vertex 153.482 13.9319 0
    endloop
  endfacet
  facet normal 0 0 -1
    outer loop
      vertex 152.586 13.4142 0
      vertex 160 25 0
      vertex 153 13.732 0
    endloop
  endfacet
  facet normal 0 0 -1
    outer loop
      vertex 108 4.9 0
      vertex 152.586 13.4142 0
      vertex 152.268 13 0
    endloop
  endfacet
  facet normal -0 0 -1
    outer loop
      vertex 152.068 11.4824 0
      vertex 108 4.9 0
      vertex 152 12 0
    endloop
  endfacet
  facet normal -0 0 -1
    outer loop
      vertex 152 12 0
      vertex 108 4.9 0
      vertex 152.068 12.5176 0
    endloop
  endfacet
  facet normal -0 0 -1
    outer loop
      vertex 152.068 12.5176 0
      vertex 108 4.9 0
      vertex 152.268 13 0
    endloop
  endfacet
  facet normal -0 0 -1
    outer loop
      vertex 152.586 13.4142 0
      vertex 108 4.9 0
      vertex 160 25 0
    endloop
  endfacet
  facet normal 0 0 -1
    outer loop
      vertex 105 4.9 0
      vertex 160 25 0
      vertex 108 4.9 0
    endloop
  endfacet
  facet normal 0 0 -1
    outer loop
      vertex 105 -5 0
      vertex 104 0 0
      vertex 105 4.9 0
    endloop
  endfacet
  facet normal 0 0 -1
    outer loop
      vertex 8 12 0
      vertex 105 4.9 0
      vertex 104 0 0
    endloop
  endfacet
  facet normal 0 0 -1
    outer loop
      vertex 7.93185 12.5176 0
      vertex 105 4.9 0
      vertex 8 12 0
    endloop
  endfacet
  facet normal 0 0 -1
    outer loop
      vertex 7.73205 13 0
      vertex 105 4.9 0
      vertex 7.93185 12.5176 0
    endloop
  endfacet
  facet normal 0 0 -1
    outer loop
      vertex 7.41421 13.4142 0
      vertex 105 4.9 0
      vertex 7.73205 13 0
    endloop
  endfacet
  facet normal 0 0 -1
    outer loop
      vertex 0 25 0
      vertex 105 4.9 0
      vertex 7.41421 13.4142 0
    endloop
  endfacet
  facet normal 0 0 -1
    outer loop
      vertex 0 25 0
      vertex 7.41421 13.4142 0
      vertex 7 13.732 0
    endloop
  endfacet
  facet normal 0 0 -1
    outer loop
      vertex 0 25 0
      vertex 7 13.732 0
      vertex 6.51764 13.9319 0
    endloop
  endfacet
  facet normal 0 0 -1
    outer loop
      vertex 0 25 0
      vertex 6.51764 13.9319 0
      vertex 6 14 0
    endloop
  endfacet
  facet normal 0 0 -1
    outer loop
      vertex 0 25 0
      vertex 4 12 0
      vertex 0 0 0
    endloop
  endfacet
  facet normal 0 0 -1
    outer loop
      vertex 105 4.9 0
      vertex 0 25 0
      vertex 160 25 0
    endloop
  endfacet
  facet normal 0 0 -1
    outer loop
      vertex 5.48236 13.9319 0
      vertex 0 25 0
      vertex 6 14 0
    endloop
  endfacet
  facet normal 0 0 -1
    outer loop
      vertex 5 13.732 0
      vertex 0 25 0
      vertex 5.48236 13.9319 0
    endloop
  endfacet
  facet normal 0 0 -1
    outer loop
      vertex 4.58579 13.4142 0
      vertex 0 25 0
      vertex 5 13.732 0
    endloop
  endfacet
  facet normal 0 0 -1
    outer loop
      vertex 4.26795 13 0
      vertex 0 25 0
      vertex 4.58579 13.4142 0
    endloop
  endfacet
  facet normal 0 0 -1
    outer loop
      vertex 4.06815 12.5176 0
      vertex 0 25 0
      vertex 4.26795 13 0
    endloop
  endfacet
  facet normal 0 0 -1
    outer loop
      vertex 4 12 0
      vertex 0 25 0
      vertex 4.06815 12.5176 0
    endloop
  endfacet
  facet normal 0 0 -1
    outer loop
      vertex 152.586 10.5858 0
      vertex 156 4.9 0
      vertex 156 -5 0
    endloop
  endfacet
  facet normal 0 0 -1
    outer loop
      vertex 159 4.9 0
      vertex 155.932 11.4824 0
      vertex 156 12 0
    endloop
  endfacet
  facet normal 0 0 -1
    outer loop
      vertex 159 4.9 0
      vertex 155.732 11 0
      vertex 155.932 11.4824 0
    endloop
  endfacet
  facet normal 0 0 -1
    outer loop
      vertex 159 4.9 0
      vertex 155.414 10.5858 0
      vertex 155.732 11 0
    endloop
  endfacet
  facet normal 0 0 -1
    outer loop
      vertex 156 4.9 0
      vertex 155 10.2679 0
      vertex 155.414 10.5858 0
    endloop
  endfacet
  facet normal 0 0 -1
    outer loop
      vertex 156 4.9 0
      vertex 154.518 10.0681 0
      vertex 155 10.2679 0
    endloop
  endfacet
  facet normal 0 0 -1
    outer loop
      vertex 156 4.9 0
      vertex 154 10 0
      vertex 154.518 10.0681 0
    endloop
  endfacet
  facet normal 0 0 -1
    outer loop
      vertex 156 4.9 0
      vertex 153.482 10.0681 0
      vertex 154 10 0
    endloop
  endfacet
  facet normal 0 0 -1
    outer loop
      vertex 156 4.9 0
      vertex 153 10.2679 0
      vertex 153.482 10.0681 0
    endloop
  endfacet
  facet normal 0 0 -1
    outer loop
      vertex 156 4.9 0
      vertex 152.586 10.5858 0
      vertex 153 10.2679 0
    endloop
  endfacet
  facet normal 0 0 -1
    outer loop
      vertex 156 -5 0
      vertex 152.268 11 0
      vertex 152.586 10.5858 0
    endloop
  endfacet
  facet normal 0 0 -1
    outer loop
      vertex 108 -5 0
      vertex 152.268 11 0
      vertex 156 -5 0
    endloop
  endfacet
  facet normal -0 0 -1
    outer loop
      vertex 152.268 11 0
      vertex 108 4.9 0
      vertex 152.068 11.4824 0
    endloop
  endfacet
  facet normal 0 0 -1
    outer loop
      vertex 108 4.9 0
      vertex 152.268 11 0
      vertex 108 -5 0
    endloop
  endfacet
  facet normal 0 -1 0
    outer loop
      vertex 0 0 0
      vertex 104 0 3
      vertex 0 0 3
    endloop
  endfacet
  facet normal 0 -1 -0
    outer loop
      vertex 104 0 3
      vertex 0 0 0
      vertex 104 0 0
    endloop
  endfacet
  facet normal -0.991445 -0.130527 0
    outer loop
      vertex 8 12 0
      vertex 7.93185 12.5176 3
      vertex 7.93185 12.5176 0
    endloop
  endfacet
  facet normal -0.991445 -0.130527 0
    outer loop
      vertex 7.93185 12.5176 3
      vertex 8 12 0
      vertex 8 12 3
    endloop
  endfacet
  facet normal 0.130527 -0.991445 0
    outer loop
      vertex 5.48236 13.9319 0
      vertex 6 14 3
      vertex 5.48236 13.9319 3
    endloop
  endfacet
  facet normal 0.130527 -0.991445 0
    outer loop
      vertex 6 14 3
      vertex 5.48236 13.9319 0
      vertex 6 14 0
    endloop
  endfacet
  facet normal -0.130525 0.991445 0
    outer loop
      vertex 6.51764 10.0681 0
      vertex 6 10 3
      vertex 6.51764 10.0681 3
    endloop
  endfacet
  facet normal -0.130525 0.991445 0
    outer loop
      vertex 6 10 3
      vertex 6.51764 10.0681 0
      vertex 6 10 0
    endloop
  endfacet
  facet normal -0.608761 -0.793354 0
    outer loop
      vertex 7 13.732 0
      vertex 7.41421 13.4142 3
      vertex 7 13.732 3
    endloop
  endfacet
  facet normal -0.608761 -0.793354 -0
    outer loop
      vertex 7.41421 13.4142 3
      vertex 7 13.732 0
      vertex 7.41421 13.4142 0
    endloop
  endfacet
  facet normal 0.793354 -0.608761 0
    outer loop
      vertex 4.26795 13 3
      vertex 4.58579 13.4142 0
      vertex 4.58579 13.4142 3
    endloop
  endfacet
  facet normal 0.793354 -0.608761 0
    outer loop
      vertex 4.58579 13.4142 0
      vertex 4.26795 13 3
      vertex 4.26795 13 0
    endloop
  endfacet
  facet normal 0.923879 -0.382684 0
    outer loop
      vertex 4.06815 12.5176 3
      vertex 4.26795 13 0
      vertex 4.26795 13 3
    endloop
  endfacet
  facet normal 0.923879 -0.382684 0
    outer loop
      vertex 4.26795 13 0
      vertex 4.06815 12.5176 3
      vertex 4.06815 12.5176 0
    endloop
  endfacet
  facet normal 0.60876 -0.793354 0
    outer loop
      vertex 4.58579 13.4142 0
      vertex 5 13.732 3
      vertex 4.58579 13.4142 3
    endloop
  endfacet
  facet normal 0.60876 -0.793354 0
    outer loop
      vertex 5 13.732 3
      vertex 4.58579 13.4142 0
      vertex 5 13.732 0
    endloop
  endfacet
  facet normal -0.793354 0.60876 0
    outer loop
      vertex 7.41421 10.5858 0
      vertex 7.73205 11 3
      vertex 7.73205 11 0
    endloop
  endfacet
  facet normal -0.793354 0.60876 0
    outer loop
      vertex 7.73205 11 3
      vertex 7.41421 10.5858 0
      vertex 7.41421 10.5858 3
    endloop
  endfacet
  facet normal 0.382684 0.923879 -0
    outer loop
      vertex 5.48236 10.0681 0
      vertex 5 10.2679 3
      vertex 5.48236 10.0681 3
    endloop
  endfacet
  facet normal 0.382684 0.923879 0
    outer loop
      vertex 5 10.2679 3
      vertex 5.48236 10.0681 0
      vertex 5 10.2679 0
    endloop
  endfacet
  facet normal -0.793354 -0.608761 0
    outer loop
      vertex 7.73205 13 0
      vertex 7.41421 13.4142 3
      vertex 7.41421 13.4142 0
    endloop
  endfacet
  facet normal -0.793354 -0.608761 0
    outer loop
      vertex 7.41421 13.4142 3
      vertex 7.73205 13 0
      vertex 7.73205 13 3
    endloop
  endfacet
  facet normal -0.923879 -0.382684 0
    outer loop
      vertex 7.93185 12.5176 0
      vertex 7.73205 13 3
      vertex 7.73205 13 0
    endloop
  endfacet
  facet normal -0.923879 -0.382684 0
    outer loop
      vertex 7.73205 13 3
      vertex 7.93185 12.5176 0
      vertex 7.93185 12.5176 3
    endloop
  endfacet
  facet normal -0.130527 -0.991445 0
    outer loop
      vertex 6 14 0
      vertex 6.51764 13.9319 3
      vertex 6 14 3
    endloop
  endfacet
  facet normal -0.130527 -0.991445 -0
    outer loop
      vertex 6.51764 13.9319 3
      vertex 6 14 0
      vertex 6.51764 13.9319 0
    endloop
  endfacet
  facet normal -0.382684 -0.923879 0
    outer loop
      vertex 6.51764 13.9319 0
      vertex 7 13.732 3
      vertex 6.51764 13.9319 3
    endloop
  endfacet
  facet normal -0.382684 -0.923879 -0
    outer loop
      vertex 7 13.732 3
      vertex 6.51764 13.9319 0
      vertex 7 13.732 0
    endloop
  endfacet
  facet normal 0.991445 -0.130525 0
    outer loop
      vertex 4 12 3
      vertex 4.06815 12.5176 0
      vertex 4.06815 12.5176 3
    endloop
  endfacet
  facet normal 0.991445 -0.130525 0
    outer loop
      vertex 4.06815 12.5176 0
      vertex 4 12 3
      vertex 4 12 0
    endloop
  endfacet
  facet normal 0.382684 -0.923879 0
    outer loop
      vertex 5 13.732 0
      vertex 5.48236 13.9319 3
      vertex 5 13.732 3
    endloop
  endfacet
  facet normal 0.382684 -0.923879 0
    outer loop
      vertex 5.48236 13.9319 3
      vertex 5 13.732 0
      vertex 5.48236 13.9319 0
    endloop
  endfacet
  facet normal -0.991445 0.130527 0
    outer loop
      vertex 7.93185 11.4824 0
      vertex 8 12 3
      vertex 8 12 0
    endloop
  endfacet
  facet normal -0.991445 0.130527 0
    outer loop
      vertex 8 12 3
      vertex 7.93185 11.4824 0
      vertex 7.93185 11.4824 3
    endloop
  endfacet
  facet normal -0.382684 0.923879 0
    outer loop
      vertex 7 10.2679 0
      vertex 6.51764 10.0681 3
      vertex 7 10.2679 3
    endloop
  endfacet
  facet normal -0.382684 0.923879 0
    outer loop
      vertex 6.51764 10.0681 3
      vertex 7 10.2679 0
      vertex 6.51764 10.0681 0
    endloop
  endfacet
  facet normal 0.130525 0.991445 -0
    outer loop
      vertex 6 10 0
      vertex 5.48236 10.0681 3
      vertex 6 10 3
    endloop
  endfacet
  facet normal 0.130525 0.991445 0
    outer loop
      vertex 5.48236 10.0681 3
      vertex 6 10 0
      vertex 5.48236 10.0681 0
    endloop
  endfacet
  facet normal 0.608761 0.793354 -0
    outer loop
      vertex 5 10.2679 0
      vertex 4.58579 10.5858 3
      vertex 5 10.2679 3
    endloop
  endfacet
  facet normal 0.608761 0.793354 0
    outer loop
      vertex 4.58579 10.5858 3
      vertex 5 10.2679 0
      vertex 4.58579 10.5858 0
    endloop
  endfacet
  facet normal 0.923879 0.382684 0
    outer loop
      vertex 4.26795 11 3
      vertex 4.06815 11.4824 0
      vertex 4.06815 11.4824 3
    endloop
  endfacet
  facet normal 0.923879 0.382684 0
    outer loop
      vertex 4.06815 11.4824 0
      vertex 4.26795 11 3
      vertex 4.26795 11 0
    endloop
  endfacet
  facet normal 0.991445 0.130525 0
    outer loop
      vertex 4.06815 11.4824 3
      vertex 4 12 0
      vertex 4 12 3
    endloop
  endfacet
  facet normal 0.991445 0.130525 0
    outer loop
      vertex 4 12 0
      vertex 4.06815 11.4824 3
      vertex 4.06815 11.4824 0
    endloop
  endfacet
  facet normal -0.923879 0.382684 0
    outer loop
      vertex 7.73205 11 0
      vertex 7.93185 11.4824 3
      vertex 7.93185 11.4824 0
    endloop
  endfacet
  facet normal -0.923879 0.382684 0
    outer loop
      vertex 7.93185 11.4824 3
      vertex 7.73205 11 0
      vertex 7.73205 11 3
    endloop
  endfacet
  facet normal -0.608761 0.793354 0
    outer loop
      vertex 7.41421 10.5858 0
      vertex 7 10.2679 3
      vertex 7.41421 10.5858 3
    endloop
  endfacet
  facet normal -0.608761 0.793354 0
    outer loop
      vertex 7 10.2679 3
      vertex 7.41421 10.5858 0
      vertex 7 10.2679 0
    endloop
  endfacet
  facet normal 0.793354 0.60876 0
    outer loop
      vertex 4.58579 10.5858 3
      vertex 4.26795 11 0
      vertex 4.26795 11 3
    endloop
  endfacet
  facet normal 0.793354 0.60876 0
    outer loop
      vertex 4.26795 11 0
      vertex 4.58579 10.5858 3
      vertex 4.58579 10.5858 0
    endloop
  endfacet
  facet normal -0.991445 -0.130522 0
    outer loop
      vertex 156 12 0
      vertex 155.932 12.5176 3
      vertex 155.932 12.5176 0
    endloop
  endfacet
  facet normal -0.991445 -0.130522 0
    outer loop
      vertex 155.932 12.5176 3
      vertex 156 12 0
      vertex 156 12 3
    endloop
  endfacet
  facet normal -0.382685 -0.923879 0
    outer loop
      vertex 154.518 13.9319 0
      vertex 155 13.732 3
      vertex 154.518 13.9319 3
    endloop
  endfacet
  facet normal -0.382685 -0.923879 -0
    outer loop
      vertex 155 13.732 3
      vertex 154.518 13.9319 0
      vertex 155 13.732 0
    endloop
  endfacet
  facet normal -0.793351 0.608765 0
    outer loop
      vertex 155.414 10.5858 0
      vertex 155.732 11 3
      vertex 155.732 11 0
    endloop
  endfacet
  facet normal -0.793351 0.608765 0
    outer loop
      vertex 155.732 11 3
      vertex 155.414 10.5858 0
      vertex 155.414 10.5858 3
    endloop
  endfacet
  facet normal -0.608759 0.793355 0
    outer loop
      vertex 155.414 10.5858 0
      vertex 155 10.2679 3
      vertex 155.414 10.5858 3
    endloop
  endfacet
  facet normal -0.608759 0.793355 0
    outer loop
      vertex 155 10.2679 3
      vertex 155.414 10.5858 0
      vertex 155 10.2679 0
    endloop
  endfacet
  facet normal 0.130525 0.991445 -0
    outer loop
      vertex 154 10 0
      vertex 153.482 10.0681 3
      vertex 154 10 3
    endloop
  endfacet
  facet normal 0.130525 0.991445 0
    outer loop
      vertex 153.482 10.0681 3
      vertex 154 10 0
      vertex 153.482 10.0681 0
    endloop
  endfacet
  facet normal -0.608759 -0.793355 0
    outer loop
      vertex 155 13.732 0
      vertex 155.414 13.4142 3
      vertex 155 13.732 3
    endloop
  endfacet
  facet normal -0.608759 -0.793355 -0
    outer loop
      vertex 155.414 13.4142 3
      vertex 155 13.732 0
      vertex 155.414 13.4142 0
    endloop
  endfacet
  facet normal 0.130526 -0.991445 0
    outer loop
      vertex 153.482 13.9319 0
      vertex 154 14 3
      vertex 153.482 13.9319 3
    endloop
  endfacet
  facet normal 0.130526 -0.991445 0
    outer loop
      vertex 154 14 3
      vertex 153.482 13.9319 0
      vertex 154 14 0
    endloop
  endfacet
  facet normal 0.608759 -0.793355 0
    outer loop
      vertex 152.586 13.4142 0
      vertex 153 13.732 3
      vertex 152.586 13.4142 3
    endloop
  endfacet
  facet normal 0.608759 -0.793355 0
    outer loop
      vertex 153 13.732 3
      vertex 152.586 13.4142 0
      vertex 153 13.732 0
    endloop
  endfacet
  facet normal 0.79335 -0.608766 0
    outer loop
      vertex 152.268 13 3
      vertex 152.586 13.4142 0
      vertex 152.586 13.4142 3
    endloop
  endfacet
  facet normal 0.79335 -0.608766 0
    outer loop
      vertex 152.586 13.4142 0
      vertex 152.268 13 3
      vertex 152.268 13 0
    endloop
  endfacet
  facet normal -0.991446 0.130521 0
    outer loop
      vertex 155.932 11.4824 0
      vertex 156 12 3
      vertex 156 12 0
    endloop
  endfacet
  facet normal -0.991446 0.130521 0
    outer loop
      vertex 156 12 3
      vertex 155.932 11.4824 0
      vertex 155.932 11.4824 3
    endloop
  endfacet
  facet normal 0.793351 0.608765 0
    outer loop
      vertex 152.586 10.5858 3
      vertex 152.268 11 0
      vertex 152.268 11 3
    endloop
  endfacet
  facet normal 0.793351 0.608765 0
    outer loop
      vertex 152.268 11 0
      vertex 152.586 10.5858 3
      vertex 152.586 10.5858 0
    endloop
  endfacet
  facet normal 0.382685 0.923879 -0
    outer loop
      vertex 153.482 10.0681 0
      vertex 153 10.2679 3
      vertex 153.482 10.0681 3
    endloop
  endfacet
  facet normal 0.382685 0.923879 0
    outer loop
      vertex 153 10.2679 3
      vertex 153.482 10.0681 0
      vertex 153 10.2679 0
    endloop
  endfacet
  facet normal 0.608759 0.793355 -0
    outer loop
      vertex 153 10.2679 0
      vertex 152.586 10.5858 3
      vertex 153 10.2679 3
    endloop
  endfacet
  facet normal 0.608759 0.793355 0
    outer loop
      vertex 152.586 10.5858 3
      vertex 153 10.2679 0
      vertex 152.586 10.5858 0
    endloop
  endfacet
  facet normal -0.923881 -0.382679 0
    outer loop
      vertex 155.932 12.5176 0
      vertex 155.732 13 3
      vertex 155.732 13 0
    endloop
  endfacet
  facet normal -0.923881 -0.382679 0
    outer loop
      vertex 155.732 13 3
      vertex 155.932 12.5176 0
      vertex 155.932 12.5176 3
    endloop
  endfacet
  facet normal -0.79335 -0.608766 0
    outer loop
      vertex 155.732 13 0
      vertex 155.414 13.4142 3
      vertex 155.414 13.4142 0
    endloop
  endfacet
  facet normal -0.79335 -0.608766 0
    outer loop
      vertex 155.414 13.4142 3
      vertex 155.732 13 0
      vertex 155.732 13 3
    endloop
  endfacet
  facet normal -0.130526 -0.991445 0
    outer loop
      vertex 154 14 0
      vertex 154.518 13.9319 3
      vertex 154 14 3
    endloop
  endfacet
  facet normal -0.130526 -0.991445 -0
    outer loop
      vertex 154.518 13.9319 3
      vertex 154 14 0
      vertex 154.518 13.9319 0
    endloop
  endfacet
  facet normal 0.991446 0.130521 0
    outer loop
      vertex 152.068 11.4824 3
      vertex 152 12 0
      vertex 152 12 3
    endloop
  endfacet
  facet normal 0.991446 0.130521 0
    outer loop
      vertex 152 12 0
      vertex 152.068 11.4824 3
      vertex 152.068 11.4824 0
    endloop
  endfacet
  facet normal 0.923881 -0.382679 0
    outer loop
      vertex 152.068 12.5176 3
      vertex 152.268 13 0
      vertex 152.268 13 3
    endloop
  endfacet
  facet normal 0.923881 -0.382679 0
    outer loop
      vertex 152.268 13 0
      vertex 152.068 12.5176 3
      vertex 152.068 12.5176 0
    endloop
  endfacet
  facet normal 0.382685 -0.923879 0
    outer loop
      vertex 153 13.732 0
      vertex 153.482 13.9319 3
      vertex 153 13.732 3
    endloop
  endfacet
  facet normal 0.382685 -0.923879 0
    outer loop
      vertex 153.482 13.9319 3
      vertex 153 13.732 0
      vertex 153.482 13.9319 0
    endloop
  endfacet
  facet normal -0.382685 0.923879 0
    outer loop
      vertex 155 10.2679 0
      vertex 154.518 10.0681 3
      vertex 155 10.2679 3
    endloop
  endfacet
  facet normal -0.382685 0.923879 0
    outer loop
      vertex 154.518 10.0681 3
      vertex 155 10.2679 0
      vertex 154.518 10.0681 0
    endloop
  endfacet
  facet normal -0.130525 0.991445 0
    outer loop
      vertex 154.518 10.0681 0
      vertex 154 10 3
      vertex 154.518 10.0681 3
    endloop
  endfacet
  facet normal -0.130525 0.991445 0
    outer loop
      vertex 154 10 3
      vertex 154.518 10.0681 0
      vertex 154 10 0
    endloop
  endfacet
  facet normal 0.923881 0.38268 0
    outer loop
      vertex 152.268 11 3
      vertex 152.068 11.4824 0
      vertex 152.068 11.4824 3
    endloop
  endfacet
  facet normal 0.923881 0.38268 0
    outer loop
      vertex 152.068 11.4824 0
      vertex 152.268 11 3
      vertex 152.268 11 0
    endloop
  endfacet
  facet normal 0.991445 -0.130522 0
    outer loop
      vertex 152 12 3
      vertex 152.068 12.5176 0
      vertex 152.068 12.5176 3
    endloop
  endfacet
  facet normal 0.991445 -0.130522 0
    outer loop
      vertex 152.068 12.5176 0
      vertex 152 12 3
      vertex 152 12 0
    endloop
  endfacet
  facet normal -0.923881 0.38268 0
    outer loop
      vertex 155.732 11 0
      vertex 155.932 11.4824 3
      vertex 155.932 11.4824 0
    endloop
  endfacet
  facet normal -0.923881 0.38268 0
    outer loop
      vertex 155.932 11.4824 3
      vertex 155.732 11 0
      vertex 155.732 11 3
    endloop
  endfacet
  facet normal 1 0 0
    outer loop
      vertex 160 -5 -35
      vertex 160 -29 -45.5
      vertex 160 -5 -45.5
    endloop
  endfacet
  facet normal 1 0 0
    outer loop
      vertex 160 -29 -45.5
      vertex 160 -34 -35
      vertex 160 -29 -51.5
    endloop
  endfacet
  facet normal 1 -0 0
    outer loop
      vertex 160 -34 -35
      vertex 160 -29 -45.5
      vertex 160 -5 -35
    endloop
  endfacet
  facet normal 1 -0 0
    outer loop
      vertex 160 -29 -51.5
      vertex 160 -5 -62
      vertex 160 -5 -51.5
    endloop
  endfacet
  facet normal 1 0 0
    outer loop
      vertex 160 -29 -51.5
      vertex 160 -34 -62
      vertex 160 -5 -62
    endloop
  endfacet
  facet normal 1 0 0
    outer loop
      vertex 160 -34 -62
      vertex 160 -29 -51.5
      vertex 160 -34 -35
    endloop
  endfacet
  facet normal 0 1 0
    outer loop
      vertex 160 -5 -51.5
      vertex 154 -5 -59
      vertex 154 -5 -51.5
    endloop
  endfacet
  facet normal 0 1 0
    outer loop
      vertex 104 -5 -62
      vertex 154 -5 -59
      vertex 160 -5 -62
    endloop
  endfacet
  facet normal 0 1 -0
    outer loop
      vertex 160 -5 -62
      vertex 154 -5 -59
      vertex 160 -5 -51.5
    endloop
  endfacet
  facet normal 0 1 0
    outer loop
      vertex 160 -5 -35
      vertex 154 -5 -38
      vertex 104 -5 -35
    endloop
  endfacet
  facet normal 0 1 -0
    outer loop
      vertex 160 -5 -45.5
      vertex 154 -5 -38
      vertex 160 -5 -35
    endloop
  endfacet
  facet normal 0 1 0
    outer loop
      vertex 154 -5 -38
      vertex 160 -5 -45.5
      vertex 154 -5 -45.5
    endloop
  endfacet
  facet normal 0 1 -0
    outer loop
      vertex 109 -5 -38
      vertex 104 -5 -35
      vertex 154 -5 -38
    endloop
  endfacet
  facet normal 0 1 -0
    outer loop
      vertex 109 -5 -59
      vertex 104 -5 -35
      vertex 109 -5 -38
    endloop
  endfacet
  facet normal 0 1 0
    outer loop
      vertex 109 -5 -59
      vertex 104 -5 -62
      vertex 104 -5 -35
    endloop
  endfacet
  facet normal 0 1 0
    outer loop
      vertex 154 -5 -59
      vertex 104 -5 -62
      vertex 109 -5 -59
    endloop
  endfacet
  facet normal -1 0 0
    outer loop
      vertex 104 -34 -62
      vertex 104 -5 -35
      vertex 104 -5 -62
    endloop
  endfacet
  facet normal -1 -0 0
    outer loop
      vertex 104 -5 -35
      vertex 104 -34 -62
      vertex 104 -34 -35
    endloop
  endfacet
  facet normal -0 0 1
    outer loop
      vertex 104 -5 -35
      vertex 160 -34 -35
      vertex 160 -5 -35
    endloop
  endfacet
  facet normal 0 0 1
    outer loop
      vertex 160 -34 -35
      vertex 104 -5 -35
      vertex 104 -34 -35
    endloop
  endfacet
  facet normal 0 -1 0
    outer loop
      vertex 104 -34 -62
      vertex 160 -34 -35
      vertex 104 -34 -35
    endloop
  endfacet
  facet normal 0 -1 -0
    outer loop
      vertex 160 -34 -35
      vertex 104 -34 -62
      vertex 160 -34 -62
    endloop
  endfacet
  facet normal 0 0 -1
    outer loop
      vertex 104 -34 -62
      vertex 160 -5 -62
      vertex 160 -34 -62
    endloop
  endfacet
  facet normal -0 0 -1
    outer loop
      vertex 160 -5 -62
      vertex 104 -34 -62
      vertex 104 -5 -62
    endloop
  endfacet
  facet normal -1 0 0
    outer loop
      vertex 154 -5 -59
      vertex 154 -29 -51.5
      vertex 154 -5 -51.5
    endloop
  endfacet
  facet normal -1 -0 0
    outer loop
      vertex 154 -29 -51.5
      vertex 154 -31 -59
      vertex 154 -29 -45.5
    endloop
  endfacet
  facet normal -1 0 0
    outer loop
      vertex 154 -31 -59
      vertex 154 -29 -51.5
      vertex 154 -5 -59
    endloop
  endfacet
  facet normal -1 0 0
    outer loop
      vertex 154 -29 -45.5
      vertex 154 -5 -38
      vertex 154 -5 -45.5
    endloop
  endfacet
  facet normal -1 0 0
    outer loop
      vertex 154 -29 -45.5
      vertex 154 -31 -38
      vertex 154 -5 -38
    endloop
  endfacet
  facet normal -1 0 0
    outer loop
      vertex 154 -31 -38
      vertex 154 -29 -45.5
      vertex 154 -31 -59
    endloop
  endfacet
  facet normal 1 -0 0
    outer loop
      vertex 109 -31 -38
      vertex 109 -5 -59
      vertex 109 -5 -38
    endloop
  endfacet
  facet normal 1 0 0
    outer loop
      vertex 109 -5 -59
      vertex 109 -31 -38
      vertex 109 -31 -59
    endloop
  endfacet
  facet normal 0 1 -0
    outer loop
      vertex 154 -31 -59
      vertex 109 -31 -38
      vertex 154 -31 -38
    endloop
  endfacet
  facet normal 0 1 0
    outer loop
      vertex 109 -31 -38
      vertex 154 -31 -59
      vertex 109 -31 -59
    endloop
  endfacet
  facet normal -0 0 1
    outer loop
      vertex 109 -5 -59
      vertex 154 -31 -59
      vertex 154 -5 -59
    endloop
  endfacet
  facet normal 0 0 1
    outer loop
      vertex 154 -31 -59
      vertex 109 -5 -59
      vertex 109 -31 -59
    endloop
  endfacet
  facet normal 0 0 -1
    outer loop
      vertex 109 -31 -38
      vertex 154 -5 -38
      vertex 154 -31 -38
    endloop
  endfacet
  facet normal -0 0 -1
    outer loop
      vertex 154 -5 -38
      vertex 109 -31 -38
      vertex 109 -5 -38
    endloop
  endfacet
  facet normal 0 0 -1
    outer loop
      vertex 154 -29 -45.5
      vertex 160 -5 -45.5
      vertex 160 -29 -45.5
    endloop
  endfacet
  facet normal -0 0 -1
    outer loop
      vertex 160 -5 -45.5
      vertex 154 -29 -45.5
      vertex 154 -5 -45.5
    endloop
  endfacet
  facet normal 0 1 -0
    outer loop
      vertex 160 -29 -51.5
      vertex 154 -29 -45.5
      vertex 160 -29 -45.5
    endloop
  endfacet
  facet normal 0 1 0
    outer loop
      vertex 154 -29 -45.5
      vertex 160 -29 -51.5
      vertex 154 -29 -51.5
    endloop
  endfacet
  facet normal -0 0 1
    outer loop
      vertex 154 -5 -51.5
      vertex 160 -29 -51.5
      vertex 160 -5 -51.5
    endloop
  endfacet
  facet normal 0 0 1
    outer loop
      vertex 160 -29 -51.5
      vertex 154 -5 -51.5
      vertex 154 -29 -51.5
    endloop
  endfacet
  facet normal -1 0 0
    outer loop
      vertex 104 -5 -35
      vertex 104 -34 -35
      vertex 104 -5 0
    endloop
  endfacet
  facet normal -1 0 0
    outer loop
      vertex 104 -5 0
      vertex 104 0 3
      vertex 104 0 0
    endloop
  endfacet
  facet normal -1 0 0
    outer loop
      vertex 104 -5 0
      vertex 104 -34 3
      vertex 104 0 3
    endloop
  endfacet
  facet normal -1 0 0
    outer loop
      vertex 104 -34 3
      vertex 104 -5 0
      vertex 104 -34 -35
    endloop
  endfacet
  facet normal 0 -1 0
    outer loop
      vertex 104 -34 -35
      vertex 160 -34 3
      vertex 104 -34 3
    endloop
  endfacet
  facet normal 0 -1 -0
    outer loop
      vertex 160 -34 3
      vertex 104 -34 -35
      vertex 160 -34 -35
    endloop
  endfacet
  facet normal 0 0 -1
    outer loop
      vertex 104 -34 -35
      vertex 160 -5 -35
      vertex 160 -34 -35
    endloop
  endfacet
  facet normal -0 0 -1
    outer loop
      vertex 160 -5 -35
      vertex 104 -34 -35
      vertex 104 -5 -35
    endloop
  endfacet
  facet normal 0 1 0
    outer loop
      vertex 160 -5 0
      vertex 159 -5 -20
      vertex 159 -5 0
    endloop
  endfacet
  facet normal 0 1 0
    outer loop
      vertex 160 -5 -35
      vertex 156 -5 -20
      vertex 159 -5 -20
    endloop
  endfacet
  facet normal 0 1 0
    outer loop
      vertex 156 -5 -20
      vertex 160 -5 -35
      vertex 108 -5 -20
    endloop
  endfacet
  facet normal 0 1 0
    outer loop
      vertex 104 -5 -35
      vertex 108 -5 -20
      vertex 160 -5 -35
    endloop
  endfacet
  facet normal 0 1 -0
    outer loop
      vertex 160 -5 -35
      vertex 159 -5 -20
      vertex 160 -5 0
    endloop
  endfacet
  facet normal 0 1 -0
    outer loop
      vertex 156 -5 -20
      vertex 108 -5 0
      vertex 156 -5 0
    endloop
  endfacet
  facet normal 0 1 0
    outer loop
      vertex 108 -5 0
      vertex 156 -5 -20
      vertex 108 -5 -20
    endloop
  endfacet
  facet normal 0 1 -0
    outer loop
      vertex 105 -5 -20
      vertex 104 -5 0
      vertex 105 -5 0
    endloop
  endfacet
  facet normal 0 1 0
    outer loop
      vertex 105 -5 -20
      vertex 104 -5 -35
      vertex 104 -5 0
    endloop
  endfacet
  facet normal 0 1 0
    outer loop
      vertex 108 -5 -20
      vertex 104 -5 -35
      vertex 105 -5 -20
    endloop
  endfacet
  facet normal -1 0 0
    outer loop
      vertex 105 -5 -20
      vertex 105 4.9 0
      vertex 105 4.9 -20
    endloop
  endfacet
  facet normal -1 -0 0
    outer loop
      vertex 105 4.9 0
      vertex 105 -5 -20
      vertex 105 -5 0
    endloop
  endfacet
  facet normal 1 -0 0
    outer loop
      vertex 108 -5 0
      vertex 108 4.9 -20
      vertex 108 4.9 0
    endloop
  endfacet
  facet normal 1 0 0
    outer loop
      vertex 108 4.9 -20
      vertex 108 -5 0
      vertex 108 -5 -20
    endloop
  endfacet
  facet normal 0 1 -0
    outer loop
      vertex 108 4.9 -20
      vertex 105 4.9 0
      vertex 108 4.9 0
    endloop
  endfacet
  facet normal 0 1 0
    outer loop
      vertex 105 4.9 0
      vertex 108 4.9 -20
      vertex 105 4.9 -20
    endloop
  endfacet
  facet normal 0 0 -1
    outer loop
      vertex 105 -5 -20
      vertex 108 4.9 -20
      vertex 108 -5 -20
    endloop
  endfacet
  facet normal -0 0 -1
    outer loop
      vertex 108 4.9 -20
      vertex 105 -5 -20
      vertex 105 4.9 -20
    endloop
  endfacet
  facet normal -1 0 0
    outer loop
      vertex 156 -5 -20
      vertex 156 4.9 0
      vertex 156 4.9 -20
    endloop
  endfacet
  facet normal -1 -0 0
    outer loop
      vertex 156 4.9 0
      vertex 156 -5 -20
      vertex 156 -5 0
    endloop
  endfacet
  facet normal 1 -0 0
    outer loop
      vertex 159 -5 0
      vertex 159 4.9 -20
      vertex 159 4.9 0
    endloop
  endfacet
  facet normal 1 0 0
    outer loop
      vertex 159 4.9 -20
      vertex 159 -5 0
      vertex 159 -5 -20
    endloop
  endfacet
  facet normal 0 1 -0
    outer loop
      vertex 159 4.9 -20
      vertex 156 4.9 0
      vertex 159 4.9 0
    endloop
  endfacet
  facet normal 0 1 0
    outer loop
      vertex 156 4.9 0
      vertex 159 4.9 -20
      vertex 156 4.9 -20
    endloop
  endfacet
  facet normal 0 0 -1
    outer loop
      vertex 156 -5 -20
      vertex 159 4.9 -20
      vertex 159 -5 -20
    endloop
  endfacet
  facet normal -0 0 -1
    outer loop
      vertex 159 4.9 -20
      vertex 156 -5 -20
      vertex 156 4.9 -20
    endloop
  endfacet
endsolid OpenSCAD_Model
