solid shim
facet normal -0.9904816909913698 0.0025933469285814035 0.13762010885980558
  outer loop
    vertex 103.81367771705418 40.63249999999993 41.208517
    vertex 98.0 6.999999999999996 0.0
    vertex 103.68919999999994 -6.909500000000016 41.208517
  endloop
endfacet
facet normal -0.9907228818799542 0.004851642192776473 0.13581101902096185
  outer loop
    vertex 103.81367771705418 40.63249999999993 41.208517
    vertex 98.10773560416668 29.000000000000004 0.0
    vertex 98.0 6.999999999999996 0.0
  endloop
endfacet
facet normal 0.004685875569700665 0.956872737947741 0.29046962998313475
  outer loop
    vertex -7.229200000000008 -4.994000134499989 41.208517
    vertex 98.0 6.999999999999996 0.0
    vertex 1.9999999999999996 7.470119000000005 0.0
  endloop
endfacet
facet normal 0.0163720732486907 0.9480366990020798 0.3177394727804204
  outer loop
    vertex 103.68919999999994 -6.909500000000016 41.208517
    vertex 98.0 6.999999999999996 0.0
    vertex -7.229200000000008 -4.994000134499989 41.208517
  endloop
endfacet
facet normal 0.0 0.0 -1.0
  outer loop
    vertex 0.0 36.0 0.0
    vertex 1.9999999999999996 29.000000000000004 0.0
    vertex 0.0 0.0 0.0
  endloop
endfacet
facet normal 0.0 0.0 -1.0
  outer loop
    vertex 1.9999999999999996 29.000000000000004 0.0
    vertex 0.0 36.0 0.0
    vertex 100.0 36.0 0.0
  endloop
endfacet
facet normal 0.0 0.0 -1.0
  outer loop
    vertex 1.9999999999999996 29.000000000000004 0.0
    vertex 100.0 36.0 0.0
    vertex 98.10773560416668 29.000000000000004 0.0
  endloop
endfacet
facet normal 0.0 0.0 -1.0
  outer loop
    vertex 0.0 0.0 0.0
    vertex 1.9999999999999996 7.470119000000005 0.0
    vertex 100.0 0.0 0.0
  endloop
endfacet
facet normal 0.0 0.0 -1.0
  outer loop
    vertex 1.9999999999999996 7.470119000000005 0.0
    vertex 0.0 0.0 0.0
    vertex 1.9999999999999996 29.000000000000004 0.0
  endloop
endfacet
facet normal 0.0 0.0 -1.0
  outer loop
    vertex 100.0 0.0 0.0
    vertex 1.9999999999999996 7.470119000000005 0.0
    vertex 98.0 6.999999999999996 0.0
  endloop
endfacet
facet normal 0.0 0.0 -1.0
  outer loop
    vertex 100.0 0.0 0.0
    vertex 98.0 6.999999999999996 0.0
    vertex 98.10773560416668 29.000000000000004 0.0
  endloop
endfacet
facet normal 0.0 0.0 -1.0
  outer loop
    vertex 100.0 0.0 0.0
    vertex 98.10773560416668 29.000000000000004 0.0
    vertex 100.0 36.0 0.0
  endloop
endfacet
facet normal -1.6742147619097704e-19 -2.1347805630330088e-17 1.0
  outer loop
    vertex -9.540000000000003 -8.099999999999994 41.20851699999999
    vertex -7.229200000000008 -4.994000134499989 41.208517
    vertex -9.540000000000003 44.09999999999996 41.20851699999999
  endloop
endfacet
facet normal -1.6742147619097704e-19 -2.1347805630330088e-17 1.0
  outer loop
    vertex -7.229200000000008 -4.994000134499989 41.208517
    vertex -9.540000000000003 -8.099999999999994 41.20851699999999
    vertex 106.00000000000003 -8.099999999999994 41.20851699999999
  endloop
endfacet
facet normal -1.6742147619097704e-19 -2.1347805630330088e-17 1.0
  outer loop
    vertex -7.229200000000008 -4.994000134499989 41.208517
    vertex 106.00000000000003 -8.099999999999994 41.20851699999999
    vertex 103.68919999999994 -6.909500000000016 41.208517
  endloop
endfacet
facet normal -1.6742147619097704e-19 -2.1347805630330088e-17 1.0
  outer loop
    vertex 103.68919999999994 -6.909500000000016 41.208517
    vertex 106.00000000000003 -8.099999999999994 41.20851699999999
    vertex 103.81367771705418 40.63249999999993 41.208517
  endloop
endfacet
facet normal -1.6742147619097704e-19 -2.1347805630330088e-17 1.0
  outer loop
    vertex -9.540000000000003 44.09999999999996 41.20851699999999
    vertex -7.229200000000008 40.63249999999993 41.208517
    vertex 106.00000000000003 44.09999999999996 41.20851699999999
  endloop
endfacet
facet normal -1.6742147619097704e-19 -2.1347805630330088e-17 1.0
  outer loop
    vertex -7.229200000000008 40.63249999999993 41.208517
    vertex -9.540000000000003 44.09999999999996 41.20851699999999
    vertex -7.229200000000008 -4.994000134499989 41.208517
  endloop
endfacet
facet normal -1.6742147619097704e-19 -2.1347805630330088e-17 1.0
  outer loop
    vertex 106.00000000000003 44.09999999999996 41.20851699999999
    vertex -7.229200000000008 40.63249999999993 41.208517
    vertex 103.81367771705418 40.63249999999993 41.208517
  endloop
endfacet
facet normal -1.6742147619097704e-19 -2.1347805630330088e-17 1.0
  outer loop
    vertex 106.00000000000003 44.09999999999996 41.20851699999999
    vertex 103.81367771705418 40.63249999999993 41.208517
    vertex 106.00000000000003 -8.099999999999994 41.20851699999999
  endloop
endfacet
facet normal -2.858919629105925e-19 0.9812241792633912 -0.19287070806341877
  outer loop
    vertex -9.540000000000003 44.09999999999996 41.20851699999999
    vertex 100.0 36.0 0.0
    vertex 0.0 36.0 0.0
  endloop
endfacet
facet normal -2.858919629105925e-19 0.9812241792633912 -0.19287070806341877
  outer loop
    vertex 100.0 36.0 0.0
    vertex -9.540000000000003 44.09999999999996 41.20851699999999
    vertex 106.00000000000003 44.09999999999996 41.20851699999999
  endloop
endfacet
facet normal -0.9742337881570796 7.061360503600258e-18 -0.2255405196702066
  outer loop
    vertex -9.540000000000003 44.09999999999996 41.20851699999999
    vertex 0.0 0.0 0.0
    vertex -9.540000000000003 -8.099999999999994 41.20851699999999
  endloop
endfacet
facet normal -0.9742337881570796 7.061360503600258e-18 -0.2255405196702066
  outer loop
    vertex 0.0 0.0 0.0
    vertex -9.540000000000003 44.09999999999996 41.20851699999999
    vertex 0.0 36.0 0.0
  endloop
endfacet
facet normal 1.4294598145529624e-19 -0.981224179263391 -0.1928707080634196
  outer loop
    vertex 106.00000000000003 -8.099999999999994 41.20851699999999
    vertex 0.0 0.0 0.0
    vertex 100.0 0.0 0.0
  endloop
endfacet
facet normal 1.4294598145529624e-19 -0.981224179263391 -0.1928707080634196
  outer loop
    vertex 0.0 0.0 0.0
    vertex 106.00000000000003 -8.099999999999994 41.20851699999999
    vertex -9.540000000000003 -8.099999999999994 41.20851699999999
  endloop
endfacet
facet normal 0.9758259087481244 -2.282182056368634e-17 0.2185492983651461
  outer loop
    vertex 1.9999999999999996 7.470119000000005 0.0
    vertex -7.229200000000008 40.63249999999993 41.208517
    vertex -7.229200000000008 -4.994000134499989 41.208517
  endloop
endfacet
facet normal 0.9758259087481244 -2.282182056368634e-17 0.2185492983651461
  outer loop
    vertex -7.229200000000008 40.63249999999993 41.208517
    vertex 1.9999999999999996 7.470119000000005 0.0
    vertex 1.9999999999999996 29.000000000000004 0.0
  endloop
endfacet
facet normal 2.732191613517917e-18 -0.9623911694468775 0.27166751180564774
  outer loop
    vertex 103.81367771705418 40.63249999999993 41.208517
    vertex 1.9999999999999996 29.000000000000004 0.0
    vertex 98.10773560416668 29.000000000000004 0.0
  endloop
endfacet
facet normal 2.732191613517917e-18 -0.9623911694468775 0.27166751180564774
  outer loop
    vertex 1.9999999999999996 29.000000000000004 0.0
    vertex 103.81367771705418 40.63249999999993 41.208517
    vertex -7.229200000000008 40.63249999999993 41.208517
  endloop
endfacet
facet normal 0.9895657900518744 8.246194168369514e-19 -0.1440817377706478
  outer loop
    vertex 100.0 0.0 0.0
    vertex 106.00000000000003 44.09999999999996 41.20851699999999
    vertex 106.00000000000003 -8.099999999999994 41.20851699999999
  endloop
endfacet
facet normal 0.9895657900518744 8.246194168369514e-19 -0.1440817377706478
  outer loop
    vertex 106.00000000000003 44.09999999999996 41.20851699999999
    vertex 100.0 0.0 0.0
    vertex 100.0 36.0 0.0
  endloop
endfacet
endsolid shim
