solid shim_v2
facet normal 0.0 0.0 -1.0
  outer loop
    vertex 205.92221902668248 114.07293907631436 0.0
    vertex 107.92221902668247 108.07293907631436 0.0
    vertex 106.92221902668247 114.07293907631436 0.0
  endloop
endfacet
facet normal 0.0 0.0 -1.0
  outer loop
    vertex 107.92221902668247 108.07293907631436 0.0
    vertex 205.92221902668248 114.07293907631436 0.0
    vertex 203.9222190266825 108.07293907631436 0.0
  endloop
endfacet
facet normal 0.0 0.0 -1.0
  outer loop
    vertex 203.9222190266825 108.07293907631436 0.0
    vertex 205.92221902668248 114.07293907631436 0.0
    vertex 203.9222190266825 92.07293907631437 0.0
  endloop
endfacet
facet normal 0.0 0.0 -1.0
  outer loop
    vertex 106.92221902668247 114.07293907631436 0.0
    vertex 105.92221902668248 86.07293907631437 0.0
    vertex 105.92221902668248 114.07293907631436 0.0
  endloop
endfacet
facet normal 0.0 0.0 -1.0
  outer loop
    vertex 105.92221902668248 86.07293907631437 0.0
    vertex 106.92221902668247 114.07293907631436 0.0
    vertex 107.92221902668247 92.07293907631437 0.0
  endloop
endfacet
facet normal 0.0 0.0 -1.0
  outer loop
    vertex 105.92221902668248 86.07293907631437 0.0
    vertex 107.92221902668247 92.07293907631437 0.0
    vertex 205.92221902668248 86.07293907631437 0.0
  endloop
endfacet
facet normal 0.0 0.0 -1.0
  outer loop
    vertex 107.92221902668247 92.07293907631437 0.0
    vertex 106.92221902668247 114.07293907631436 0.0
    vertex 107.92221902668247 108.07293907631436 0.0
  endloop
endfacet
facet normal 0.0 0.0 -1.0
  outer loop
    vertex 205.92221902668248 86.07293907631437 0.0
    vertex 107.92221902668247 92.07293907631437 0.0
    vertex 203.9222190266825 92.07293907631437 0.0
  endloop
endfacet
facet normal 0.0 0.0 -1.0
  outer loop
    vertex 205.92221902668248 86.07293907631437 0.0
    vertex 203.9222190266825 92.07293907631437 0.0
    vertex 205.92221902668248 114.07293907631436 0.0
  endloop
endfacet
facet normal 0.0 -1.0 0.0
  outer loop
    vertex 205.92221902668248 84.07293907631437 25.0
    vertex 105.92221902668248 84.07293907631437 1.9999999999999998
    vertex 205.92221902668248 84.07293907631437 1.9999999999999998
  endloop
endfacet
facet normal 0.0 -1.0 0.0
  outer loop
    vertex 105.92221902668248 84.07293907631437 1.9999999999999998
    vertex 205.92221902668248 84.07293907631437 25.0
    vertex 105.92221902668248 84.07293907631437 25.0
  endloop
endfacet
facet normal -0.0 1.0 -0.0
  outer loop
    vertex 105.92221902668248 116.07293907631436 25.0
    vertex 205.92221902668248 116.07293907631436 1.9999999999999998
    vertex 105.92221902668248 116.07293907631436 1.9999999999999998
  endloop
endfacet
facet normal -0.0 1.0 -0.0
  outer loop
    vertex 205.92221902668248 116.07293907631436 1.9999999999999998
    vertex 105.92221902668248 116.07293907631436 25.0
    vertex 205.92221902668248 116.07293907631436 25.0
  endloop
endfacet
facet normal 1.0 -0.0 -0.0
  outer loop
    vertex 205.92221902668248 86.07293907631437 0.0
    vertex 205.92221902668248 84.07293907631437 25.0
    vertex 205.92221902668248 84.07293907631437 1.9999999999999998
  endloop
endfacet
facet normal 1.0 -0.0 -0.0
  outer loop
    vertex 205.92221902668248 84.07293907631437 25.0
    vertex 205.92221902668248 86.07293907631437 0.0
    vertex 205.92221902668248 116.07293907631436 25.0
  endloop
endfacet
facet normal 1.0 -0.0 -0.0
  outer loop
    vertex 205.92221902668248 116.07293907631436 25.0
    vertex 205.92221902668248 86.07293907631437 0.0
    vertex 205.92221902668248 114.07293907631436 0.0
  endloop
endfacet
facet normal 1.0 -0.0 -0.0
  outer loop
    vertex 205.92221902668248 116.07293907631436 25.0
    vertex 205.92221902668248 114.07293907631436 0.0
    vertex 205.92221902668248 116.07293907631436 1.9999999999999998
  endloop
endfacet
facet normal -0.0 -0.0 1.0
  outer loop
    vertex 105.92221902668248 84.07293907631437 25.0
    vertex 107.92221902668247 86.3129390763142 25.0
    vertex 105.92221902668248 116.07293907631436 25.0
  endloop
endfacet
facet normal -0.0 -0.0 1.0
  outer loop
    vertex 107.92221902668247 86.3129390763142 25.0
    vertex 105.92221902668248 84.07293907631437 25.0
    vertex 205.92221902668248 84.07293907631437 25.0
  endloop
endfacet
facet normal -0.0 -0.0 1.0
  outer loop
    vertex 107.92221902668247 86.3129390763142 25.0
    vertex 205.92221902668248 84.07293907631437 25.0
    vertex 203.9222190266825 86.3129390763142 25.0
  endloop
endfacet
facet normal -0.0 -0.0 1.0
  outer loop
    vertex 203.9222190266825 86.3129390763142 25.0
    vertex 205.92221902668248 84.07293907631437 25.0
    vertex 203.9222190266825 114.38333907631416 25.0
  endloop
endfacet
facet normal -0.0 -0.0 1.0
  outer loop
    vertex 105.92221902668248 116.07293907631436 25.0
    vertex 107.92221902668247 114.38333907631416 25.0
    vertex 205.92221902668248 116.07293907631436 25.0
  endloop
endfacet
facet normal -0.0 -0.0 1.0
  outer loop
    vertex 107.92221902668247 114.38333907631416 25.0
    vertex 105.92221902668248 116.07293907631436 25.0
    vertex 107.92221902668247 86.3129390763142 25.0
  endloop
endfacet
facet normal -0.0 -0.0 1.0
  outer loop
    vertex 205.92221902668248 116.07293907631436 25.0
    vertex 107.92221902668247 114.38333907631416 25.0
    vertex 203.9222190266825 114.38333907631416 25.0
  endloop
endfacet
facet normal -0.0 -0.0 1.0
  outer loop
    vertex 205.92221902668248 116.07293907631436 25.0
    vertex 203.9222190266825 114.38333907631416 25.0
    vertex 205.92221902668248 84.07293907631437 25.0
  endloop
endfacet
facet normal 1.0 -0.0 -0.0
  outer loop
    vertex 107.92221902668247 92.07293907631437 0.0
    vertex 107.92221902668247 114.38333907631416 25.0
    vertex 107.92221902668247 86.3129390763142 25.0
  endloop
endfacet
facet normal 1.0 -0.0 -0.0
  outer loop
    vertex 107.92221902668247 114.38333907631416 25.0
    vertex 107.92221902668247 92.07293907631437 0.0
    vertex 107.92221902668247 108.07293907631436 0.0
  endloop
endfacet
facet normal -1.0 0.0 0.0
  outer loop
    vertex 203.9222190266825 114.38333907631416 25.0
    vertex 203.9222190266825 92.07293907631437 0.0
    vertex 203.9222190266825 86.3129390763142 25.0
  endloop
endfacet
facet normal -1.0 0.0 0.0
  outer loop
    vertex 203.9222190266825 92.07293907631437 0.0
    vertex 203.9222190266825 114.38333907631416 25.0
    vertex 203.9222190266825 108.07293907631436 0.0
  endloop
endfacet
facet normal -0.0 0.9744699693373365 0.22451788093532915
  outer loop
    vertex 107.92221902668247 86.3129390763142 25.0
    vertex 203.9222190266825 92.07293907631437 0.0
    vertex 107.92221902668247 92.07293907631437 0.0
  endloop
endfacet
facet normal -0.0 0.9744699693373365 0.22451788093532915
  outer loop
    vertex 203.9222190266825 92.07293907631437 0.0
    vertex 107.92221902668247 86.3129390763142 25.0
    vertex 203.9222190266825 86.3129390763142 25.0
  endloop
endfacet
facet normal -5.354426931728848e-32 -0.9695888122009654 0.24473972962051174
  outer loop
    vertex 203.9222190266825 114.38333907631416 25.0
    vertex 107.92221902668247 108.07293907631436 0.0
    vertex 203.9222190266825 108.07293907631436 0.0
  endloop
endfacet
facet normal -5.354426931728848e-32 -0.9695888122009654 0.24473972962051174
  outer loop
    vertex 107.92221902668247 108.07293907631436 0.0
    vertex 203.9222190266825 114.38333907631416 25.0
    vertex 107.92221902668247 114.38333907631416 25.0
  endloop
endfacet
facet normal 0.0 -0.7071067811865481 -0.7071067811865469
  outer loop
    vertex 205.92221902668248 84.07293907631437 1.9999999999999998
    vertex 105.92221902668248 86.07293907631437 0.0
    vertex 205.92221902668248 86.07293907631437 0.0
  endloop
endfacet
facet normal 0.0 -0.7071067811865481 -0.7071067811865469
  outer loop
    vertex 105.92221902668248 86.07293907631437 0.0
    vertex 205.92221902668248 84.07293907631437 1.9999999999999998
    vertex 105.92221902668248 84.07293907631437 1.9999999999999998
  endloop
endfacet
facet normal 1.2590212155660066e-19 0.7071067811865481 -0.7071067811865469
  outer loop
    vertex 105.92221902668248 116.07293907631436 1.9999999999999998
    vertex 205.92221902668248 114.07293907631436 0.0
    vertex 106.92221902668247 114.07293907631436 0.0
  endloop
endfacet
facet normal 1.2590212155660066e-19 0.7071067811865481 -0.7071067811865469
  outer loop
    vertex 205.92221902668248 114.07293907631436 0.0
    vertex 105.92221902668248 116.07293907631436 1.9999999999999998
    vertex 205.92221902668248 116.07293907631436 1.9999999999999998
  endloop
endfacet
facet normal -1.0 0.0 0.0
  outer loop
    vertex 105.92221902668248 116.07293907631436 25.0
    vertex 105.92221902668248 84.07293907631437 1.9999999999999998
    vertex 105.92221902668248 84.07293907631437 25.0
  endloop
endfacet
facet normal -1.0 0.0 0.0
  outer loop
    vertex 105.92221902668248 84.07293907631437 1.9999999999999998
    vertex 105.92221902668248 116.07293907631436 25.0
    vertex 105.92221902668248 86.07293907631437 0.0
  endloop
endfacet
facet normal -1.0 0.0 0.0
  outer loop
    vertex 105.92221902668248 86.07293907631437 0.0
    vertex 105.92221902668248 116.07293907631436 25.0
    vertex 105.92221902668248 114.07293907631436 0.0
  endloop
endfacet
facet normal -1.0 0.0 0.0
  outer loop
    vertex 105.92221902668248 114.07293907631436 0.0
    vertex 105.92221902668248 116.07293907631436 25.0
    vertex 105.92221902668248 116.07293907631436 1.9999999999999998
  endloop
endfacet
facet normal -3.7394818634133907e-16 0.707106781186548 -0.7071067811865471
  outer loop
    vertex 105.92221902668248 116.07293907631436 1.9999999999999998
    vertex 106.92221902668247 114.07293907631436 0.0
    vertex 105.92221902668248 114.07293907631436 0.0
  endloop
endfacet
endsolid shim_v2
