solid shim_v3
facet normal 0.0 -0.9805806756909201 -0.196116135138184
  outer loop
    vertex 100.0 -4.999999999999999 25.0
    vertex 0.0 0.0 0.0
    vertex 100.0 0.0 0.0
  endloop
endfacet
facet normal 0.0 -0.9805806756909201 -0.196116135138184
  outer loop
    vertex 0.0 0.0 0.0
    vertex 100.0 -4.999999999999999 25.0
    vertex 0.0 -4.999999999999999 25.0
  endloop
endfacet
facet normal 1.0 -0.0 -0.0
  outer loop
    vertex 100.0 0.0 0.0
    vertex 100.0 38.99999999999999 25.0
    vertex 100.0 -4.999999999999999 25.0
  endloop
endfacet
facet normal 1.0 -0.0 -0.0
  outer loop
    vertex 100.0 38.99999999999999 25.0
    vertex 100.0 0.0 0.0
    vertex 100.0 34.0 0.0
  endloop
endfacet
facet normal -0.0 0.9805806756909201 -0.1961161351381839
  outer loop
    vertex 0.0 38.99999999999999 25.0
    vertex 100.0 34.0 0.0
    vertex 0.0 34.0 0.0
  endloop
endfacet
facet normal -0.0 0.9805806756909201 -0.1961161351381839
  outer loop
    vertex 100.0 34.0 0.0
    vertex 0.0 38.99999999999999 25.0
    vertex 100.0 38.99999999999999 25.0
  endloop
endfacet
facet normal -1.0 0.0 0.0
  outer loop
    vertex 0.0 38.99999999999999 25.0
    vertex 0.0 0.0 0.0
    vertex 0.0 -4.999999999999999 25.0
  endloop
endfacet
facet normal -1.0 0.0 0.0
  outer loop
    vertex 0.0 0.0 0.0
    vertex 0.0 38.99999999999999 25.0
    vertex 0.0 34.0 0.0
  endloop
endfacet
facet normal 3.8510964519385194e-33 0.9153150324227656 0.4027386142660171
  outer loop
    vertex 3.000000000000003 -1.9999999999999973 25.0
    vertex 97.0 9.000000000000007 0.0
    vertex 3.000000000000003 9.000000000000007 0.0
  endloop
endfacet
facet normal 3.8510964519385194e-33 0.9153150324227656 0.4027386142660171
  outer loop
    vertex 97.0 9.000000000000007 0.0
    vertex 3.000000000000003 -1.9999999999999973 25.0
    vertex 97.0 -1.9999999999999973 25.0
  endloop
endfacet
facet normal 4.335949136479584e-18 -0.9153150324227657 0.402738614266017
  outer loop
    vertex 97.0 36.00000000000004 24.999999999999996
    vertex 3.000000000000003 25.00000000000006 0.0
    vertex 97.0 25.00000000000006 0.0
  endloop
endfacet
facet normal 4.335949136479584e-18 -0.9153150324227657 0.402738614266017
  outer loop
    vertex 3.000000000000003 25.00000000000006 0.0
    vertex 97.0 36.00000000000004 24.999999999999996
    vertex 3.000000000000003 36.00000000000004 24.999999999999996
  endloop
endfacet
facet normal -4.1389724524789694e-20 3.105486276278853e-17 1.0
  outer loop
    vertex 0.0 -4.999999999999999 25.0
    vertex 3.000000000000003 -1.9999999999999973 25.0
    vertex 0.0 38.99999999999999 25.0
  endloop
endfacet
facet normal -4.1389724524789694e-20 3.105486276278853e-17 1.0
  outer loop
    vertex 3.000000000000003 -1.9999999999999973 25.0
    vertex 0.0 -4.999999999999999 25.0
    vertex 100.0 -4.999999999999999 25.0
  endloop
endfacet
facet normal -4.1389724524789694e-20 3.105486276278853e-17 1.0
  outer loop
    vertex 3.000000000000003 -1.9999999999999973 25.0
    vertex 100.0 -4.999999999999999 25.0
    vertex 97.0 -1.9999999999999973 25.0
  endloop
endfacet
facet normal -4.1389724524789694e-20 3.105486276278853e-17 1.0
  outer loop
    vertex 97.0 -1.9999999999999973 25.0
    vertex 100.0 -4.999999999999999 25.0
    vertex 97.0 36.00000000000004 24.999999999999996
  endloop
endfacet
facet normal -4.1389724524789694e-20 3.105486276278853e-17 1.0
  outer loop
    vertex 0.0 38.99999999999999 25.0
    vertex 3.000000000000003 36.00000000000004 24.999999999999996
    vertex 100.0 38.99999999999999 25.0
  endloop
endfacet
facet normal -4.1389724524789694e-20 3.105486276278853e-17 1.0
  outer loop
    vertex 3.000000000000003 36.00000000000004 24.999999999999996
    vertex 0.0 38.99999999999999 25.0
    vertex 3.000000000000003 -1.9999999999999973 25.0
  endloop
endfacet
facet normal -4.1389724524789694e-20 3.105486276278853e-17 1.0
  outer loop
    vertex 100.0 38.99999999999999 25.0
    vertex 3.000000000000003 36.00000000000004 24.999999999999996
    vertex 97.0 36.00000000000004 24.999999999999996
  endloop
endfacet
facet normal -4.1389724524789694e-20 3.105486276278853e-17 1.0
  outer loop
    vertex 100.0 38.99999999999999 25.0
    vertex 97.0 36.00000000000004 24.999999999999996
    vertex 100.0 -4.999999999999999 25.0
  endloop
endfacet
facet normal 1.0 -0.0 -0.0
  outer loop
    vertex 3.000000000000003 9.000000000000007 0.0
    vertex 3.000000000000003 36.00000000000004 24.999999999999996
    vertex 3.000000000000003 -1.9999999999999973 25.0
  endloop
endfacet
facet normal 1.0 -0.0 -0.0
  outer loop
    vertex 3.000000000000003 36.00000000000004 24.999999999999996
    vertex 3.000000000000003 9.000000000000007 0.0
    vertex 3.000000000000003 25.00000000000006 0.0
  endloop
endfacet
facet normal -1.0 0.0 0.0
  outer loop
    vertex 97.0 36.00000000000004 24.999999999999996
    vertex 97.0 9.000000000000007 0.0
    vertex 97.0 -1.9999999999999973 25.0
  endloop
endfacet
facet normal -1.0 0.0 0.0
  outer loop
    vertex 97.0 9.000000000000007 0.0
    vertex 97.0 36.00000000000004 24.999999999999996
    vertex 97.0 25.00000000000006 0.0
  endloop
endfacet
facet normal 0.0 0.0 -1.0
  outer loop
    vertex 0.0 34.0 0.0
    vertex 3.000000000000003 25.00000000000006 0.0
    vertex 0.0 0.0 0.0
  endloop
endfacet
facet normal 0.0 0.0 -1.0
  outer loop
    vertex 3.000000000000003 25.00000000000006 0.0
    vertex 0.0 34.0 0.0
    vertex 100.0 34.0 0.0
  endloop
endfacet
facet normal 0.0 0.0 -1.0
  outer loop
    vertex 3.000000000000003 25.00000000000006 0.0
    vertex 100.0 34.0 0.0
    vertex 97.0 25.00000000000006 0.0
  endloop
endfacet
facet normal 0.0 0.0 -1.0
  outer loop
    vertex 97.0 25.00000000000006 0.0
    vertex 100.0 34.0 0.0
    vertex 97.0 9.000000000000007 0.0
  endloop
endfacet
facet normal 0.0 0.0 -1.0
  outer loop
    vertex 0.0 0.0 0.0
    vertex 3.000000000000003 9.000000000000007 0.0
    vertex 100.0 0.0 0.0
  endloop
endfacet
facet normal 0.0 0.0 -1.0
  outer loop
    vertex 3.000000000000003 9.000000000000007 0.0
    vertex 0.0 0.0 0.0
    vertex 3.000000000000003 25.00000000000006 0.0
  endloop
endfacet
facet normal 0.0 0.0 -1.0
  outer loop
    vertex 100.0 0.0 0.0
    vertex 3.000000000000003 9.000000000000007 0.0
    vertex 97.0 9.000000000000007 0.0
  endloop
endfacet
facet normal 0.0 0.0 -1.0
  outer loop
    vertex 100.0 0.0 0.0
    vertex 97.0 9.000000000000007 0.0
    vertex 100.0 34.0 0.0
  endloop
endfacet
endsolid shim_v3
